<svg width="326" height="149" viewBox="0 0 326 149" fill="none" xmlns="http://www.w3.org/2000/svg">
<path d="M68.0453 110.6C66.4453 107.8 63.2453 105.733 58.4453 104.4C53.6453 102.933 48.512 102.2 43.0453 102.2C35.4453 102.2 29.512 103.4 25.2453 105.8C21.112 108.067 19.0453 111.333 19.0453 115.6C19.0453 119.6 21.0453 122.867 25.0453 125.4C29.1786 127.8 35.1786 129 43.0453 129C45.712 129 48.312 128.733 50.8453 128.2C53.512 127.667 55.9786 126.933 58.2453 126C60.512 125.067 62.512 123.933 64.2453 122.6C65.9786 121.267 67.2453 119.8 68.0453 118.2V110.6ZM6.24531 61.2C9.97865 56 15.112 51.8 21.6453 48.6C28.1786 45.4 35.4453 43.8 43.4453 43.8C56.7786 43.8 67.2453 47.2667 74.8453 54.2C82.4453 61 86.2453 70.6 86.2453 83V146H68.6453V137.2C67.4453 138.933 65.7786 140.467 63.6453 141.8C61.512 143.133 59.112 144.333 56.4453 145.4C53.912 146.333 51.2453 147.067 48.4453 147.6C45.6453 148.133 42.8453 148.4 40.0453 148.4C28.1786 148.4 18.6453 145.6 11.4453 140C4.37865 134.267 0.845313 126.267 0.845313 116C0.845313 110.8 1.84531 106.2 3.84531 102.2C5.97865 98.2 8.84531 94.8 12.4453 92C16.0453 89.2 20.2453 87.1333 25.0453 85.8C29.8453 84.3333 35.0453 83.6 40.6453 83.6C42.912 83.6 45.312 83.8 47.8453 84.2C50.512 84.4667 53.0453 84.9333 55.4453 85.6C57.9786 86.2667 60.312 87.1333 62.4453 88.2C64.5786 89.1333 66.4453 90.3333 68.0453 91.8V87C68.0453 82.8667 67.312 79.3333 65.8453 76.4C64.3787 73.3333 62.4453 70.8667 60.0453 69C57.6453 67 54.7786 65.5333 51.4453 64.6C48.2453 63.6667 44.8453 63.2 41.2453 63.2C34.8453 63.2 29.0453 64.4667 23.8453 67C18.6453 69.5333 14.512 72.8667 11.4453 77L6.24531 61.2ZM174.202 86.2L113.602 59.4V40.2L197.402 77.4V95L113.602 132.2V113L174.202 86.2ZM321.214 74.8C324.014 81.2 325.414 88.2667 325.414 96C325.414 103.733 324.014 110.867 321.214 117.4C318.547 123.8 314.814 129.333 310.014 134C305.347 138.533 299.881 142.067 293.614 144.6C287.481 147.133 280.947 148.4 274.014 148.4C266.414 148.4 259.814 147.2 254.214 144.8C248.614 142.267 245.014 139.133 243.414 135.4V146H225.814V0.399991H244.014V57C245.614 53.2667 249.147 50.1333 254.614 47.6C260.081 45.0667 266.614 43.8 274.214 43.8C281.014 43.8 287.481 45.0667 293.614 47.6C299.881 50.1333 305.347 53.7333 310.014 58.4C314.681 62.9333 318.414 68.4 321.214 74.8ZM307.214 96.4C307.214 86.2667 304.147 78.2 298.014 72.2C291.881 66.2 283.747 63.2 273.614 63.2C266.681 63.2 260.414 64.8 254.814 68C249.347 71.0667 245.747 75 244.014 79.8V112.4C245.747 117.2 249.347 121.2 254.814 124.4C260.414 127.467 266.681 129 273.614 129C283.747 129 291.881 126.067 298.014 120.2C304.147 114.333 307.214 106.4 307.214 96.4Z" fill="black"/>
</svg>
