<svg width="1292" height="728" viewBox="0 0 1292 728" fill="none" xmlns="http://www.w3.org/2000/svg">
<path d="M30.936 14.512C33.24 14.512 35.424 14.8 37.488 15.376C39.552 15.952 41.424 16.72 43.104 17.68C44.832 18.592 46.296 19.648 47.496 20.848C48.696 22.048 49.584 23.248 50.16 24.448L48.504 29.56C46.584 26.776 44.136 24.592 41.16 23.008C38.232 21.376 34.872 20.56 31.08 20.56C28.152 20.56 25.488 21.04 23.088 22C20.688 22.96 18.648 24.328 16.968 26.104C15.288 27.88 13.968 30.04 13.008 32.584C12.096 35.08 11.64 37.888 11.64 41.008C11.64 44.272 12.12 47.2 13.08 49.792C14.04 52.336 15.384 54.496 17.112 56.272C18.84 58.048 20.904 59.416 23.304 60.376C25.752 61.288 28.416 61.744 31.296 61.744C34.032 61.744 36.576 61.312 38.928 60.448C41.28 59.536 43.368 58.216 45.192 56.488V47.128H30.936V41.152H50.88V58.144C50.016 59.584 48.84 60.904 47.352 62.104C45.912 63.256 44.28 64.264 42.456 65.128C40.68 65.944 38.784 66.592 36.768 67.072C34.8 67.552 32.856 67.792 30.936 67.792C27.528 67.792 24.312 67.168 21.288 65.92C18.264 64.672 15.624 62.896 13.368 60.592C11.112 58.24 9.312 55.432 7.968 52.168C6.672 48.904 6.024 45.256 6.024 41.224C6.024 37.192 6.672 33.544 7.968 30.28C9.312 26.968 11.112 24.16 13.368 21.856C15.624 19.504 18.264 17.704 21.288 16.456C24.312 15.16 27.528 14.512 30.936 14.512ZM92.7525 48.64C92.7525 49.408 92.6805 50.224 92.5365 51.088H64.3845C64.7685 54.784 66.1605 57.496 68.5605 59.224C70.9605 60.904 73.8645 61.744 77.2725 61.744C79.8645 61.744 82.0725 61.36 83.8965 60.592C85.7685 59.824 87.4245 58.672 88.8645 57.136L89.8725 61.816C89.4885 62.632 88.8885 63.4 88.0725 64.12C87.3045 64.84 86.3445 65.464 85.1925 65.992C84.0885 66.52 82.8405 66.952 81.4485 67.288C80.1045 67.624 78.6885 67.792 77.2005 67.792C74.6565 67.792 72.2565 67.384 70.0005 66.568C67.7925 65.704 65.8725 64.48 64.2405 62.896C62.6085 61.312 61.3125 59.368 60.3525 57.064C59.4405 54.76 58.9845 52.168 58.9845 49.288C58.9845 46.696 59.3925 44.296 60.2085 42.088C61.0245 39.832 62.1765 37.864 63.6645 36.184C65.2005 34.504 67.0245 33.184 69.1365 32.224C71.2485 31.264 73.6245 30.784 76.2645 30.784C78.7125 30.784 80.9445 31.264 82.9605 32.224C85.0245 33.136 86.7765 34.408 88.2165 36.04C89.6565 37.672 90.7605 39.568 91.5285 41.728C92.3445 43.888 92.7525 46.192 92.7525 48.64ZM76.2645 36.544C74.9685 36.544 73.6965 36.736 72.4485 37.12C71.2005 37.456 70.0485 38.008 68.9925 38.776C67.9365 39.496 67.0245 40.432 66.2565 41.584C65.5365 42.688 65.0325 44.008 64.7445 45.544H87.0645C86.6805 42.76 85.5045 40.576 83.5365 38.992C81.5685 37.36 79.1445 36.544 76.2645 36.544ZM121.213 38.128C120.013 37.072 118.309 36.544 116.101 36.544C113.941 36.544 112.141 37.288 110.701 38.776C109.261 40.264 108.325 42.04 107.893 44.104V67H102.565V31.576H107.749V36.04C108.277 34.552 109.189 33.304 110.485 32.296C111.829 31.288 113.653 30.784 115.957 30.784C117.301 30.784 118.525 31.024 119.629 31.504C120.733 31.936 121.549 32.56 122.077 33.376L121.213 38.128ZM135.526 14.584V35.824C136.102 34.528 137.422 33.376 139.486 32.368C141.598 31.312 144.094 30.784 146.974 30.784C149.374 30.784 151.654 31.24 153.814 32.152C155.974 33.064 157.87 34.336 159.502 35.968C161.182 37.6 162.502 39.544 163.462 41.8C164.47 44.056 164.974 46.552 164.974 49.288C164.974 52.024 164.47 54.52 163.462 56.776C162.502 59.032 161.182 60.976 159.502 62.608C157.87 64.24 155.974 65.512 153.814 66.424C151.654 67.336 149.374 67.792 146.974 67.792C145.534 67.792 144.166 67.648 142.87 67.36C141.622 67.072 140.47 66.712 139.414 66.28C138.406 65.8 137.542 65.272 136.822 64.696C136.15 64.072 135.67 63.424 135.382 62.752V67H130.198V14.584H135.526ZM158.638 54.616C159.31 53.032 159.646 51.256 159.646 49.288C159.646 47.32 159.31 45.568 158.638 44.032C158.014 42.448 157.126 41.104 155.974 40C154.87 38.896 153.526 38.056 151.942 37.48C150.358 36.856 148.63 36.544 146.758 36.544C144.022 36.544 141.598 37.144 139.486 38.344C137.422 39.496 136.102 41.152 135.526 43.312V55.264C136.102 57.424 137.422 59.104 139.486 60.304C141.598 61.456 144.022 62.032 146.758 62.032C148.63 62.032 150.358 61.744 151.942 61.168C153.526 60.544 154.87 59.68 155.974 58.576C157.126 57.472 158.014 56.152 158.638 54.616ZM206.096 48.64C206.096 49.408 206.024 50.224 205.88 51.088H177.728C178.112 54.784 179.504 57.496 181.904 59.224C184.304 60.904 187.208 61.744 190.616 61.744C193.208 61.744 195.416 61.36 197.24 60.592C199.112 59.824 200.768 58.672 202.208 57.136L203.216 61.816C202.832 62.632 202.232 63.4 201.416 64.12C200.648 64.84 199.688 65.464 198.536 65.992C197.432 66.52 196.184 66.952 194.792 67.288C193.448 67.624 192.032 67.792 190.544 67.792C188 67.792 185.6 67.384 183.344 66.568C181.136 65.704 179.216 64.48 177.584 62.896C175.952 61.312 174.656 59.368 173.696 57.064C172.784 54.76 172.328 52.168 172.328 49.288C172.328 46.696 172.736 44.296 173.552 42.088C174.368 39.832 175.52 37.864 177.008 36.184C178.544 34.504 180.368 33.184 182.48 32.224C184.592 31.264 186.968 30.784 189.608 30.784C192.056 30.784 194.288 31.264 196.304 32.224C198.368 33.136 200.12 34.408 201.56 36.04C203 37.672 204.104 39.568 204.872 41.728C205.688 43.888 206.096 46.192 206.096 48.64ZM189.608 36.544C188.312 36.544 187.04 36.736 185.792 37.12C184.544 37.456 183.392 38.008 182.336 38.776C181.28 39.496 180.368 40.432 179.6 41.584C178.88 42.688 178.376 44.008 178.088 45.544H200.408C200.024 42.76 198.848 40.576 196.88 38.992C194.912 37.36 192.488 36.544 189.608 36.544ZM234.557 38.128C233.357 37.072 231.653 36.544 229.445 36.544C227.285 36.544 225.485 37.288 224.045 38.776C222.605 40.264 221.669 42.04 221.237 44.104V67H215.909V31.576H221.093V36.04C221.621 34.552 222.533 33.304 223.829 32.296C225.173 31.288 226.997 30.784 229.301 30.784C230.645 30.784 231.869 31.024 232.973 31.504C234.077 31.936 234.893 32.56 235.421 33.376L234.557 38.128ZM255.782 30.784C257.942 30.784 259.934 31.096 261.758 31.72C263.63 32.296 265.214 33.16 266.51 34.312C267.854 35.464 268.91 36.904 269.678 38.632C270.446 40.36 270.83 42.328 270.83 44.536V67H265.646V63.616C264.734 64.864 263.318 65.872 261.398 66.64C259.478 67.408 257.39 67.792 255.134 67.792C250.718 67.792 247.262 66.76 244.766 64.696C242.27 62.632 241.022 59.8 241.022 56.2C241.022 54.472 241.382 52.912 242.102 51.52C242.822 50.128 243.806 48.952 245.054 47.992C246.35 46.984 247.862 46.24 249.59 45.76C251.318 45.232 253.19 44.968 255.206 44.968C255.878 44.968 256.646 45.016 257.51 45.112C258.422 45.208 259.358 45.4 260.318 45.688C261.278 45.928 262.214 46.264 263.126 46.696C264.038 47.08 264.83 47.584 265.502 48.208V45.976C265.502 42.712 264.518 40.336 262.55 38.848C260.63 37.312 258.23 36.544 255.35 36.544C253.094 36.544 251.006 37 249.086 37.912C247.166 38.824 245.678 39.976 244.622 41.368L243.182 36.616C243.662 35.8 244.334 35.056 245.198 34.384C246.062 33.664 247.046 33.04 248.15 32.512C249.254 31.984 250.454 31.576 251.75 31.288C253.046 30.952 254.39 30.784 255.782 30.784ZM265.502 54.4C264.83 53.152 263.558 52.24 261.686 51.664C259.862 51.04 257.846 50.728 255.638 50.728C252.758 50.728 250.478 51.232 248.798 52.24C247.166 53.2 246.35 54.52 246.35 56.2C246.35 57.832 247.118 59.224 248.654 60.376C250.238 61.48 252.566 62.032 255.638 62.032C257.894 62.032 259.934 61.624 261.758 60.808C263.582 59.992 264.83 58.936 265.502 57.64V54.4ZM302.616 15.304H308.232V61.024H328.752V67H302.616V15.304ZM336.14 31.576H341.468V67H336.14V31.576ZM335.78 22.864C334.964 22.048 334.556 21.04 334.556 19.84C334.556 18.64 334.964 17.632 335.78 16.816C336.596 16 337.604 15.592 338.804 15.592C340.004 15.592 341.012 16 341.828 16.816C342.644 17.632 343.052 18.64 343.052 19.84C343.052 21.04 342.644 22.048 341.828 22.864C341.012 23.68 340.004 24.088 338.804 24.088C337.604 24.088 336.596 23.68 335.78 22.864ZM385.621 31.576V68.584C385.621 70.744 385.213 72.712 384.397 74.488C383.629 76.312 382.525 77.848 381.085 79.096C379.645 80.392 377.917 81.376 375.901 82.048C373.933 82.768 371.773 83.128 369.421 83.128C366.397 83.128 363.517 82.576 360.781 81.472C358.093 80.368 356.005 78.592 354.517 76.144L356.029 71.176C357.565 73.192 359.437 74.704 361.645 75.712C363.853 76.768 366.229 77.296 368.773 77.296C370.117 77.296 371.461 77.152 372.805 76.864C374.197 76.576 375.445 76.024 376.549 75.208C377.653 74.392 378.541 73.24 379.213 71.752C379.933 70.312 380.293 68.44 380.293 66.136V62.104C380.005 62.728 379.501 63.352 378.781 63.976C378.109 64.552 377.269 65.08 376.261 65.56C375.301 65.992 374.173 66.352 372.877 66.64C371.629 66.88 370.285 67 368.845 67C366.445 67 364.165 66.568 362.005 65.704C359.845 64.792 357.925 63.544 356.245 61.96C354.613 60.376 353.293 58.48 352.285 56.272C351.325 54.064 350.845 51.616 350.845 48.928C350.845 46.288 351.325 43.864 352.285 41.656C353.293 39.4 354.613 37.48 356.245 35.896C357.925 34.264 359.845 33.016 362.005 32.152C364.165 31.24 366.445 30.784 368.845 30.784C370.285 30.784 371.629 30.928 372.877 31.216C374.173 31.456 375.325 31.816 376.333 32.296C377.389 32.776 378.253 33.328 378.925 33.952C379.645 34.528 380.149 35.128 380.437 35.752V31.576H385.621ZM380.293 43.168C379.717 41.056 378.373 39.424 376.261 38.272C374.197 37.12 371.797 36.544 369.061 36.544C367.189 36.544 365.461 36.832 363.877 37.408C362.293 37.984 360.925 38.8 359.773 39.856C358.669 40.912 357.781 42.208 357.109 43.744C356.485 45.28 356.173 47.008 356.173 48.928C356.173 50.848 356.485 52.576 357.109 54.112C357.781 55.648 358.669 56.944 359.773 58C360.925 59.056 362.293 59.872 363.877 60.448C365.461 60.976 367.189 61.24 369.061 61.24C371.797 61.24 374.197 60.688 376.261 59.584C378.373 58.432 379.717 56.8 380.293 54.688V43.168ZM403.136 67H397.808V14.584H403.136V35.896C403.616 34.504 404.744 33.304 406.52 32.296C408.296 31.288 410.528 30.784 413.216 30.784C415.088 30.784 416.912 31.096 418.688 31.72C420.512 32.344 422.144 33.328 423.584 34.672C425.024 35.968 426.176 37.624 427.04 39.64C427.952 41.656 428.408 44.056 428.408 46.84V67H423.08V47.056C423.08 43.648 422.144 41.056 420.272 39.28C418.448 37.456 416.12 36.544 413.288 36.544C412.088 36.544 410.912 36.736 409.76 37.12C408.656 37.456 407.624 37.96 406.664 38.632C405.752 39.256 404.984 40 404.36 40.864C403.736 41.728 403.328 42.688 403.136 43.744V67ZM461.521 63.328C460.993 64.576 459.961 65.632 458.425 66.496C456.937 67.36 455.113 67.792 452.953 67.792C449.785 67.792 447.313 66.832 445.537 64.912C443.809 62.992 442.945 59.968 442.945 55.84V37.192H436.465V35.464L446.473 22.648H448.201V31.576H461.305V37.192H448.273V54.904C448.273 57.352 448.777 59.104 449.785 60.16C450.793 61.216 452.257 61.744 454.177 61.744C455.665 61.744 456.889 61.432 457.849 60.808C458.809 60.184 459.625 59.488 460.297 58.72L461.521 63.328Z" fill="black"/>
<path d="M31.08 172.44C33.384 172.44 35.544 172.728 37.56 173.304C39.624 173.832 41.472 174.552 43.104 175.464C44.784 176.376 46.248 177.432 47.496 178.632C48.744 179.784 49.704 180.984 50.376 182.232L48.288 188.352C47.472 187.2 46.488 186.096 45.336 185.04C44.184 183.984 42.888 183.072 41.448 182.304C40.008 181.536 38.424 180.936 36.696 180.504C35.016 180.024 33.24 179.784 31.368 179.784C28.584 179.784 26.04 180.24 23.736 181.152C21.432 182.064 19.464 183.36 17.832 185.04C16.2 186.72 14.928 188.76 14.016 191.16C13.152 193.512 12.72 196.152 12.72 199.08C12.72 202.152 13.176 204.888 14.088 207.288C15.048 209.688 16.368 211.728 18.048 213.408C19.728 215.04 21.72 216.312 24.024 217.224C26.376 218.088 28.968 218.52 31.8 218.52C34.392 218.52 36.768 218.112 38.928 217.296C41.136 216.48 43.08 215.304 44.76 213.768V205.704H31.44V198.432H51.528V215.856C50.664 217.296 49.512 218.616 48.072 219.816C46.632 221.016 45.024 222.072 43.248 222.984C41.472 223.896 39.552 224.592 37.488 225.072C35.472 225.6 33.384 225.864 31.224 225.864C27.816 225.864 24.576 225.24 21.504 223.992C18.432 222.696 15.744 220.896 13.44 218.592C11.136 216.24 9.288 213.432 7.896 210.168C6.552 206.904 5.88 203.256 5.88 199.224C5.88 195.192 6.552 191.544 7.896 188.28C9.24 184.968 11.064 182.136 13.368 179.784C15.672 177.432 18.336 175.632 21.36 174.384C24.432 173.088 27.672 172.44 31.08 172.44ZM78.339 218.88C79.491 218.88 80.619 218.736 81.723 218.448C82.827 218.16 83.859 217.8 84.819 217.368C85.827 216.936 86.715 216.432 87.483 215.856C88.251 215.28 88.899 214.704 89.427 214.128L91.155 219.24C90.771 220.056 90.171 220.848 89.355 221.616C88.587 222.384 87.627 223.104 86.475 223.776C85.371 224.4 84.099 224.904 82.659 225.288C81.219 225.672 79.659 225.864 77.979 225.864C75.291 225.864 72.795 225.432 70.491 224.568C68.235 223.656 66.267 222.408 64.587 220.824C62.955 219.192 61.659 217.224 60.699 214.92C59.787 212.568 59.331 209.952 59.331 207.072C59.331 204.576 59.739 202.2 60.555 199.944C61.371 197.64 62.547 195.624 64.083 193.896C65.619 192.168 67.467 190.8 69.627 189.792C71.787 188.736 74.235 188.208 76.971 188.208C79.563 188.208 81.891 188.712 83.955 189.72C86.019 190.728 87.771 192.096 89.211 193.824C90.699 195.504 91.827 197.496 92.595 199.8C93.363 202.056 93.747 204.456 93.747 207C93.747 207.768 93.675 208.584 93.531 209.448H66.027C66.363 212.616 67.635 214.992 69.843 216.576C72.051 218.112 74.883 218.88 78.339 218.88ZM86.763 202.824C86.667 201.768 86.355 200.784 85.827 199.872C85.299 198.912 84.579 198.096 83.667 197.424C82.803 196.704 81.795 196.152 80.643 195.768C79.491 195.384 78.267 195.192 76.971 195.192C75.675 195.192 74.403 195.384 73.155 195.768C71.955 196.152 70.875 196.68 69.915 197.352C69.003 198.024 68.235 198.84 67.611 199.8C66.987 200.712 66.603 201.72 66.459 202.824H86.763ZM122.635 196.92C122.059 196.392 121.363 195.984 120.547 195.696C119.731 195.36 118.795 195.192 117.739 195.192C116.539 195.192 115.483 195.408 114.571 195.84C113.659 196.224 112.867 196.752 112.195 197.424C111.523 198.096 110.971 198.84 110.539 199.656C110.155 200.472 109.867 201.312 109.675 202.176V225H103.123V189.072H109.459V193.752C110.035 192.216 110.971 190.92 112.267 189.864C113.611 188.76 115.411 188.208 117.667 188.208C119.011 188.208 120.211 188.472 121.267 189C122.371 189.528 123.163 190.224 123.643 191.088L122.635 196.92ZM165.803 199.368C166.811 201.672 167.315 204.216 167.315 207C167.315 209.784 166.811 212.352 165.803 214.704C164.843 217.008 163.499 219 161.771 220.68C160.091 222.312 158.123 223.584 155.867 224.496C153.659 225.408 151.307 225.864 148.811 225.864C146.075 225.864 143.699 225.432 141.683 224.568C139.667 223.656 138.371 222.528 137.795 221.184V225H131.459V172.584H138.011V192.96C138.587 191.616 139.859 190.488 141.827 189.576C143.795 188.664 146.147 188.208 148.883 188.208C151.331 188.208 153.659 188.664 155.867 189.576C158.123 190.488 160.091 191.784 161.771 193.464C163.451 195.096 164.795 197.064 165.803 199.368ZM160.763 207.144C160.763 203.496 159.659 200.592 157.451 198.432C155.243 196.272 152.315 195.192 148.667 195.192C146.171 195.192 143.915 195.768 141.899 196.92C139.931 198.024 138.635 199.44 138.011 201.168V212.904C138.635 214.632 139.931 216.072 141.899 217.224C143.915 218.328 146.171 218.88 148.667 218.88C152.315 218.88 155.243 217.824 157.451 215.712C159.659 213.6 160.763 210.744 160.763 207.144ZM193.23 218.88C194.382 218.88 195.51 218.736 196.614 218.448C197.718 218.16 198.75 217.8 199.71 217.368C200.718 216.936 201.606 216.432 202.374 215.856C203.142 215.28 203.79 214.704 204.318 214.128L206.046 219.24C205.662 220.056 205.062 220.848 204.246 221.616C203.478 222.384 202.518 223.104 201.366 223.776C200.262 224.4 198.99 224.904 197.55 225.288C196.11 225.672 194.55 225.864 192.87 225.864C190.182 225.864 187.686 225.432 185.382 224.568C183.126 223.656 181.158 222.408 179.478 220.824C177.846 219.192 176.55 217.224 175.59 214.92C174.678 212.568 174.222 209.952 174.222 207.072C174.222 204.576 174.63 202.2 175.446 199.944C176.262 197.64 177.438 195.624 178.974 193.896C180.51 192.168 182.358 190.8 184.518 189.792C186.678 188.736 189.126 188.208 191.862 188.208C194.454 188.208 196.782 188.712 198.846 189.72C200.91 190.728 202.662 192.096 204.102 193.824C205.59 195.504 206.718 197.496 207.486 199.8C208.254 202.056 208.638 204.456 208.638 207C208.638 207.768 208.566 208.584 208.422 209.448H180.918C181.254 212.616 182.526 214.992 184.734 216.576C186.942 218.112 189.774 218.88 193.23 218.88ZM201.654 202.824C201.558 201.768 201.246 200.784 200.718 199.872C200.19 198.912 199.47 198.096 198.558 197.424C197.694 196.704 196.686 196.152 195.534 195.768C194.382 195.384 193.158 195.192 191.862 195.192C190.566 195.192 189.294 195.384 188.046 195.768C186.846 196.152 185.766 196.68 184.806 197.352C183.894 198.024 183.126 198.84 182.502 199.8C181.878 200.712 181.494 201.72 181.35 202.824H201.654ZM237.525 196.92C236.949 196.392 236.253 195.984 235.437 195.696C234.621 195.36 233.685 195.192 232.629 195.192C231.429 195.192 230.373 195.408 229.461 195.84C228.549 196.224 227.757 196.752 227.085 197.424C226.413 198.096 225.861 198.84 225.429 199.656C225.045 200.472 224.757 201.312 224.565 202.176V225H218.013V189.072H224.349V193.752C224.925 192.216 225.861 190.92 227.157 189.864C228.501 188.76 230.301 188.208 232.557 188.208C233.901 188.208 235.101 188.472 236.157 189C237.261 189.528 238.053 190.224 238.533 191.088L237.525 196.92ZM268.021 212.256C267.445 211.248 266.293 210.504 264.565 210.024C262.837 209.496 260.989 209.232 259.021 209.232C256.285 209.232 254.149 209.664 252.613 210.528C251.125 211.344 250.381 212.52 250.381 214.056C250.381 215.496 251.101 216.672 252.541 217.584C254.029 218.448 256.189 218.88 259.021 218.88C259.981 218.88 260.917 218.784 261.829 218.592C262.789 218.4 263.677 218.136 264.493 217.8C265.309 217.464 266.029 217.056 266.653 216.576C267.277 216.096 267.733 215.568 268.021 214.992V212.256ZM245.773 194.472C247.117 192.6 248.965 191.088 251.317 189.936C253.669 188.784 256.285 188.208 259.165 188.208C263.965 188.208 267.733 189.456 270.469 191.952C273.205 194.4 274.573 197.856 274.573 202.32V225H268.237V221.832C267.805 222.456 267.205 223.008 266.437 223.488C265.669 223.968 264.805 224.4 263.845 224.784C262.933 225.12 261.973 225.384 260.965 225.576C259.957 225.768 258.949 225.864 257.941 225.864C253.669 225.864 250.237 224.856 247.645 222.84C245.101 220.776 243.829 217.896 243.829 214.2C243.829 212.328 244.189 210.672 244.909 209.232C245.677 207.792 246.709 206.568 248.005 205.56C249.301 204.552 250.813 203.808 252.541 203.328C254.269 202.8 256.141 202.536 258.157 202.536C258.973 202.536 259.837 202.608 260.749 202.752C261.709 202.848 262.621 203.016 263.485 203.256C264.397 203.496 265.237 203.808 266.005 204.192C266.773 204.528 267.445 204.96 268.021 205.488V203.76C268.021 202.272 267.757 201 267.229 199.944C266.701 198.84 266.005 197.952 265.141 197.28C264.277 196.56 263.245 196.032 262.045 195.696C260.893 195.36 259.669 195.192 258.373 195.192C256.069 195.192 253.981 195.648 252.109 196.56C250.237 197.472 248.749 198.672 247.645 200.16L245.773 194.472ZM305.988 173.304H320.316C322.236 173.304 324.132 173.592 326.004 174.168C327.876 174.744 329.556 175.632 331.044 176.832C332.532 178.032 333.708 179.544 334.572 181.368C335.484 183.192 335.94 185.352 335.94 187.848C335.94 191.64 334.932 194.736 332.916 197.136C330.9 199.536 328.236 201.144 324.924 201.96L337.452 225H329.46L317.436 202.824H312.756V225H305.988V173.304ZM312.756 180.576V195.552H321.684C323.796 195.552 325.548 194.88 326.94 193.536C328.38 192.192 329.1 190.416 329.1 188.208C329.1 186.048 328.404 184.248 327.012 182.808C325.668 181.32 323.892 180.576 321.684 180.576H312.756ZM361.698 218.88C362.85 218.88 363.978 218.736 365.082 218.448C366.186 218.16 367.218 217.8 368.178 217.368C369.186 216.936 370.074 216.432 370.842 215.856C371.61 215.28 372.258 214.704 372.786 214.128L374.514 219.24C374.13 220.056 373.53 220.848 372.714 221.616C371.946 222.384 370.986 223.104 369.834 223.776C368.73 224.4 367.458 224.904 366.018 225.288C364.578 225.672 363.018 225.864 361.338 225.864C358.65 225.864 356.154 225.432 353.85 224.568C351.594 223.656 349.626 222.408 347.946 220.824C346.314 219.192 345.018 217.224 344.058 214.92C343.146 212.568 342.69 209.952 342.69 207.072C342.69 204.576 343.098 202.2 343.914 199.944C344.73 197.64 345.906 195.624 347.442 193.896C348.978 192.168 350.826 190.8 352.986 189.792C355.146 188.736 357.594 188.208 360.33 188.208C362.922 188.208 365.25 188.712 367.314 189.72C369.378 190.728 371.13 192.096 372.57 193.824C374.058 195.504 375.186 197.496 375.954 199.8C376.722 202.056 377.106 204.456 377.106 207C377.106 207.768 377.034 208.584 376.89 209.448H349.386C349.722 212.616 350.994 214.992 353.202 216.576C355.41 218.112 358.242 218.88 361.698 218.88ZM370.122 202.824C370.026 201.768 369.714 200.784 369.186 199.872C368.658 198.912 367.938 198.096 367.026 197.424C366.162 196.704 365.154 196.152 364.002 195.768C362.85 195.384 361.626 195.192 360.33 195.192C359.034 195.192 357.762 195.384 356.514 195.768C355.314 196.152 354.234 196.68 353.274 197.352C352.362 198.024 351.594 198.84 350.97 199.8C350.346 200.712 349.962 201.72 349.818 202.824H370.122ZM419.89 189.072V225.576C419.89 227.928 419.482 230.064 418.666 231.984C417.85 233.904 416.698 235.536 415.21 236.88C413.77 238.272 411.994 239.328 409.882 240.048C407.818 240.816 405.514 241.2 402.97 241.2C399.658 241.2 396.634 240.552 393.898 239.256C391.21 238.008 389.146 236.28 387.706 234.072L389.578 228.168C390.97 230.04 392.77 231.504 394.978 232.56C397.234 233.664 399.586 234.216 402.034 234.216C403.282 234.216 404.578 234.072 405.922 233.784C407.266 233.496 408.49 232.968 409.594 232.2C410.698 231.48 411.586 230.424 412.258 229.032C412.978 227.688 413.338 225.936 413.338 223.776V220.392C412.714 221.64 411.442 222.72 409.522 223.632C407.65 224.544 405.346 225 402.61 225C400.114 225 397.738 224.568 395.482 223.704C393.226 222.792 391.258 221.52 389.578 219.888C387.898 218.256 386.554 216.336 385.546 214.128C384.538 211.872 384.034 209.376 384.034 206.64C384.034 203.904 384.514 201.408 385.474 199.152C386.482 196.896 387.826 194.976 389.506 193.392C391.234 191.76 393.202 190.488 395.41 189.576C397.666 188.664 400.042 188.208 402.538 188.208C405.274 188.208 407.626 188.664 409.594 189.576C411.61 190.488 412.93 191.544 413.554 192.744V189.072H419.89ZM413.338 201.024C412.714 199.344 411.394 197.952 409.378 196.848C407.41 195.744 405.178 195.192 402.682 195.192C400.858 195.192 399.202 195.48 397.714 196.056C396.226 196.584 394.954 197.352 393.898 198.36C392.842 199.368 392.026 200.568 391.45 201.96C390.874 203.352 390.586 204.912 390.586 206.64C390.586 208.368 390.874 209.928 391.45 211.32C392.026 212.712 392.842 213.912 393.898 214.92C394.954 215.88 396.226 216.648 397.714 217.224C399.202 217.752 400.858 218.016 402.682 218.016C405.178 218.016 407.41 217.488 409.378 216.432C411.394 215.328 412.714 213.936 413.338 212.256V201.024ZM446.597 225.864C444.677 225.864 442.781 225.552 440.909 224.928C439.085 224.256 437.429 223.272 435.941 221.976C434.501 220.632 433.325 218.928 432.413 216.864C431.501 214.752 431.045 212.256 431.045 209.376V189.072H437.597V209.232C437.597 212.352 438.437 214.752 440.117 216.432C441.845 218.064 444.005 218.88 446.597 218.88C447.749 218.88 448.853 218.712 449.909 218.376C450.965 218.04 451.901 217.584 452.717 217.008C453.581 216.384 454.301 215.664 454.877 214.848C455.501 214.032 455.909 213.144 456.101 212.184V189.072H462.653V225H456.317V221.04C455.789 222.432 454.685 223.584 453.005 224.496C451.373 225.408 449.237 225.864 446.597 225.864ZM474.443 172.584H480.995V225H474.443V172.584ZM514.467 212.256C513.891 211.248 512.739 210.504 511.011 210.024C509.283 209.496 507.435 209.232 505.467 209.232C502.731 209.232 500.595 209.664 499.059 210.528C497.571 211.344 496.827 212.52 496.827 214.056C496.827 215.496 497.547 216.672 498.987 217.584C500.475 218.448 502.635 218.88 505.467 218.88C506.427 218.88 507.363 218.784 508.275 218.592C509.235 218.4 510.123 218.136 510.939 217.8C511.755 217.464 512.475 217.056 513.099 216.576C513.723 216.096 514.179 215.568 514.467 214.992V212.256ZM492.219 194.472C493.563 192.6 495.411 191.088 497.763 189.936C500.115 188.784 502.731 188.208 505.611 188.208C510.411 188.208 514.179 189.456 516.915 191.952C519.651 194.4 521.019 197.856 521.019 202.32V225H514.683V221.832C514.251 222.456 513.651 223.008 512.883 223.488C512.115 223.968 511.251 224.4 510.291 224.784C509.379 225.12 508.419 225.384 507.411 225.576C506.403 225.768 505.395 225.864 504.387 225.864C500.115 225.864 496.683 224.856 494.091 222.84C491.547 220.776 490.275 217.896 490.275 214.2C490.275 212.328 490.635 210.672 491.355 209.232C492.123 207.792 493.155 206.568 494.451 205.56C495.747 204.552 497.259 203.808 498.987 203.328C500.715 202.8 502.587 202.536 504.603 202.536C505.419 202.536 506.283 202.608 507.195 202.752C508.155 202.848 509.067 203.016 509.931 203.256C510.843 203.496 511.683 203.808 512.451 204.192C513.219 204.528 513.891 204.96 514.467 205.488V203.76C514.467 202.272 514.203 201 513.675 199.944C513.147 198.84 512.451 197.952 511.587 197.28C510.723 196.56 509.691 196.032 508.491 195.696C507.339 195.36 506.115 195.192 504.819 195.192C502.515 195.192 500.427 195.648 498.555 196.56C496.683 197.472 495.195 198.672 494.091 200.16L492.219 194.472ZM551.963 196.92C551.387 196.392 550.691 195.984 549.875 195.696C549.059 195.36 548.123 195.192 547.067 195.192C545.867 195.192 544.811 195.408 543.899 195.84C542.987 196.224 542.195 196.752 541.523 197.424C540.851 198.096 540.299 198.84 539.867 199.656C539.483 200.472 539.195 201.312 539.003 202.176V225H532.451V189.072H538.787V193.752C539.363 192.216 540.299 190.92 541.595 189.864C542.939 188.76 544.739 188.208 546.995 188.208C548.339 188.208 549.539 188.472 550.595 189C551.699 189.528 552.491 190.224 552.971 191.088L551.963 196.92Z" fill="black"/>
<path d="M31.512 330.368C33.816 330.368 35.976 330.632 37.992 331.16C40.008 331.688 41.832 332.384 43.464 333.248C45.144 334.112 46.584 335.12 47.784 336.272C49.032 337.424 50.016 338.624 50.736 339.872L48.216 347.144C47.448 346.088 46.512 345.08 45.408 344.12C44.304 343.16 43.056 342.32 41.664 341.6C40.32 340.832 38.832 340.232 37.2 339.8C35.568 339.368 33.84 339.152 32.016 339.152C29.328 339.152 26.856 339.584 24.6 340.448C22.392 341.264 20.496 342.464 18.912 344.048C17.328 345.632 16.104 347.528 15.24 349.736C14.376 351.944 13.944 354.416 13.944 357.152C13.944 359.984 14.376 362.528 15.24 364.784C16.152 366.992 17.424 368.864 19.056 370.4C20.688 371.936 22.632 373.112 24.888 373.928C27.144 374.744 29.64 375.152 32.376 375.152C34.824 375.152 37.032 374.792 39 374.072C40.968 373.304 42.72 372.248 44.256 370.904V364.28H32.016V355.712H52.248V373.496C51.384 374.936 50.256 376.304 48.864 377.6C47.52 378.848 45.96 379.952 44.184 380.912C42.408 381.824 40.464 382.544 38.352 383.072C36.24 383.648 33.984 383.936 31.584 383.936C28.128 383.936 24.84 383.312 21.72 382.064C18.6 380.768 15.84 378.944 13.44 376.592C11.088 374.24 9.192 371.432 7.752 368.168C6.36 364.856 5.664 361.208 5.664 357.224C5.664 353.192 6.36 349.544 7.752 346.28C9.192 342.968 11.088 340.136 13.44 337.784C15.84 335.432 18.6 333.608 21.72 332.312C24.84 331.016 28.104 330.368 31.512 330.368ZM79.1192 375.872C81.4232 375.872 83.6072 375.416 85.6712 374.504C87.7832 373.544 89.3432 372.416 90.3512 371.12L92.6552 377.24C92.1752 378.104 91.5032 378.944 90.6392 379.76C89.7752 380.576 88.7432 381.296 87.5432 381.92C86.3432 382.544 84.9992 383.024 83.5112 383.36C82.0712 383.744 80.5112 383.936 78.8312 383.936C76.0952 383.936 73.5512 383.504 71.1992 382.64C68.8472 381.728 66.8072 380.456 65.0792 378.824C63.3512 377.144 62.0072 375.128 61.0472 372.776C60.0872 370.376 59.6072 367.712 59.6072 364.784C59.6072 362.192 60.0152 359.744 60.8312 357.44C61.6952 355.136 62.9192 353.096 64.5032 351.32C66.0872 349.544 68.0072 348.152 70.2632 347.144C72.5192 346.088 75.0632 345.56 77.8952 345.56C80.5352 345.56 82.9352 346.088 85.0952 347.144C87.2552 348.152 89.0792 349.544 90.5672 351.32C92.1032 353.048 93.2792 355.088 94.0952 357.44C94.9112 359.744 95.3192 362.168 95.3192 364.712C95.3192 365.768 95.2472 366.728 95.1032 367.592H67.5992C67.9832 370.424 69.2072 372.512 71.2712 373.856C73.3352 375.2 75.9512 375.872 79.1192 375.872ZM87.1112 360.536C86.8712 358.472 85.8632 356.816 84.0872 355.568C82.3592 354.32 80.2952 353.696 77.8952 353.696C76.6472 353.696 75.4712 353.864 74.3672 354.2C73.2632 354.536 72.2552 355.016 71.3432 355.64C70.4792 356.216 69.7352 356.936 69.1112 357.8C68.5352 358.616 68.1512 359.528 67.9592 360.536H87.1112ZM124.907 355.568C124.331 355.136 123.611 354.752 122.747 354.416C121.931 354.08 120.995 353.912 119.939 353.912C118.787 353.912 117.755 354.104 116.843 354.488C115.931 354.872 115.139 355.376 114.467 356C113.843 356.624 113.315 357.344 112.883 358.16C112.499 358.928 112.235 359.696 112.091 360.464V383H104.243V346.496H111.803V351.32C112.379 349.544 113.363 348.152 114.755 347.144C116.147 346.088 117.923 345.56 120.083 345.56C121.475 345.56 122.699 345.848 123.755 346.424C124.811 346.952 125.579 347.624 126.059 348.44L124.907 355.568ZM169.206 357.008C170.214 359.36 170.718 361.952 170.718 364.784C170.718 367.616 170.214 370.208 169.206 372.56C168.198 374.912 166.83 376.928 165.102 378.608C163.374 380.288 161.382 381.608 159.126 382.568C156.87 383.48 154.494 383.936 151.998 383.936C149.262 383.936 146.886 383.48 144.87 382.568C142.902 381.656 141.606 380.528 140.982 379.184V383H133.422V330.584H141.27V350.384C141.846 348.992 143.118 347.84 145.086 346.928C147.054 346.016 149.406 345.56 152.142 345.56C154.59 345.56 156.918 346.04 159.126 347C161.382 347.912 163.374 349.232 165.102 350.96C166.83 352.64 168.198 354.656 169.206 357.008ZM162.798 364.856C162.798 361.544 161.742 358.904 159.63 356.936C157.566 354.92 154.83 353.912 151.422 353.912C149.022 353.912 146.862 354.44 144.942 355.496C143.07 356.504 141.846 357.8 141.27 359.384V370.184C141.558 370.952 142.014 371.672 142.638 372.344C143.31 373.016 144.078 373.592 144.942 374.072C145.854 374.552 146.862 374.936 147.966 375.224C149.07 375.464 150.222 375.584 151.422 375.584C154.83 375.584 157.566 374.624 159.63 372.704C161.742 370.736 162.798 368.12 162.798 364.856ZM196.682 375.872C198.986 375.872 201.17 375.416 203.234 374.504C205.346 373.544 206.906 372.416 207.914 371.12L210.218 377.24C209.738 378.104 209.066 378.944 208.202 379.76C207.338 380.576 206.306 381.296 205.106 381.92C203.906 382.544 202.562 383.024 201.074 383.36C199.634 383.744 198.074 383.936 196.394 383.936C193.658 383.936 191.114 383.504 188.762 382.64C186.41 381.728 184.37 380.456 182.642 378.824C180.914 377.144 179.57 375.128 178.61 372.776C177.65 370.376 177.17 367.712 177.17 364.784C177.17 362.192 177.578 359.744 178.394 357.44C179.258 355.136 180.482 353.096 182.066 351.32C183.65 349.544 185.57 348.152 187.826 347.144C190.082 346.088 192.626 345.56 195.458 345.56C198.098 345.56 200.498 346.088 202.658 347.144C204.818 348.152 206.642 349.544 208.13 351.32C209.666 353.048 210.842 355.088 211.658 357.44C212.474 359.744 212.882 362.168 212.882 364.712C212.882 365.768 212.81 366.728 212.666 367.592H185.162C185.546 370.424 186.77 372.512 188.834 373.856C190.898 375.2 193.514 375.872 196.682 375.872ZM204.674 360.536C204.434 358.472 203.426 356.816 201.65 355.568C199.922 354.32 197.858 353.696 195.458 353.696C194.21 353.696 193.034 353.864 191.93 354.2C190.826 354.536 189.818 355.016 188.906 355.64C188.042 356.216 187.298 356.936 186.674 357.8C186.098 358.616 185.714 359.528 185.522 360.536H204.674ZM242.469 355.568C241.893 355.136 241.173 354.752 240.309 354.416C239.493 354.08 238.557 353.912 237.501 353.912C236.349 353.912 235.317 354.104 234.405 354.488C233.493 354.872 232.701 355.376 232.029 356C231.405 356.624 230.877 357.344 230.445 358.16C230.061 358.928 229.797 359.696 229.653 360.464V383H221.805V346.496H229.365V351.32C229.941 349.544 230.925 348.152 232.317 347.144C233.709 346.088 235.485 345.56 237.645 345.56C239.037 345.56 240.261 345.848 241.317 346.424C242.373 346.952 243.141 347.624 243.621 348.44L242.469 355.568ZM272.297 369.968C271.817 369.104 270.809 368.432 269.273 367.952C267.785 367.472 266.129 367.232 264.305 367.232C261.761 367.232 259.793 367.64 258.401 368.456C257.057 369.224 256.385 370.304 256.385 371.696C256.385 373.04 257.057 374.12 258.401 374.936C259.793 375.752 261.761 376.16 264.305 376.16C266.081 376.16 267.713 375.824 269.201 375.152C270.737 374.48 271.769 373.64 272.297 372.632V369.968ZM250.337 352.04C251.681 350.024 253.601 348.44 256.097 347.288C258.641 346.136 261.353 345.56 264.233 345.56C269.033 345.56 272.873 346.808 275.753 349.304C278.681 351.752 280.145 355.28 280.145 359.888V383H272.585V379.832C272.153 380.456 271.553 381.032 270.785 381.56C270.017 382.04 269.153 382.472 268.193 382.856C267.281 383.192 266.321 383.456 265.313 383.648C264.305 383.84 263.297 383.936 262.289 383.936C260.273 383.936 258.401 383.648 256.673 383.072C254.993 382.544 253.529 381.776 252.281 380.768C251.081 379.712 250.145 378.464 249.473 377.024C248.801 375.536 248.465 373.856 248.465 371.984C248.465 370.064 248.849 368.384 249.617 366.944C250.385 365.456 251.417 364.208 252.713 363.2C254.057 362.192 255.593 361.448 257.321 360.968C259.097 360.44 260.969 360.176 262.937 360.176C264.953 360.176 266.801 360.416 268.481 360.896C270.209 361.376 271.481 362.024 272.297 362.84V361.328C272.297 359.984 272.033 358.832 271.505 357.872C271.025 356.912 270.377 356.144 269.561 355.568C268.745 354.944 267.785 354.512 266.681 354.272C265.577 353.984 264.425 353.84 263.225 353.84C260.969 353.84 258.857 354.272 256.889 355.136C254.969 355.952 253.457 357.104 252.353 358.592L250.337 352.04ZM352.477 331.304H360.973L367.885 383H359.749L354.853 346.64L341.749 383H334.045L320.797 346.64L316.045 383H307.549L314.461 331.304H322.957L337.645 370.616L352.477 331.304ZM394.752 375.872C397.056 375.872 399.24 375.416 401.304 374.504C403.416 373.544 404.976 372.416 405.984 371.12L408.288 377.24C407.808 378.104 407.136 378.944 406.272 379.76C405.408 380.576 404.376 381.296 403.176 381.92C401.976 382.544 400.632 383.024 399.144 383.36C397.704 383.744 396.144 383.936 394.464 383.936C391.728 383.936 389.184 383.504 386.832 382.64C384.48 381.728 382.44 380.456 380.712 378.824C378.984 377.144 377.64 375.128 376.68 372.776C375.72 370.376 375.24 367.712 375.24 364.784C375.24 362.192 375.648 359.744 376.464 357.44C377.328 355.136 378.552 353.096 380.136 351.32C381.72 349.544 383.64 348.152 385.896 347.144C388.152 346.088 390.696 345.56 393.528 345.56C396.168 345.56 398.568 346.088 400.728 347.144C402.888 348.152 404.712 349.544 406.2 351.32C407.736 353.048 408.912 355.088 409.728 357.44C410.544 359.744 410.952 362.168 410.952 364.712C410.952 365.768 410.88 366.728 410.736 367.592H383.232C383.616 370.424 384.84 372.512 386.904 373.856C388.968 375.2 391.584 375.872 394.752 375.872ZM402.744 360.536C402.504 358.472 401.496 356.816 399.72 355.568C397.992 354.32 395.928 353.696 393.528 353.696C392.28 353.696 391.104 353.864 390 354.2C388.896 354.536 387.888 355.016 386.976 355.64C386.112 356.216 385.368 356.936 384.744 357.8C384.168 358.616 383.784 359.528 383.592 360.536H402.744ZM418.939 372.56C417.932 370.208 417.428 367.616 417.428 364.784C417.428 361.952 417.932 359.36 418.939 357.008C419.948 354.656 421.292 352.64 422.972 350.96C424.7 349.232 426.692 347.912 428.948 347C431.204 346.04 433.556 345.56 436.004 345.56C438.74 345.56 441.068 346.016 442.988 346.928C444.956 347.84 446.252 348.992 446.876 350.384V330.584H454.724V383H447.164V379.184C446.588 380.528 445.292 381.656 443.276 382.568C441.26 383.48 438.884 383.936 436.148 383.936C433.652 383.936 431.276 383.48 429.02 382.568C426.764 381.608 424.772 380.288 423.044 378.608C421.316 376.928 419.948 374.912 418.939 372.56ZM425.276 364.856C425.276 368.12 426.308 370.736 428.372 372.704C430.484 374.624 433.268 375.584 436.724 375.584C439.124 375.584 441.26 375.08 443.132 374.072C445.004 373.016 446.252 371.72 446.876 370.184V359.384C446.252 357.8 445.004 356.504 443.132 355.496C441.26 354.44 439.124 353.912 436.724 353.912C433.268 353.912 430.484 354.92 428.372 356.936C426.308 358.904 425.276 361.544 425.276 364.856ZM466.071 346.496H473.919V383H466.071V346.496ZM466.143 338.864C465.087 337.808 464.559 336.512 464.559 334.976C464.559 333.44 465.087 332.144 466.143 331.088C467.199 330.032 468.471 329.504 469.959 329.504C471.495 329.504 472.791 330.032 473.847 331.088C474.903 332.144 475.431 333.44 475.431 334.976C475.431 336.512 474.903 337.808 473.847 338.864C472.791 339.92 471.495 340.448 469.959 340.448C468.471 340.448 467.199 339.92 466.143 338.864ZM500.242 383.936C498.322 383.936 496.426 383.624 494.554 383C492.682 382.328 491.002 381.32 489.514 379.976C488.074 378.632 486.898 376.928 485.986 374.864C485.074 372.752 484.618 370.256 484.618 367.376V346.496H492.466V366.512C492.466 369.44 493.258 371.696 494.842 373.28C496.474 374.816 498.49 375.584 500.89 375.584C503.05 375.584 504.97 375.008 506.65 373.856C508.378 372.704 509.434 371.216 509.818 369.392V346.496H517.666V383H510.106V379.112C509.578 380.504 508.474 381.656 506.794 382.568C505.114 383.48 502.93 383.936 500.242 383.936ZM546.495 345.56C548.655 345.56 550.743 346.016 552.759 346.928C554.775 347.792 556.527 349.232 558.015 351.248C560.703 347.456 564.831 345.56 570.399 345.56C572.175 345.56 573.951 345.872 575.727 346.496C577.503 347.12 579.087 348.08 580.479 349.376C581.919 350.624 583.071 352.232 583.935 354.2C584.847 356.12 585.303 358.424 585.303 361.112V383H577.455V362.264C577.455 359.576 576.687 357.512 575.151 356.072C573.615 354.632 571.743 353.912 569.535 353.912C567.519 353.912 565.695 354.488 564.063 355.64C562.431 356.744 561.447 358.184 561.111 359.96V383H553.263V362.264C553.263 359.576 552.495 357.512 550.959 356.072C549.423 354.632 547.527 353.912 545.271 353.912C544.263 353.912 543.279 354.08 542.319 354.416C541.407 354.704 540.567 355.112 539.799 355.64C539.079 356.168 538.455 356.816 537.927 357.584C537.399 358.304 537.063 359.096 536.919 359.96V383H529.071V346.496H536.631V350.384C537.159 348.992 538.287 347.84 540.015 346.928C541.743 346.016 543.903 345.56 546.495 345.56Z" fill="black"/>
<path d="M31.872 488.296C34.176 488.296 36.336 488.56 38.352 489.088C40.368 489.568 42.192 490.24 43.824 491.104C45.504 491.92 46.944 492.88 48.144 493.984C49.392 495.088 50.376 496.264 51.096 497.512L48.144 505.864C47.424 504.952 46.536 504.064 45.48 503.2C44.472 502.288 43.296 501.496 41.952 500.824C40.608 500.104 39.144 499.552 37.56 499.168C36.024 498.736 34.368 498.52 32.592 498.52C30 498.52 27.624 498.928 25.464 499.744C23.304 500.512 21.456 501.616 19.92 503.056C18.432 504.496 17.256 506.248 16.392 508.312C15.576 510.376 15.168 512.656 15.168 515.152C15.168 517.744 15.6 520.072 16.464 522.136C17.328 524.2 18.528 525.952 20.064 527.392C21.648 528.832 23.52 529.936 25.68 530.704C27.888 531.424 30.312 531.784 32.952 531.784C35.208 531.784 37.224 531.472 39 530.848C40.824 530.176 42.408 529.264 43.752 528.112V522.856H32.592V512.992H52.968V531.208C52.056 532.648 50.952 534.016 49.656 535.312C48.36 536.608 46.824 537.76 45.048 538.768C43.32 539.776 41.352 540.568 39.144 541.144C36.984 541.72 34.584 542.008 31.944 542.008C28.488 542.008 25.152 541.36 21.936 540.064C18.768 538.768 15.96 536.944 13.512 534.592C11.064 532.24 9.12 529.432 7.68 526.168C6.24 522.856 5.52 519.208 5.52 515.224C5.52 511.24 6.24 507.592 7.68 504.28C9.12 500.968 11.064 498.136 13.512 495.784C15.96 493.384 18.768 491.536 21.936 490.24C25.104 488.944 28.416 488.296 31.872 488.296ZM80.1137 532.792C82.4177 532.792 84.6257 532.384 86.7377 531.568C88.8497 530.704 90.4337 529.576 91.4897 528.184L94.2977 535.24C93.1457 537.16 91.2977 538.768 88.7537 540.064C86.2577 541.36 83.2817 542.008 79.8257 542.008C76.9937 542.008 74.3537 541.552 71.9057 540.64C69.5057 539.728 67.4177 538.432 65.6417 536.752C63.8657 535.072 62.4737 533.032 61.4657 530.632C60.4577 528.232 59.9537 525.52 59.9537 522.496C59.9537 519.856 60.3857 517.36 61.2497 515.008C62.1617 512.656 63.4337 510.592 65.0657 508.816C66.7457 506.992 68.7377 505.552 71.0417 504.496C73.3937 503.44 76.0337 502.912 78.9617 502.912C81.6977 502.912 84.1697 503.464 86.3777 504.568C88.6337 505.624 90.5297 507.064 92.0657 508.888C93.6497 510.664 94.8737 512.728 95.7377 515.08C96.6017 517.432 97.0337 519.904 97.0337 522.496C97.0337 523.024 97.0097 523.6 96.9617 524.224C96.9617 524.8 96.9137 525.304 96.8177 525.736H69.3137C69.7457 528.184 70.9457 529.984 72.9137 531.136C74.8817 532.24 77.2817 532.792 80.1137 532.792ZM87.6737 518.248C87.3857 516.28 86.4257 514.792 84.7937 513.784C83.1617 512.728 81.2177 512.2 78.9617 512.2C76.7057 512.2 74.6897 512.728 72.9137 513.784C71.1377 514.792 70.0577 516.28 69.6737 518.248H87.6737ZM127.247 514.144C126.719 513.76 126.023 513.424 125.159 513.136C124.343 512.8 123.407 512.632 122.351 512.632C120.191 512.632 118.463 513.232 117.167 514.432C115.871 515.584 115.031 517 114.647 518.68V541H105.503V503.92H114.359V508.816C114.887 507.088 115.847 505.672 117.239 504.568C118.679 503.464 120.455 502.912 122.567 502.912C123.959 502.912 125.183 503.2 126.239 503.776C127.295 504.304 128.063 504.952 128.543 505.72L127.247 514.144ZM172.608 514.576C173.664 516.976 174.192 519.616 174.192 522.496C174.192 525.376 173.664 528.016 172.608 530.416C171.6 532.816 170.232 534.88 168.504 536.608C166.776 538.336 164.76 539.68 162.456 540.64C160.2 541.552 157.824 542.008 155.328 542.008C152.592 542.008 150.216 541.552 148.2 540.64C146.232 539.68 144.936 538.504 144.312 537.112V541H135.456V488.584H144.6V507.808C145.224 506.416 146.496 505.264 148.416 504.352C150.384 503.392 152.736 502.912 155.472 502.912C157.92 502.912 160.272 503.392 162.528 504.352C164.784 505.312 166.776 506.656 168.504 508.384C170.232 510.112 171.6 512.176 172.608 514.576ZM164.184 526.456C164.712 525.256 164.976 523.936 164.976 522.496C164.976 521.056 164.712 519.736 164.184 518.536C163.656 517.288 162.912 516.232 161.952 515.368C161.04 514.504 159.912 513.832 158.568 513.352C157.272 512.872 155.832 512.632 154.248 512.632C151.944 512.632 149.904 513.112 148.128 514.072C146.352 514.984 145.176 516.136 144.6 517.528V527.392C145.176 528.784 146.352 529.96 148.128 530.92C149.904 531.832 151.944 532.288 154.248 532.288C155.832 532.288 157.272 532.048 158.568 531.568C159.912 531.088 161.04 530.416 161.952 529.552C162.912 528.688 163.656 527.656 164.184 526.456ZM200.418 532.792C202.722 532.792 204.93 532.384 207.042 531.568C209.154 530.704 210.738 529.576 211.794 528.184L214.602 535.24C213.45 537.16 211.602 538.768 209.058 540.064C206.562 541.36 203.586 542.008 200.13 542.008C197.298 542.008 194.658 541.552 192.21 540.64C189.81 539.728 187.722 538.432 185.946 536.752C184.17 535.072 182.778 533.032 181.77 530.632C180.762 528.232 180.258 525.52 180.258 522.496C180.258 519.856 180.69 517.36 181.554 515.008C182.466 512.656 183.738 510.592 185.37 508.816C187.05 506.992 189.042 505.552 191.346 504.496C193.698 503.44 196.338 502.912 199.266 502.912C202.002 502.912 204.474 503.464 206.682 504.568C208.938 505.624 210.834 507.064 212.37 508.888C213.954 510.664 215.178 512.728 216.042 515.08C216.906 517.432 217.338 519.904 217.338 522.496C217.338 523.024 217.314 523.6 217.266 524.224C217.266 524.8 217.218 525.304 217.122 525.736H189.618C190.05 528.184 191.25 529.984 193.218 531.136C195.186 532.24 197.586 532.792 200.418 532.792ZM207.978 518.248C207.69 516.28 206.73 514.792 205.098 513.784C203.466 512.728 201.522 512.2 199.266 512.2C197.01 512.2 194.994 512.728 193.218 513.784C191.442 514.792 190.362 516.28 189.978 518.248H207.978ZM247.552 514.144C247.024 513.76 246.328 513.424 245.464 513.136C244.648 512.8 243.712 512.632 242.656 512.632C240.496 512.632 238.768 513.232 237.472 514.432C236.176 515.584 235.336 517 234.952 518.68V541H225.808V503.92H234.664V508.816C235.192 507.088 236.152 505.672 237.544 504.568C238.984 503.464 240.76 502.912 242.872 502.912C244.264 502.912 245.488 503.2 246.544 503.776C247.6 504.304 248.368 504.952 248.848 505.72L247.552 514.144ZM276.713 527.68C276.329 527.008 275.489 526.432 274.193 525.952C272.897 525.424 271.409 525.16 269.729 525.16C267.329 525.16 265.529 525.544 264.329 526.312C263.129 527.08 262.529 528.088 262.529 529.336C262.529 530.584 263.129 531.592 264.329 532.36C265.577 533.08 267.353 533.44 269.657 533.44C271.337 533.44 272.825 533.152 274.121 532.576C275.417 531.952 276.281 531.208 276.713 530.344V527.68ZM255.257 509.464C255.929 508.408 256.769 507.472 257.777 506.656C258.833 505.84 259.985 505.168 261.233 504.64C262.481 504.064 263.801 503.632 265.193 503.344C266.633 503.056 268.073 502.912 269.513 502.912C271.961 502.912 274.169 503.248 276.137 503.92C278.153 504.592 279.881 505.552 281.321 506.8C282.761 508.048 283.865 509.608 284.633 511.48C285.449 513.304 285.857 515.392 285.857 517.744V541H277.001V537.76C276.089 539.152 274.673 540.208 272.753 540.928C270.833 541.648 268.865 542.008 266.849 542.008C264.881 542.008 263.081 541.72 261.449 541.144C259.817 540.568 258.377 539.776 257.129 538.768C255.929 537.712 254.993 536.44 254.321 534.952C253.649 533.416 253.313 531.712 253.313 529.84C253.313 527.872 253.697 526.144 254.465 524.656C255.281 523.12 256.361 521.848 257.705 520.84C259.049 519.784 260.585 518.992 262.313 518.464C264.089 517.936 265.913 517.672 267.785 517.672C270.185 517.672 272.129 517.96 273.617 518.536C275.153 519.064 276.185 519.64 276.713 520.264V519.256C276.713 517.096 275.993 515.368 274.553 514.072C273.161 512.776 271.097 512.128 268.361 512.128C266.009 512.128 263.873 512.584 261.953 513.496C260.081 514.408 258.593 515.56 257.489 516.952L255.257 509.464ZM329.701 489.304C332.053 489.304 334.261 489.616 336.325 490.24C338.389 490.816 340.165 491.704 341.653 492.904C343.189 494.104 344.389 495.592 345.253 497.368C346.117 499.096 346.549 501.136 346.549 503.488C346.549 505.792 346.141 507.736 345.325 509.32C344.557 510.856 343.477 512.224 342.085 513.424C344.245 514.528 345.973 516.088 347.269 518.104C348.565 520.12 349.213 522.712 349.213 525.88C349.213 528.232 348.757 530.344 347.845 532.216C346.933 534.088 345.685 535.672 344.101 536.968C342.517 538.264 340.669 539.272 338.557 539.992C336.493 540.664 334.309 541 332.005 541H316.597V489.304H329.701ZM326.029 498.952V510.472H331.357C332.941 510.472 334.285 509.944 335.389 508.888C336.541 507.784 337.117 506.392 337.117 504.712C337.117 503.176 336.565 501.832 335.461 500.68C334.357 499.528 332.965 498.952 331.285 498.952H326.029ZM326.029 519.544V531.352H333.877C335.509 531.352 336.901 530.8 338.053 529.696C339.205 528.544 339.781 527.128 339.781 525.448C339.781 524.68 339.637 523.936 339.349 523.216C339.061 522.496 338.629 521.872 338.053 521.344C337.525 520.816 336.901 520.384 336.181 520.048C335.461 519.712 334.669 519.544 333.805 519.544H326.029ZM395.7 522.496C395.7 525.328 395.172 527.944 394.116 530.344C393.06 532.696 391.62 534.736 389.796 536.464C388.02 538.192 385.956 539.56 383.604 540.568C381.252 541.528 378.756 542.008 376.116 542.008C373.476 542.008 370.98 541.528 368.628 540.568C366.276 539.56 364.188 538.192 362.364 536.464C360.588 534.736 359.172 532.696 358.116 530.344C357.06 527.944 356.532 525.328 356.532 522.496C356.532 519.712 357.06 517.12 358.116 514.72C359.172 512.32 360.588 510.256 362.364 508.528C364.188 506.752 366.276 505.384 368.628 504.424C370.98 503.416 373.476 502.912 376.116 502.912C378.756 502.912 381.252 503.416 383.604 504.424C385.956 505.384 388.02 506.752 389.796 508.528C391.62 510.256 393.06 512.32 394.116 514.72C395.172 517.12 395.7 519.712 395.7 522.496ZM366.54 518.536C366.012 519.736 365.748 521.056 365.748 522.496C365.748 523.936 366.012 525.256 366.54 526.456C367.068 527.656 367.788 528.688 368.7 529.552C369.66 530.416 370.764 531.088 372.012 531.568C373.308 532.048 374.676 532.288 376.116 532.288C377.556 532.288 378.9 532.048 380.148 531.568C381.396 531.088 382.476 530.416 383.388 529.552C384.348 528.688 385.092 527.656 385.62 526.456C386.196 525.256 386.484 523.936 386.484 522.496C386.484 521.056 386.196 519.736 385.62 518.536C385.092 517.288 384.348 516.232 383.388 515.368C382.476 514.504 381.396 513.832 380.148 513.352C378.9 512.872 377.556 512.632 376.116 512.632C374.676 512.632 373.308 512.872 372.012 513.352C370.764 513.832 369.66 514.504 368.7 515.368C367.788 516.232 367.068 517.288 366.54 518.536ZM404.191 488.584H413.335V541H404.191V488.584ZM423.364 530.416C422.356 528.016 421.852 525.376 421.852 522.496C421.852 519.616 422.356 516.976 423.364 514.576C424.42 512.176 425.812 510.112 427.54 508.384C429.268 506.656 431.26 505.312 433.516 504.352C435.772 503.392 438.124 502.912 440.572 502.912C443.308 502.912 445.636 503.392 447.556 504.352C449.524 505.264 450.82 506.416 451.444 507.808V488.584H460.588V541H451.732V537.112C451.108 538.504 449.788 539.68 447.772 540.64C445.804 541.552 443.452 542.008 440.716 542.008C438.22 542.008 435.82 541.552 433.516 540.64C431.26 539.68 429.268 538.336 427.54 536.608C425.812 534.88 424.42 532.816 423.364 530.416ZM431.86 518.536C431.332 519.736 431.068 521.056 431.068 522.496C431.068 523.936 431.332 525.256 431.86 526.456C432.388 527.656 433.108 528.688 434.02 529.552C434.98 530.416 436.108 531.088 437.404 531.568C438.748 532.048 440.212 532.288 441.796 532.288C444.1 532.288 446.14 531.832 447.916 530.92C449.692 529.96 450.868 528.784 451.444 527.392V517.528C450.868 516.136 449.692 514.984 447.916 514.072C446.14 513.112 444.1 512.632 441.796 512.632C440.212 512.632 438.748 512.872 437.404 513.352C436.108 513.832 434.98 514.504 434.02 515.368C433.108 516.232 432.388 517.288 431.86 518.536Z" fill="black"/>
<path d="M30.24 659.032C27.744 659.032 25.464 659.392 23.4 660.112C21.336 660.832 19.56 661.864 18.072 663.208C16.632 664.504 15.504 666.088 14.688 667.96C13.92 669.832 13.536 671.92 13.536 674.224C13.536 676.576 13.944 678.688 14.76 680.56C15.576 682.432 16.728 684.016 18.216 685.312C19.704 686.608 21.504 687.592 23.616 688.264C25.728 688.936 28.056 689.272 30.6 689.272C32.664 689.272 34.488 689.008 36.072 688.48C37.656 687.904 39.024 687.136 40.176 686.176V682.504H30.24V671.2H50.76V689.848C49.848 691.288 48.768 692.704 47.52 694.096C46.272 695.44 44.784 696.64 43.056 697.696C41.328 698.704 39.336 699.52 37.08 700.144C34.824 700.768 32.232 701.08 29.304 701.08C25.8 701.08 22.416 700.432 19.152 699.136C15.936 697.792 13.08 695.944 10.584 693.592C8.088 691.24 6.072 688.432 4.536 685.168C3.048 681.856 2.304 678.208 2.304 674.224C2.304 670.24 3.048 666.592 4.536 663.28C6.072 659.968 8.088 657.136 10.584 654.784C13.08 652.384 15.936 650.536 19.152 649.24C22.416 647.896 25.8 647.224 29.304 647.224C31.56 647.224 33.696 647.464 35.712 647.944C37.728 648.376 39.552 649 41.184 649.816C42.816 650.632 44.256 651.592 45.504 652.696C46.752 653.752 47.736 654.88 48.456 656.08L45.072 665.728C44.4 664.912 43.56 664.096 42.552 663.28C41.592 662.464 40.464 661.744 39.168 661.12C37.92 660.496 36.528 659.992 34.992 659.608C33.504 659.224 31.92 659.032 30.24 659.032ZM95.8202 681.208C95.8202 681.832 95.7962 682.504 95.7482 683.224C95.7482 683.944 95.7002 684.52 95.6042 684.952H68.1722C68.7002 686.968 69.8522 688.456 71.6282 689.416C73.4522 690.328 75.6122 690.784 78.1082 690.784C80.4122 690.784 82.6202 690.4 84.7322 689.632C86.8922 688.816 88.5242 687.64 89.6282 686.104L93.0122 694.24C91.6202 696.352 89.6042 698.032 86.9642 699.28C84.3242 700.48 81.2762 701.08 77.8202 701.08C74.9402 701.08 72.2282 700.624 69.6842 699.712C67.1882 698.8 65.0282 697.48 63.2042 695.752C61.3802 694.024 59.9402 691.936 58.8842 689.488C57.8282 687.04 57.3002 684.28 57.3002 681.208C57.3002 678.52 57.7562 675.976 58.6682 673.576C59.5802 671.128 60.9002 668.992 62.6282 667.168C64.3562 665.344 66.4202 663.904 68.8202 662.848C71.2682 661.744 74.0042 661.192 77.0282 661.192C79.8602 661.192 82.4282 661.744 84.7322 662.848C87.0362 663.952 89.0042 665.44 90.6362 667.312C92.3162 669.136 93.5882 671.248 94.4522 673.648C95.3642 676.048 95.8202 678.568 95.8202 681.208ZM85.1642 677.032C84.7802 675.208 83.8202 673.84 82.2842 672.928C80.7962 672.016 79.0442 671.56 77.0282 671.56C74.9642 671.56 73.1162 672.016 71.4842 672.928C69.9002 673.84 68.8682 675.208 68.3882 677.032H85.1642ZM126.944 673.936C126.416 673.552 125.72 673.216 124.856 672.928C124.04 672.592 123.104 672.424 122.048 672.424C120.176 672.424 118.568 672.904 117.224 673.864C115.88 674.776 114.968 676.168 114.488 678.04V700H103.904V662.272H114.128V667.24C114.704 665.416 115.712 663.952 117.152 662.848C118.592 661.744 120.344 661.192 122.408 661.192C123.8 661.192 125.048 661.504 126.152 662.128C127.256 662.704 128.024 663.376 128.456 664.144L126.944 673.936ZM145.285 666.16C145.957 664.768 147.253 663.592 149.173 662.632C151.093 661.672 153.421 661.192 156.157 661.192C158.653 661.192 161.029 661.672 163.285 662.632C165.589 663.592 167.605 664.96 169.333 666.736C171.061 668.464 172.429 670.552 173.437 673C174.493 675.448 175.021 678.16 175.021 681.136C175.021 684.112 174.493 686.824 173.437 689.272C172.429 691.72 171.061 693.832 169.333 695.608C167.605 697.336 165.589 698.68 163.285 699.64C161.029 700.6 158.653 701.08 156.157 701.08C153.181 701.08 150.733 700.6 148.813 699.64C146.893 698.68 145.597 697.504 144.925 696.112V700H134.701V647.584H145.285V666.16ZM145.285 685.528C145.813 686.776 146.917 687.808 148.597 688.624C150.277 689.44 152.197 689.848 154.357 689.848C157.285 689.848 159.661 689.032 161.485 687.4C163.357 685.768 164.293 683.68 164.293 681.136C164.293 678.592 163.357 676.504 161.485 674.872C159.661 673.24 157.285 672.424 154.357 672.424C152.197 672.424 150.277 672.832 148.597 673.648C146.917 674.464 145.813 675.496 145.285 676.744V685.528ZM219.078 681.208C219.078 681.832 219.054 682.504 219.006 683.224C219.006 683.944 218.958 684.52 218.862 684.952H191.43C191.958 686.968 193.11 688.456 194.886 689.416C196.71 690.328 198.87 690.784 201.366 690.784C203.67 690.784 205.878 690.4 207.99 689.632C210.15 688.816 211.782 687.64 212.886 686.104L216.27 694.24C214.878 696.352 212.862 698.032 210.222 699.28C207.582 700.48 204.534 701.08 201.078 701.08C198.198 701.08 195.486 700.624 192.942 699.712C190.446 698.8 188.286 697.48 186.462 695.752C184.638 694.024 183.198 691.936 182.142 689.488C181.086 687.04 180.558 684.28 180.558 681.208C180.558 678.52 181.014 675.976 181.926 673.576C182.838 671.128 184.158 668.992 185.886 667.168C187.614 665.344 189.678 663.904 192.078 662.848C194.526 661.744 197.262 661.192 200.286 661.192C203.118 661.192 205.686 661.744 207.99 662.848C210.294 663.952 212.262 665.44 213.894 667.312C215.574 669.136 216.846 671.248 217.71 673.648C218.622 676.048 219.078 678.568 219.078 681.208ZM208.422 677.032C208.038 675.208 207.078 673.84 205.542 672.928C204.054 672.016 202.302 671.56 200.286 671.56C198.222 671.56 196.374 672.016 194.742 672.928C193.158 673.84 192.126 675.208 191.646 677.032H208.422ZM250.202 673.936C249.674 673.552 248.978 673.216 248.114 672.928C247.298 672.592 246.362 672.424 245.306 672.424C243.434 672.424 241.826 672.904 240.482 673.864C239.138 674.776 238.226 676.168 237.746 678.04V700H227.162V662.272H237.386V667.24C237.962 665.416 238.97 663.952 240.41 662.848C241.85 661.744 243.602 661.192 245.666 661.192C247.058 661.192 248.306 661.504 249.41 662.128C250.514 662.704 251.282 663.376 251.714 664.144L250.202 673.936ZM278.479 686.32C278.239 685.792 277.567 685.312 276.463 684.88C275.407 684.4 274.111 684.16 272.575 684.16C270.415 684.16 268.807 684.52 267.751 685.24C266.743 685.912 266.239 686.8 266.239 687.904C266.239 689.104 266.791 690.04 267.895 690.712C268.999 691.336 270.535 691.648 272.503 691.648C274.039 691.648 275.311 691.384 276.319 690.856C277.375 690.328 278.095 689.704 278.479 688.984V686.32ZM257.455 667.6C258.079 666.592 258.943 665.704 260.047 664.936C261.151 664.12 262.375 663.448 263.719 662.92C265.063 662.344 266.479 661.912 267.967 661.624C269.503 661.336 270.967 661.192 272.359 661.192C274.855 661.192 277.111 661.528 279.127 662.2C281.191 662.872 282.943 663.856 284.383 665.152C285.871 666.448 287.023 668.056 287.839 669.976C288.655 671.848 289.063 674.008 289.063 676.456V700H278.839V696.76C277.927 698.152 276.511 699.232 274.591 700C272.719 700.72 270.775 701.08 268.759 701.08C266.935 701.08 265.207 700.768 263.575 700.144C261.991 699.568 260.599 698.752 259.399 697.696C258.199 696.592 257.239 695.272 256.519 693.736C255.847 692.2 255.511 690.496 255.511 688.624C255.511 686.608 255.919 684.832 256.735 683.296C257.551 681.712 258.631 680.416 259.975 679.408C261.367 678.352 262.927 677.56 264.655 677.032C266.431 676.456 268.255 676.168 270.127 676.168C272.911 676.168 274.951 676.48 276.247 677.104C277.543 677.728 278.287 678.208 278.479 678.544V677.536C278.479 675.52 277.759 674.08 276.319 673.216C274.879 672.304 273.151 671.848 271.135 671.848C268.831 671.848 266.647 672.256 264.583 673.072C262.519 673.888 260.959 674.896 259.903 676.096L257.455 667.6ZM332.893 648.304C335.293 648.304 337.525 648.616 339.589 649.24C341.701 649.816 343.501 650.704 344.989 651.904C346.525 653.056 347.725 654.52 348.589 656.296C349.453 658.072 349.885 660.136 349.885 662.488C349.885 664.744 349.501 666.664 348.733 668.248C348.013 669.832 346.957 671.176 345.565 672.28C347.677 673.384 349.357 674.992 350.605 677.104C351.901 679.168 352.549 681.76 352.549 684.88C352.549 687.28 352.093 689.416 351.181 691.288C350.269 693.16 349.021 694.744 347.437 696.04C345.853 697.336 343.981 698.32 341.821 698.992C339.709 699.664 337.429 700 334.981 700H319.357V648.304H332.893ZM330.301 679.12V689.2H336.709C338.101 689.2 339.277 688.72 340.237 687.76C341.197 686.8 341.677 685.6 341.677 684.16C341.677 682.768 341.221 681.592 340.309 680.632C339.397 679.624 338.173 679.12 336.637 679.12H330.301ZM330.301 659.104V669.04H334.189C335.533 669.04 336.661 668.584 337.573 667.672C338.485 666.76 338.941 665.56 338.941 664.072C338.941 662.68 338.509 661.504 337.645 660.544C336.781 659.584 335.581 659.104 334.045 659.104H330.301ZM360.826 647.584H371.41V700H360.826V647.584ZM402.37 686.32C402.13 685.792 401.458 685.312 400.354 684.88C399.298 684.4 398.002 684.16 396.466 684.16C394.306 684.16 392.698 684.52 391.642 685.24C390.634 685.912 390.13 686.8 390.13 687.904C390.13 689.104 390.682 690.04 391.786 690.712C392.89 691.336 394.426 691.648 396.394 691.648C397.93 691.648 399.202 691.384 400.21 690.856C401.266 690.328 401.986 689.704 402.37 688.984V686.32ZM381.346 667.6C381.97 666.592 382.834 665.704 383.938 664.936C385.042 664.12 386.266 663.448 387.61 662.92C388.954 662.344 390.37 661.912 391.858 661.624C393.394 661.336 394.858 661.192 396.25 661.192C398.746 661.192 401.002 661.528 403.018 662.2C405.082 662.872 406.834 663.856 408.274 665.152C409.762 666.448 410.914 668.056 411.73 669.976C412.546 671.848 412.954 674.008 412.954 676.456V700H402.73V696.76C401.818 698.152 400.402 699.232 398.482 700C396.61 700.72 394.666 701.08 392.65 701.08C390.826 701.08 389.098 700.768 387.466 700.144C385.882 699.568 384.49 698.752 383.29 697.696C382.09 696.592 381.13 695.272 380.41 693.736C379.738 692.2 379.402 690.496 379.402 688.624C379.402 686.608 379.81 684.832 380.626 683.296C381.442 681.712 382.522 680.416 383.866 679.408C385.258 678.352 386.818 677.56 388.546 677.032C390.322 676.456 392.146 676.168 394.018 676.168C396.802 676.168 398.842 676.48 400.138 677.104C401.434 677.728 402.178 678.208 402.37 678.544V677.536C402.37 675.52 401.65 674.08 400.21 673.216C398.77 672.304 397.042 671.848 395.026 671.848C392.722 671.848 390.538 672.256 388.474 673.072C386.41 673.888 384.85 674.896 383.794 676.096L381.346 667.6ZM441.41 689.848C443.858 689.848 445.946 689.368 447.674 688.408C449.402 687.4 450.77 686.296 451.778 685.096L455.09 694.312C453.794 696.28 451.85 697.912 449.258 699.208C446.714 700.456 443.786 701.08 440.474 701.08C437.834 701.08 435.314 700.6 432.914 699.64C430.514 698.68 428.402 697.312 426.578 695.536C424.802 693.76 423.386 691.672 422.33 689.272C421.274 686.824 420.746 684.112 420.746 681.136C420.746 678.208 421.274 675.52 422.33 673.072C423.386 670.624 424.802 668.512 426.578 666.736C428.402 664.96 430.514 663.592 432.914 662.632C435.314 661.672 437.834 661.192 440.474 661.192C443.786 661.192 446.69 661.864 449.186 663.208C451.682 664.552 453.554 666.16 454.802 668.032L451.706 677.032C450.794 675.832 449.45 674.776 447.674 673.864C445.946 672.904 443.858 672.424 441.41 672.424C438.386 672.424 435.962 673.24 434.138 674.872C432.362 676.456 431.474 678.544 431.474 681.136C431.474 683.728 432.362 685.84 434.138 687.472C435.962 689.056 438.386 689.848 441.41 689.848ZM463.061 647.584H473.645V675.592L486.029 662.272H499.925L483.365 680.056L501.581 700H487.541L473.645 684.808V700H463.061V647.584Z" fill="black"/>
<rect x="457" y="62" width="835" height="5" fill="black"/>
<rect x="539" y="220" width="753" height="5" fill="black"/>
<rect x="585" y="375" width="707" height="8" fill="black"/>
<rect x="460" y="532" width="832" height="9" fill="black"/>
<rect x="490" y="690" width="802" height="10" fill="black"/>
</svg>
