<svg width="792" height="813" viewBox="0 0 792 813" fill="none" xmlns="http://www.w3.org/2000/svg">
<path d="M329.063 261.6V561H274.463V319.8H120.863V561H66.2625V261.6H329.063Z" fill="#8490FF"/>
<path d="M329.063 261.6H333.063V257.6H329.063V261.6ZM329.063 561V565H333.063V561H329.063ZM274.463 561H270.463V565H274.463V561ZM274.463 319.8H278.463V315.8H274.463V319.8ZM120.863 319.8V315.8H116.863V319.8H120.863ZM120.863 561V565H124.863V561H120.863ZM66.2625 561H62.2625V565H66.2625V561ZM66.2625 261.6V257.6H62.2625V261.6H66.2625ZM325.063 261.6V561H333.063V261.6H325.063ZM329.063 557H274.463V565H329.063V557ZM278.463 561V319.8H270.463V561H278.463ZM274.463 315.8H120.863V323.8H274.463V315.8ZM116.863 319.8V561H124.863V319.8H116.863ZM120.863 557H66.2625V565H120.863V557ZM70.2625 561V261.6H62.2625V561H70.2625ZM66.2625 265.6H329.063V257.6H66.2625V265.6Z" fill="#8490FF"/>
<path d="M670.834 354.2C679.234 373.4 683.434 394.2 683.434 416.6C683.434 439 679.234 459.8 670.834 479C662.834 498.2 651.834 514.8 637.834 528.8C624.234 542.8 608.234 553.8 589.834 561.8C571.834 569.4 552.634 573.2 532.234 573.2C511.834 573.2 492.434 569.4 474.034 561.8C455.634 553.8 439.434 542.8 425.434 528.8C411.834 514.8 401.034 498.2 393.034 479C385.034 459.8 381.034 439 381.034 416.6C381.034 394.2 385.034 373.4 393.034 354.2C401.034 335 411.834 318.4 425.434 304.4C439.434 290.4 455.634 279.4 474.034 271.4C492.434 263.4 511.834 259.4 532.234 259.4C552.634 259.4 571.834 263.4 589.834 271.4C608.234 279.4 624.234 290.4 637.834 304.4C651.834 318.4 662.834 335 670.834 354.2ZM435.634 416.6C435.634 431.4 438.034 445 442.834 457.4C447.634 469.4 454.434 479.8 463.234 488.6C472.034 497 482.234 503.6 493.834 508.4C505.434 512.8 518.234 515 532.234 515C545.834 515 558.434 512.8 570.034 508.4C582.034 503.6 592.434 497 601.234 488.6C610.034 479.8 616.834 469.4 621.634 457.4C626.434 445.4 628.834 432 628.834 417.2C628.834 402.4 626.434 389 621.634 377C616.834 364.6 610.034 354 601.234 345.2C592.434 336.4 582.034 329.6 570.034 324.8C558.434 320 545.834 317.6 532.234 317.6C518.234 317.6 505.434 320 493.834 324.8C482.234 329.6 472.034 336.4 463.234 345.2C454.434 354 447.634 364.6 442.834 377C438.034 389 435.634 402.2 435.634 416.6Z" fill="#8490FF"/>
<path d="M670.834 354.2L667.142 355.738L667.156 355.771L667.17 355.803L670.834 354.2ZM670.834 479L667.17 477.397L667.156 477.429L667.142 477.462L670.834 479ZM637.834 528.8L635.006 525.972L634.985 525.992L634.965 526.013L637.834 528.8ZM589.834 561.8L591.39 565.485L591.41 565.477L591.429 565.468L589.834 561.8ZM474.034 561.8L472.439 565.468L472.473 565.483L472.507 565.497L474.034 561.8ZM425.434 528.8L422.565 531.587L422.585 531.608L422.606 531.628L425.434 528.8ZM393.034 479L396.727 477.462L393.034 479ZM425.434 304.4L422.606 301.572L422.585 301.592L422.565 301.613L425.434 304.4ZM589.834 271.4L588.21 275.055L588.225 275.062L588.239 275.068L589.834 271.4ZM637.834 304.4L634.965 307.187L634.985 307.208L635.006 307.228L637.834 304.4ZM442.834 457.4L439.104 458.844L439.112 458.865L439.12 458.886L442.834 457.4ZM463.234 488.6L460.406 491.428L460.439 491.461L460.472 491.493L463.234 488.6ZM493.834 508.4L492.305 512.096L492.36 512.119L492.416 512.14L493.834 508.4ZM570.034 508.4L571.453 512.14L571.487 512.127L571.52 512.114L570.034 508.4ZM601.234 488.6L603.996 491.493L604.03 491.461L604.063 491.428L601.234 488.6ZM621.634 457.4L625.348 458.886L621.634 457.4ZM621.634 377L617.904 378.444L617.912 378.465L617.92 378.486L621.634 377ZM601.234 345.2L604.063 342.372L601.234 345.2ZM570.034 324.8L568.505 328.496L568.527 328.505L568.549 328.514L570.034 324.8ZM493.834 324.8L495.364 328.496H495.364L493.834 324.8ZM463.234 345.2L460.406 342.372H460.406L463.234 345.2ZM442.834 377L446.548 378.486L446.557 378.465L446.565 378.444L442.834 377ZM667.17 355.803C675.334 374.464 679.434 394.713 679.434 416.6H687.434C687.434 393.687 683.135 372.336 674.499 352.597L667.17 355.803ZM679.434 416.6C679.434 438.487 675.334 458.736 667.17 477.397L674.499 480.603C683.135 460.864 687.434 439.513 687.434 416.6H679.434ZM667.142 477.462C659.333 496.204 648.618 512.36 635.006 525.972L640.663 531.628C655.051 517.24 666.336 500.196 674.527 480.538L667.142 477.462ZM634.965 526.013C621.739 539.628 606.175 550.334 588.239 558.132L591.429 565.468C610.294 557.266 626.73 545.972 640.703 531.587L634.965 526.013ZM588.279 558.115C570.793 565.498 552.124 569.2 532.234 569.2V577.2C553.145 577.2 572.876 573.302 591.39 565.485L588.279 558.115ZM532.234 569.2C512.345 569.2 493.465 565.498 475.561 558.103L472.507 565.497C491.404 573.302 511.324 577.2 532.234 577.2V569.2ZM475.629 558.132C457.683 550.329 441.903 539.612 428.263 525.972L422.606 531.628C436.966 545.988 453.586 557.271 472.439 565.468L475.629 558.132ZM428.303 526.013C415.076 512.397 404.546 496.228 396.727 477.462L389.342 480.538C397.523 500.172 408.592 517.203 422.565 531.587L428.303 526.013ZM396.727 477.462C388.945 458.786 385.034 438.513 385.034 416.6H377.034C377.034 439.487 381.124 460.814 389.342 480.538L396.727 477.462ZM385.034 416.6C385.034 394.687 388.945 374.414 396.727 355.738L389.342 352.662C381.124 372.385 377.034 393.713 377.034 416.6H385.034ZM396.727 355.738C404.546 336.972 415.076 320.803 428.303 307.187L422.565 301.613C408.592 315.997 397.523 333.028 389.342 352.662L396.727 355.738ZM428.263 307.228C441.903 293.588 457.683 282.871 475.629 275.068L472.439 267.732C453.586 275.929 436.966 287.212 422.606 301.572L428.263 307.228ZM475.629 275.068C493.517 267.291 512.374 263.4 532.234 263.4V255.4C511.295 255.4 491.351 259.509 472.439 267.732L475.629 275.068ZM532.234 263.4C552.095 263.4 570.74 267.291 588.21 275.055L591.459 267.745C572.929 259.509 553.174 255.4 532.234 255.4V263.4ZM588.239 275.068C606.175 282.866 621.739 293.572 634.965 307.187L640.703 301.613C626.73 287.228 610.294 275.934 591.429 267.732L588.239 275.068ZM635.006 307.228C648.618 320.84 659.333 336.996 667.142 355.738L674.527 352.662C666.336 333.004 655.051 315.96 640.663 301.572L635.006 307.228ZM431.634 416.6C431.634 431.838 434.107 445.934 439.104 458.844L446.565 455.956C441.962 444.066 439.634 430.962 439.634 416.6H431.634ZM439.12 458.886C444.114 471.369 451.208 482.231 460.406 491.428L466.063 485.772C457.661 477.369 451.155 467.431 446.548 455.914L439.12 458.886ZM460.472 491.493C469.642 500.246 480.263 507.113 492.305 512.096L495.364 504.704C484.206 500.087 474.427 493.754 465.996 485.707L460.472 491.493ZM492.416 512.14C504.523 516.733 517.811 519 532.234 519V511C518.657 511 506.345 508.867 495.253 504.66L492.416 512.14ZM532.234 519C546.272 519 559.358 516.728 571.453 512.14L568.616 504.66C557.511 508.872 545.396 511 532.234 511V519ZM571.52 512.114C583.964 507.136 594.804 500.267 603.996 491.493L598.472 485.707C590.064 493.733 580.105 500.064 568.549 504.686L571.52 512.114ZM604.063 491.428C613.261 482.231 620.355 471.369 625.348 458.886L617.921 455.914C613.314 467.431 606.808 477.369 598.406 485.772L604.063 491.428ZM625.348 458.886C630.363 446.35 632.834 432.436 632.834 417.2H624.834C624.834 431.564 622.506 444.45 617.92 455.914L625.348 458.886ZM632.834 417.2C632.834 401.964 630.363 388.05 625.348 375.514L617.92 378.486C622.506 389.95 624.834 402.836 624.834 417.2H632.834ZM625.365 375.556C620.378 362.673 613.283 351.592 604.063 342.372L598.406 348.028C606.786 356.408 613.291 366.527 617.904 378.444L625.365 375.556ZM604.063 342.372C594.865 333.174 584.003 326.079 571.52 321.086L568.549 328.514C580.066 333.121 590.004 339.626 598.406 348.028L604.063 342.372ZM571.564 321.104C559.44 316.087 546.315 313.6 532.234 313.6V321.6C545.354 321.6 557.429 323.913 568.505 328.496L571.564 321.104ZM532.234 313.6C517.77 313.6 504.443 316.081 492.305 321.104L495.364 328.496C506.426 323.919 518.699 321.6 532.234 321.6V313.6ZM492.305 321.104C480.224 326.103 469.581 333.196 460.406 342.372L466.063 348.028C474.488 339.604 484.245 333.097 495.364 328.496L492.305 321.104ZM460.406 342.372C451.186 351.592 444.091 362.673 439.104 375.556L446.565 378.444C451.178 366.527 457.683 356.408 466.063 348.028L460.406 342.372ZM439.12 375.514C434.111 388.038 431.634 401.749 431.634 416.6H439.634C439.634 402.651 441.958 389.962 446.548 378.486L439.12 375.514Z" fill="#8490FF"/>
<rect x="269" y="605" width="425" height="4" transform="rotate(-90 269 605)" fill="black"/>
<rect x="328" y="605" width="425" height="4" transform="rotate(-90 328 605)" fill="black"/>
<rect x="623" y="605" width="425" height="4" transform="rotate(-90 623 605)" fill="black"/>
<rect x="683" y="605" width="425" height="4" transform="rotate(-90 683 605)" fill="black"/>
<rect y="255" width="751" height="4" fill="black"/>
<rect y="320" width="751" height="4" fill="black"/>
<path d="M779.416 294.725C778.816 293.675 777.616 292.9 775.816 292.4C774.016 291.85 772.091 291.575 770.041 291.575C767.191 291.575 764.966 292.025 763.366 292.925C761.816 293.775 761.041 295 761.041 296.6C761.041 298.1 761.791 299.325 763.291 300.275C764.841 301.175 767.091 301.625 770.041 301.625C771.041 301.625 772.016 301.525 772.966 301.325C773.966 301.125 774.891 300.85 775.741 300.5C776.591 300.15 777.341 299.725 777.991 299.225C778.641 298.725 779.116 298.175 779.416 297.575V294.725ZM756.241 276.2C757.641 274.25 759.566 272.675 762.016 271.475C764.466 270.275 767.191 269.675 770.191 269.675C775.191 269.675 779.116 270.975 781.966 273.575C784.816 276.125 786.241 279.725 786.241 284.375V308H779.641V304.7C779.191 305.35 778.566 305.925 777.766 306.425C776.966 306.925 776.066 307.375 775.066 307.775C774.116 308.125 773.116 308.4 772.066 308.6C771.016 308.8 769.966 308.9 768.916 308.9C764.466 308.9 760.891 307.85 758.191 305.75C755.541 303.6 754.216 300.6 754.216 296.75C754.216 294.8 754.591 293.075 755.341 291.575C756.141 290.075 757.216 288.8 758.566 287.75C759.916 286.7 761.491 285.925 763.291 285.425C765.091 284.875 767.041 284.6 769.141 284.6C769.991 284.6 770.891 284.675 771.841 284.825C772.841 284.925 773.791 285.1 774.691 285.35C775.641 285.6 776.516 285.925 777.316 286.325C778.116 286.675 778.816 287.125 779.416 287.675V285.875C779.416 284.325 779.141 283 778.591 281.9C778.041 280.75 777.316 279.825 776.416 279.125C775.516 278.375 774.441 277.825 773.191 277.475C771.991 277.125 770.716 276.95 769.366 276.95C766.966 276.95 764.791 277.425 762.841 278.375C760.891 279.325 759.341 280.575 758.191 282.125L756.241 276.2Z" fill="black"/>
<path d="M673.83 153.3C674.88 155.7 675.405 158.35 675.405 161.25C675.405 164.15 674.88 166.825 673.83 169.275C672.83 171.675 671.43 173.75 669.63 175.5C667.88 177.2 665.83 178.525 663.48 179.475C661.18 180.425 658.73 180.9 656.13 180.9C653.28 180.9 650.805 180.45 648.705 179.55C646.605 178.6 645.255 177.425 644.655 176.025V180H638.055V125.4H644.88V146.625C645.48 145.225 646.805 144.05 648.855 143.1C650.905 142.15 653.355 141.675 656.205 141.675C658.755 141.675 661.18 142.15 663.48 143.1C665.83 144.05 667.88 145.4 669.63 147.15C671.38 148.85 672.78 150.9 673.83 153.3ZM668.58 161.4C668.58 157.6 667.43 154.575 665.13 152.325C662.83 150.075 659.78 148.95 655.98 148.95C653.38 148.95 651.03 149.55 648.93 150.75C646.88 151.9 645.53 153.375 644.88 155.175V167.4C645.53 169.2 646.88 170.7 648.93 171.9C651.03 173.05 653.38 173.625 655.98 173.625C659.78 173.625 662.83 172.525 665.13 170.325C667.43 168.125 668.58 165.15 668.58 161.4Z" fill="black"/>
<path d="M318.83 153.3C319.88 155.7 320.405 158.35 320.405 161.25C320.405 164.15 319.88 166.825 318.83 169.275C317.83 171.675 316.43 173.75 314.63 175.5C312.88 177.2 310.83 178.525 308.48 179.475C306.18 180.425 303.73 180.9 301.13 180.9C298.28 180.9 295.805 180.45 293.705 179.55C291.605 178.6 290.255 177.425 289.655 176.025V180H283.055V125.4H289.88V146.625C290.48 145.225 291.805 144.05 293.855 143.1C295.905 142.15 298.355 141.675 301.205 141.675C303.755 141.675 306.18 142.15 308.48 143.1C310.83 144.05 312.88 145.4 314.63 147.15C316.38 148.85 317.78 150.9 318.83 153.3ZM313.58 161.4C313.58 157.6 312.43 154.575 310.13 152.325C307.83 150.075 304.78 148.95 300.98 148.95C298.38 148.95 296.03 149.55 293.93 150.75C291.88 151.9 290.53 153.375 289.88 155.175V167.4C290.53 169.2 291.88 170.7 293.93 171.9C296.03 173.05 298.38 173.625 300.98 173.625C304.78 173.625 307.83 172.525 310.13 170.325C312.43 168.125 313.58 165.15 313.58 161.4Z" fill="black"/>
</svg>
