<svg width="568" height="563" viewBox="0 0 568 563" fill="none" xmlns="http://www.w3.org/2000/svg">
<path d="M306.53 123.878L307.56 128.603L300.433 133.374L303.77 148.684L312.226 150.009L313.287 154.876L276.496 149.135L275.456 144.362L306.53 123.878ZM298.596 147.882L296.062 136.257L282.408 145.371L298.596 147.882Z" fill="black"/>
<path d="M294.564 100.219L296.461 104.668L290.352 110.689L296.496 125.103L305.051 124.822L307.004 129.404L269.789 130.651L267.874 126.158L294.564 100.219ZM291.263 125.283L286.599 114.339L274.891 125.848L291.263 125.283Z" fill="black"/>
<path d="M278.381 79.2177L281.077 83.2331L276.204 90.2908L284.938 103.3L293.288 101.423L296.064 105.558L259.741 113.75L257.018 109.695L278.381 79.2177ZM279.831 104.457L273.2 94.5793L263.854 108.076L279.831 104.457Z" fill="black"/>
<path d="M258.552 61.617L261.952 65.0568L258.486 72.902L269.501 84.0468L277.352 80.6389L280.854 84.1818L246.705 99.0284L243.272 95.5542L258.552 61.617ZM264.701 86.1388L256.338 77.677L249.684 92.6851L264.701 86.1388Z" fill="black"/>
<path d="M235.781 48.0393L239.765 50.7819L237.829 59.1371L250.735 68.0231L257.809 63.2057L261.912 66.0305L231.147 87.007L227.124 84.237L235.781 48.0393ZM246.411 70.9767L236.612 64.23L232.885 80.2183L246.411 70.9767Z" fill="black"/>
<path d="M210.871 38.9648L215.297 40.9132L214.959 49.4832L229.301 55.7961L235.348 49.7395L239.908 51.7464L213.613 78.1112L209.142 76.1433L210.871 38.9648ZM225.606 59.5068L214.718 54.7137L214.049 71.1171L225.606 59.5068Z" fill="black"/>
<path d="M184.701 34.7138L189.414 35.7991L190.686 44.2809L205.956 47.7975L210.763 40.7159L215.617 41.8339L194.722 72.6549L189.962 71.5586L184.701 34.7138ZM203.022 52.1342L191.428 49.4642L193.842 65.7027L203.022 52.1342Z" fill="black"/>
<path d="M158.196 35.4365L163.029 35.6205L165.867 43.7141L181.525 44.3102L184.921 36.4539L189.899 36.6434L175.143 70.831L170.262 70.6451L158.196 35.4365ZM179.454 49.1195L167.566 48.6669L172.977 64.1665L179.454 49.1195Z" fill="black"/>
<path d="M132.297 41.1085L137.079 40.3845L141.382 47.8038L156.874 45.4583L158.74 37.1051L163.665 36.3594L155.57 72.7049L150.74 73.4361L132.297 41.1085ZM155.741 50.5702L143.978 52.3511L152.195 66.5637L155.741 50.5702Z" fill="black"/>
<path d="M107.917 51.5278L112.479 49.9215L118.094 56.4043L132.874 51.2L133.144 42.6452L137.842 40.9907L136.693 78.2091L132.086 79.8314L107.917 51.5278ZM132.718 56.4337L121.496 60.3851L132.228 72.8083L132.718 56.4337Z" fill="black"/>
<path d="M85.9173 66.3263L90.0976 63.8945L96.8273 69.2115L110.372 61.3325L109.035 52.8785L113.341 50.3738L119.179 87.1492L114.957 89.6053L85.9173 66.3263ZM111.198 66.503L100.914 72.4852L113.782 82.6798L111.198 66.503Z" fill="black"/>
<path d="M67.0802 84.9815L70.7315 81.8102L78.3375 85.7734L90.1676 75.4982L87.2717 67.444L91.0325 64.1775L103.652 99.2099L99.9644 102.413L67.0802 84.9815ZM91.9467 80.4228L82.9646 88.2243L97.5136 95.8298L91.9467 80.4228Z" fill="black"/>
<path d="M52.0649 106.834L55.0579 103.035L63.2714 105.504L72.9689 93.1964L68.6165 85.8267L71.6994 81.9139L90.6539 113.965L87.6309 117.801L52.0649 106.834ZM75.6384 97.701L68.2755 107.046L83.991 111.794L75.6384 97.701Z" fill="black"/>
<path d="M41.4073 131.111L43.6363 126.819L52.1668 127.707L59.3889 113.801L53.7339 107.376L56.0298 102.956L80.649 130.892L78.3976 135.227L41.4073 131.111ZM62.8544 117.726L57.371 128.284L73.6974 130.006L62.8544 117.726Z" fill="black"/>
<path d="M35.4811 156.953L36.8673 152.32L45.4133 151.595L49.9046 136.583L43.1468 131.331L44.5746 126.559L73.9881 149.392L72.588 154.072L35.4811 156.953ZM54.0436 139.79L50.6335 151.188L66.9937 149.824L54.0436 139.79Z" fill="black"/>
<path d="M34.4998 183.448L34.9941 178.637L43.2535 176.326L44.8553 160.739L37.2337 156.844L37.7429 151.889L70.9108 168.813L70.4114 173.672L34.4998 183.448ZM49.5215 163.114L48.3053 174.949L64.1208 170.546L49.5215 163.114Z" fill="black"/>
<path d="M38.495 209.658L38.08 204.84L45.7607 201.023L44.4163 185.412L36.2004 183.013L35.773 178.05L71.5226 188.466L71.9417 193.332L38.495 209.658ZM49.4447 186.872L50.4654 198.725L65.1771 191.439L49.4447 186.872Z" fill="black"/>
<path d="M47.3221 234.658L46.0126 230.003L52.843 224.816L48.6 209.732L40.0802 208.913L38.7313 204.118L75.7988 207.657L77.1215 212.36L47.3221 234.658ZM53.8128 210.225L57.0344 221.677L70.122 211.766L53.8128 210.225Z" fill="black"/>
<path d="M60.6777 257.562L58.5198 253.234L64.2586 246.86L57.2669 232.837L48.7445 233.628L46.5218 229.17L83.5967 225.708L85.7762 230.079L60.6777 257.562ZM62.4799 232.346L67.7884 242.993L78.7894 230.807L62.4799 232.346Z" fill="black"/>
<path d="M78.0827 277.562L75.1527 273.715L79.5969 266.379L70.1038 253.913L61.88 256.285L58.8621 252.322L94.6336 241.981L97.5929 245.867L78.0827 277.562ZM75.1326 252.454L82.3403 261.92L90.8658 247.89L75.1326 252.454Z" fill="black"/>
<path d="M98.9216 293.951L95.3232 290.72L98.3156 282.682L86.6567 272.213L79.0223 276.083L75.3159 272.755L108.519 255.9L112.154 259.164L98.9216 293.951ZM91.3235 269.839L100.176 277.788L105.924 262.41L91.3235 269.839Z" fill="black"/>
<path d="M122.463 306.148L118.323 303.648L119.758 295.192L106.346 287.09L99.5705 292.321L95.3066 289.745L124.768 266.973L128.949 269.499L122.463 306.148ZM110.486 283.884L120.669 290.035L123.437 273.854L110.486 283.884Z" fill="black"/>
<path d="M147.872 313.723L143.338 312.041L143.164 303.466L128.472 298.019L122.796 304.425L118.125 302.693L142.803 274.809L147.383 276.507L147.872 313.723ZM131.939 294.095L143.094 298.231L142.784 281.817L131.939 294.095Z" fill="black"/>
<path d="M174.248 316.408L169.479 315.605L167.704 307.214L152.252 304.613L147.875 311.969L142.963 311.142L161.985 279.131L166.802 279.942L174.248 316.408ZM154.923 300.11L166.655 302.084L163.278 286.019L154.923 300.11Z" fill="black"/>
<path d="M200.662 314.107L195.827 314.212L192.512 306.301L176.846 306.639L173.924 314.684L168.943 314.791L181.637 279.785L186.52 279.68L200.662 314.107ZM178.627 301.715L190.521 301.459L184.196 286.309L178.627 301.715Z" fill="black"/>
<path d="M226.179 306.903L221.449 307.911L216.712 300.761L201.387 304.025L200.022 312.474L195.15 313.512L201.066 276.749L205.843 275.732L226.179 306.903ZM202.214 298.855L213.85 296.376L204.801 282.678L202.214 298.855Z" fill="black"/>
<path d="M249.893 295.051L245.435 296.926L239.443 290.789L225 296.864L225.24 305.42L220.649 307.351L219.579 270.131L224.081 268.237L249.893 295.051ZM224.844 291.631L235.811 287.018L224.358 275.256L224.844 291.631Z" fill="black"/>
<path d="M270.971 278.968L266.943 281.644L259.909 276.738L246.858 285.409L248.696 293.769L244.547 296.526L236.528 260.163L240.597 257.46L270.971 278.968ZM245.726 280.297L255.635 273.713L242.182 264.303L245.726 280.297Z" fill="black"/>
<path d="M288.667 259.223L285.211 262.607L277.383 259.103L266.185 270.065L269.556 277.932L265.996 281.417L251.312 247.198L254.803 243.781L288.667 259.223ZM264.116 265.255L272.618 256.932L257.642 250.207L264.116 265.255Z" fill="black"/>
<path d="M302.355 236.515L299.593 240.486L291.247 238.51L282.3 251.374L287.084 258.471L284.239 262.561L263.409 231.696L266.198 227.686L302.355 236.515ZM279.367 247.036L286.16 237.269L270.19 233.466L279.367 247.036Z" fill="black"/>
<path d="M197.145 322.576L197.447 349.995L162.725 350.379L162.675 345.833L192.513 345.503L192.31 327.175L162.473 327.505L162.423 322.959L197.145 322.576Z" fill="#8490FF"/>
<path d="M198.221 353.552L204.493 380.247L170.689 388.189L169.649 383.763L198.698 376.938L194.505 359.095L165.457 365.92L164.417 361.494L198.221 353.552Z" fill="#8490FF"/>
<path d="M206.02 383.549L217.959 408.235L186.699 423.354L184.72 419.261L211.582 406.269L203.602 389.768L176.739 402.76L174.76 398.668L206.02 383.549Z" fill="#8490FF"/>
<path d="M220.172 411.125L237.205 432.615L209.992 454.184L207.168 450.621L230.553 432.086L219.168 417.721L195.783 436.256L192.959 432.694L220.172 411.125Z" fill="#8490FF"/>
<path d="M239.992 434.954L261.299 452.215L239.442 479.197L235.909 476.335L254.692 453.149L240.45 441.611L221.667 464.798L218.135 461.936L239.992 434.954Z" fill="#8490FF"/>
<path d="M264.529 453.89L289.086 466.092L273.635 497.189L269.564 495.166L282.842 468.444L266.427 460.288L253.149 487.01L249.078 484.987L264.529 453.89Z" fill="#8490FF"/>
<path d="M292.604 467.022L319.23 473.578L310.928 507.295L306.514 506.208L313.648 477.234L295.85 472.852L288.716 501.826L284.302 500.739L292.604 467.022Z" fill="#8490FF"/>
<path d="M322.865 473.72L350.28 474.315L349.527 509.031L344.982 508.932L345.629 479.1L327.304 478.702L326.657 508.534L322.112 508.436L322.865 473.72Z" fill="#8490FF"/>
<path d="M353.861 473.661L380.747 468.266L387.578 502.312L383.121 503.206L377.251 473.95L359.279 477.556L365.15 506.812L360.693 507.707L353.861 473.661Z" fill="#8490FF"/>
<path d="M384.1 466.848L409.163 455.723L423.251 487.461L419.095 489.305L406.99 462.032L390.236 469.468L402.342 496.741L398.187 498.586L384.1 466.848Z" fill="#8490FF"/>
<path d="M412.123 453.608L434.159 437.288L454.826 465.192L451.172 467.898L433.413 443.919L418.683 454.828L436.443 478.807L432.789 481.513L412.123 453.608Z" fill="#8490FF"/>
<path d="M436.588 434.578L454.537 413.847L480.789 436.576L477.813 440.013L455.254 420.481L443.256 434.338L465.815 453.87L462.839 457.307L436.588 434.578Z" fill="#8490FF"/>
<path d="M456.318 410.673L469.318 386.528L499.892 402.989L497.737 406.992L471.463 392.846L462.774 408.985L489.048 423.131L486.893 427.134L456.318 410.673Z" fill="#8490FF"/>
<path d="M470.361 383.042L477.786 356.645L511.213 366.047L509.982 370.423L481.257 362.344L476.294 379.989L505.019 388.068L503.789 392.444L470.361 383.042Z" fill="#8490FF"/>
<path d="M478.049 353.017L479.541 325.636L514.214 327.526L513.966 332.065L484.171 330.441L483.174 348.743L512.969 350.367L512.722 354.906L478.049 353.017Z" fill="#8490FF"/>
<path d="M479.004 322.035L474.492 294.987L508.743 289.274L509.491 293.759L480.058 298.668L483.074 316.747L512.507 311.838L513.255 316.322L479.004 322.035Z" fill="#8490FF"/>
<path d="M473.182 291.593L462.883 266.178L495.066 253.137L496.773 257.351L469.118 268.557L476.001 285.545L503.657 274.338L505.364 278.552L473.182 291.593Z" fill="#8490FF"/>
<path d="M460.867 263.15L445.277 240.591L473.844 220.85L476.428 224.589L451.88 241.554L462.301 256.633L486.849 239.668L489.433 243.408L460.867 263.15Z" fill="#8490FF"/>
<path d="M442.646 238.074L422.515 219.456L446.091 193.963L449.429 197.049L429.169 218.956L442.625 231.401L462.886 209.494L466.223 212.581L442.646 238.074Z" fill="#8490FF"/>
<path d="M419.402 217.572L395.696 203.789L413.15 173.77L417.08 176.055L402.082 201.851L417.927 211.064L432.926 185.268L436.856 187.553L419.402 217.572Z" fill="#8490FF"/>
<path d="M392.248 202.63L366.108 194.346L376.599 161.244L380.932 162.618L371.917 191.063L389.39 196.6L398.405 168.155L402.739 169.529L392.248 202.63Z" fill="#8490FF"/>
<path d="M362.488 193.967L335.171 191.579L338.195 156.987L342.724 157.383L340.125 187.109L358.385 188.705L360.983 158.979L365.512 159.375L362.488 193.967Z" fill="#8490FF"/>
<path d="M331.557 191.996L304.376 195.62L299.787 161.2L304.293 160.6L308.236 190.177L326.405 187.755L322.462 158.178L326.968 157.577L331.557 191.996Z" fill="#8490FF"/>
<path d="M300.939 196.817L275.202 206.277L263.222 173.685L267.488 172.117L277.783 200.124L294.987 193.8L284.692 165.793L288.959 164.225L300.939 196.817Z" fill="#8490FF"/>
<path d="M272.105 208.194L249.049 223.037L230.253 193.839L234.075 191.379L250.227 216.469L265.639 206.547L249.487 181.457L253.31 178.996L272.105 208.194Z" fill="#8490FF"/>
<path d="M246.451 225.582L227.184 245.094L202.476 220.695L205.67 217.46L226.902 238.427L239.781 225.385L218.549 204.418L221.743 201.183L246.451 225.582Z" fill="#8490FF"/>
<path d="M321.997 277.588L317.123 278.901L322.199 265.163L312.1 256.96L316.932 255.659L323.702 261.211L326.812 252.998L331.73 251.673L327.129 263.882L338.493 273.146L333.705 274.435L325.594 267.89L321.997 277.588Z" fill="black"/>
<path d="M304.951 256.859L309.79 254.424L307.431 269.959L319.82 276.393L315.025 278.806L306.708 274.438L305.219 283.743L300.338 286.2L302.528 272.373L288.579 265.101L293.331 262.709L303.273 267.829L304.951 256.859Z" fill="black"/>
<path d="M284.271 270.43L288.223 266.725L290.355 282.293L304.058 284.959L300.142 288.631L290.929 286.794L292.133 296.139L288.146 299.877L286.336 285.996L270.9 282.966L274.781 279.328L285.764 281.427L284.271 270.43Z" fill="black"/>
<path d="M268.276 289.296L271.018 284.624L277.468 298.953L291.365 297.634L288.647 302.263L279.291 303.108L283.09 311.731L280.323 316.444L274.659 303.642L258.997 305.103L261.69 300.515L272.819 299.421L268.276 289.296Z" fill="black"/>
<path d="M258.275 311.915L259.584 306.659L269.824 318.578L282.78 313.381L281.483 318.59L272.748 322.047L278.831 329.243L277.51 334.546L268.457 323.87L253.847 329.702L255.132 324.539L265.497 320.342L258.275 311.915Z" fill="black"/>
<path d="M255.076 336.441L254.844 331.03L268.038 339.565L278.994 330.915L279.224 336.279L271.824 342.066L279.694 347.247L279.927 352.707L268.223 345.027L255.86 354.754L255.633 349.439L264.387 342.481L255.076 336.441Z" fill="black"/>
<path d="M258.949 360.87L257.196 355.745L272.264 360.199L280.327 348.803L282.064 353.883L276.603 361.527L285.617 364.27L287.386 369.441L273.988 365.386L264.881 378.213L263.159 373.179L269.587 364.029L258.949 360.87Z" fill="black"/>
<path d="M269.575 383.205L266.443 378.786L282.157 378.795L286.666 365.584L289.769 369.964L286.694 378.841L296.116 378.922L299.275 383.381L285.277 383.282L280.171 398.161L277.096 393.821L280.673 383.225L269.575 383.205Z" fill="black"/>
<path d="M286.081 401.623L281.827 398.27L296.902 393.834L297.489 379.886L301.705 383.21L301.266 392.594L310.326 390.006L314.618 393.39L301.163 397.255L300.475 412.97L296.298 409.677L296.731 398.503L286.081 401.623Z" fill="black"/>
<path d="M307.128 414.618L302.1 412.605L315.303 404.086L311.921 390.542L316.905 392.537L319.139 401.662L327.097 396.617L332.171 398.648L320.359 406.162L324.145 421.43L319.206 419.453L316.461 408.613L307.128 414.618Z" fill="black"/>
<path d="M330.986 421.129L325.593 420.621L335.848 408.714L328.772 396.681L334.117 397.184L338.841 405.305L345.047 398.214L350.487 398.727L341.284 409.275L349.234 422.849L343.938 422.35L338.238 412.729L330.986 421.129Z" fill="black"/>
<path d="M355.717 420.624L350.4 421.662L356.868 407.341L346.677 397.8L351.946 396.771L358.774 403.224L362.721 394.667L368.084 393.62L362.241 406.341L373.706 417.111L368.485 418.13L360.296 410.515L355.717 420.624Z" fill="black"/>
<path d="M379.293 413.143L374.488 415.643L376.64 400.077L364.167 393.809L368.929 391.332L377.304 395.589L378.669 386.266L383.517 383.744L381.511 397.598L395.554 404.685L390.835 407.14L380.826 402.152L379.293 413.143Z" fill="black"/>
<path d="M399.787 399.3L395.885 403.056L393.545 387.518L379.808 385.034L383.676 381.311L392.912 383.025L391.584 373.697L395.521 369.906L397.516 383.762L412.991 386.587L409.158 390.276L398.148 388.323L399.787 399.3Z" fill="black"/>
<path d="M415.533 380.223L412.853 384.93L406.214 370.688L392.335 372.192L394.991 367.527L404.336 366.558L400.423 357.987L403.126 353.237L408.96 365.963L424.601 364.294L421.969 368.918L410.856 370.159L415.533 380.223Z" fill="black"/>
<path d="M425.232 357.473L423.993 362.746L413.596 350.964L400.71 356.332L401.938 351.106L410.626 347.534L404.448 340.419L405.698 335.099L414.893 345.654L429.424 339.629L428.207 344.808L417.899 349.143L425.232 357.473Z" fill="black"/>
<path d="M428.104 332.906L428.407 338.314L415.102 329.955L404.261 338.749L403.96 333.39L411.283 327.505L403.345 322.429L403.039 316.972L414.844 324.496L427.076 314.606L427.375 319.917L418.714 326.991L428.104 332.906Z" fill="black"/>
<path d="M423.909 308.531L425.73 313.632L410.603 309.378L402.693 320.88L400.888 315.825L406.247 308.109L397.197 305.485L395.36 300.339L408.811 304.215L417.747 291.269L419.535 296.279L413.229 305.514L423.909 308.531Z" fill="black"/>
<path d="M412.99 286.339L416.18 290.716L400.468 290.915L396.135 304.185L392.973 299.847L395.931 290.93L386.508 290.974L383.29 286.557L397.289 286.47L402.196 271.525L405.329 275.824L401.893 286.466L412.99 286.339Z" fill="black"/>
<path d="M396.235 268.142L400.533 271.438L385.519 276.074L385.117 290.028L380.857 286.761L381.171 277.372L372.146 280.079L367.81 276.753L381.212 272.71L381.691 256.987L385.912 260.224L385.627 271.403L396.235 268.142Z" fill="black"/>
<path d="M375.02 255.428L380.075 257.374L366.985 266.067L370.547 279.565L365.537 277.636L363.182 268.542L355.292 273.692L350.192 271.729L361.902 264.059L357.914 248.842L362.879 250.754L365.768 261.557L375.02 255.428Z" fill="black"/>
<path d="M351.075 249.234L356.474 249.671L346.379 261.712L353.613 273.651L348.263 273.218L343.431 265.162L337.32 272.334L331.873 271.893L340.936 261.224L332.806 247.757L338.108 248.186L343.935 257.73L351.075 249.234Z" fill="black"/>
<path d="M287.576 435.321C288.763 436.482 289.58 437.893 290.028 439.553C290.506 441.222 290.469 443.067 289.915 445.088C289.489 446.643 288.842 447.97 287.972 449.069C287.103 450.168 286.078 451.041 284.899 451.687C283.727 452.302 282.44 452.668 281.037 452.785C279.635 452.903 278.187 452.757 276.694 452.348C275.451 452.007 274.327 451.532 273.324 450.923C272.321 450.314 271.452 449.642 270.718 448.905C269.992 448.138 269.423 447.347 269.011 446.532C268.599 445.718 268.342 444.945 268.241 444.216L270.553 440.536C271.216 442.389 272.187 443.909 273.466 445.095C274.777 446.29 276.287 447.122 277.998 447.59C279.863 448.101 281.461 448.004 282.791 447.299C284.152 446.602 285.067 445.398 285.535 443.688C285.723 443.004 285.766 442.297 285.665 441.567C285.564 440.838 285.317 440.152 284.925 439.509C284.541 438.836 283.983 438.248 283.252 437.747C282.528 437.215 281.638 436.804 280.581 436.514L277.735 435.735L279.039 430.977L281.977 431.782C282.786 432.003 283.535 432.075 284.225 431.996C284.924 431.887 285.55 431.674 286.105 431.358C286.659 431.042 287.122 430.634 287.493 430.134C287.873 429.603 288.152 429.011 288.331 428.358C288.68 427.083 288.554 425.895 287.953 424.794C287.361 423.662 286.349 422.901 284.919 422.509C283.271 422.057 281.718 422.05 280.261 422.486C278.805 422.923 277.459 423.624 276.225 424.59L276.455 420.09C276.976 419.531 277.593 419.048 278.306 418.641C279.05 418.243 279.835 417.94 280.661 417.732C281.527 417.501 282.429 417.381 283.368 417.37C284.307 417.36 285.242 417.483 286.175 417.738C287.512 418.105 288.677 418.674 289.669 419.447C290.669 420.189 291.462 421.075 292.049 422.105C292.645 423.104 293.011 424.207 293.148 425.415C293.286 426.623 293.175 427.879 292.818 429.185C292.417 430.647 291.756 431.903 290.833 432.954C289.909 434.005 288.824 434.794 287.576 435.321Z" fill="black"/>
<path fill-rule="evenodd" clip-rule="evenodd" d="M276.453 420.09C276.974 419.531 277.591 419.048 278.304 418.641C279.048 418.243 279.833 417.94 280.659 417.732C281.524 417.501 282.427 417.381 283.365 417.37C284.304 417.36 285.24 417.483 286.173 417.738C287.51 418.105 288.674 418.674 289.666 419.447C290.666 420.189 291.46 421.075 292.047 422.105C292.643 423.104 293.009 424.207 293.146 425.415C293.283 426.623 293.173 427.879 292.815 429.185C292.415 430.647 291.753 431.903 290.83 432.954C290.385 433.461 289.902 433.906 289.382 434.291C288.823 434.705 288.22 435.048 287.574 435.321C288.079 435.815 288.516 436.354 288.887 436.938C289.388 437.727 289.768 438.599 290.025 439.553C290.504 441.222 290.467 443.067 289.913 445.088C289.487 446.643 288.839 447.97 287.97 449.069C287.101 450.168 286.076 451.041 284.896 451.687C283.725 452.302 282.438 452.668 281.035 452.786C279.632 452.903 278.185 452.757 276.692 452.348C275.448 452.007 274.325 451.532 273.321 450.923C272.318 450.314 271.45 449.642 270.715 448.905C269.989 448.138 269.42 447.347 269.008 446.532C268.596 445.718 268.34 444.945 268.239 444.216L270.551 440.536C270.832 441.323 271.169 442.05 271.561 442.716C272.093 443.62 272.727 444.413 273.464 445.095C274.775 446.29 276.285 447.122 277.995 447.59C279.861 448.101 281.459 448.004 282.789 447.299C284.15 446.602 285.064 445.398 285.533 443.688C285.72 443.004 285.764 442.297 285.663 441.567C285.562 440.838 285.315 440.152 284.923 439.509C284.539 438.836 283.981 438.248 283.249 437.747C282.526 437.215 281.636 436.804 280.578 436.514L277.733 435.735L279.036 430.977L281.975 431.782C282.783 432.003 283.533 432.075 284.223 431.996C284.921 431.887 285.548 431.674 286.102 431.358C286.657 431.042 287.12 430.634 287.491 430.134C287.87 429.603 288.15 429.011 288.328 428.358C288.678 427.083 288.552 425.895 287.951 424.794C287.358 423.662 286.347 422.901 284.916 422.509C283.268 422.057 281.716 422.05 280.259 422.486C279.585 422.689 278.935 422.947 278.308 423.262C277.581 423.629 276.886 424.071 276.223 424.59L276.453 420.09ZM283.955 429.999C284.418 429.921 284.794 429.785 285.105 429.607C285.417 429.429 285.664 429.211 285.862 428.947C286.093 428.62 286.268 428.251 286.385 427.825C286.605 427.023 286.519 426.376 286.182 425.76L286.174 425.744L286.166 425.729C285.875 425.174 285.37 424.722 284.384 424.452C283.054 424.088 281.889 424.101 280.838 424.417C279.629 424.779 278.507 425.361 277.465 426.177L273.985 428.9L274.478 419.254L274.978 418.716C275.648 417.997 276.429 417.39 277.306 416.891L277.33 416.877L277.354 416.864C278.24 416.39 279.174 416.029 280.153 415.781C281.184 415.508 282.249 415.367 283.343 415.355C284.475 415.343 285.597 415.491 286.705 415.795C288.265 416.222 289.668 416.898 290.886 417.843C292.085 418.736 293.061 419.82 293.788 421.09C294.531 422.342 294.981 423.715 295.148 425.188C295.318 426.677 295.176 428.193 294.759 429.718C294.284 431.449 293.485 432.984 292.344 434.284C291.814 434.888 291.235 435.424 290.609 435.89C291.208 436.841 291.661 437.885 291.967 439.013C292.562 441.1 292.486 443.323 291.856 445.621C291.37 447.398 290.611 448.978 289.55 450.319C288.521 451.621 287.291 452.673 285.864 453.454L285.849 453.463L285.833 453.471C284.408 454.219 282.857 454.655 281.203 454.794C279.542 454.932 277.857 454.757 276.16 454.291C274.753 453.906 273.454 453.361 272.276 452.646C271.151 451.963 270.151 451.193 269.289 450.329L269.27 450.31L269.251 450.29C268.412 449.403 267.722 448.455 267.21 447.442C266.721 446.474 266.381 445.488 266.243 444.492L266.142 443.765L271.052 435.952L272.448 439.858C273.014 441.442 273.817 442.673 274.827 443.612C275.901 444.589 277.127 445.263 278.528 445.647C280.045 446.062 281.086 445.921 281.844 445.519L281.857 445.512L281.87 445.505C282.646 445.108 283.244 444.416 283.589 443.156C283.702 442.745 283.732 442.314 283.666 441.844C283.604 441.394 283.454 440.971 283.203 440.56L283.187 440.534L283.172 440.507C282.959 440.134 282.627 439.763 282.11 439.409L282.082 439.39L282.055 439.37C281.569 439.012 280.916 438.696 280.046 438.457L275.257 437.146L277.625 428.501L282.507 429.838C283.097 430 283.573 430.036 283.955 429.999Z" fill="black"/>
<path d="M312.02 427.317L330.051 431.554L328.934 436.309L315.328 433.112L313.148 442.387L325.342 445.252L324.225 450.007L312.031 447.142L309.619 457.405L323.225 460.602L322.108 465.357L304.076 461.12L312.02 427.317Z" fill="black"/>
<path fill-rule="evenodd" clip-rule="evenodd" d="M310.518 424.894L332.473 430.053L330.433 438.732L316.827 435.535L315.57 440.886L327.763 443.751L325.724 452.43L313.53 449.564L312.041 455.904L325.647 459.102L323.608 467.78L301.653 462.621L310.518 424.894ZM309.618 457.405L312.03 447.142L324.223 450.007L325.341 445.252L313.147 442.387L315.326 433.112L328.933 436.309L330.05 431.554L312.018 427.317L304.075 461.12L322.107 465.357L323.224 460.602L309.618 457.405Z" fill="black"/>
<path d="M369.609 426.592L374.427 425.786L384.736 459.268L380.3 460.01L372.349 434.47L367.278 462.189L362.889 462.923L348.881 438.396L349.915 465.094L345.288 465.868L344.09 430.862L348.908 430.056L363.847 456.045L369.609 426.592Z" fill="black"/>
<path fill-rule="evenodd" clip-rule="evenodd" d="M367.9 424.835L375.834 423.508L387.34 460.876L378.899 462.288L372.859 442.885L369.006 463.943L361.837 465.143L351.214 446.543L351.998 466.789L343.354 468.235L342.016 429.166L349.957 427.837L362.906 450.364L367.9 424.835ZM363.848 456.045L348.908 430.056L344.091 430.862L345.289 465.868L349.916 465.094L348.882 438.396L362.89 462.923L367.278 462.189L372.35 434.47L380.3 460.01L384.736 459.268L374.428 425.786L369.61 426.592L363.848 456.045Z" fill="black"/>
<path d="M402.381 407.769L423.663 435.208L420.07 437.994L401.782 414.415L392.993 421.232L393.814 422.37C396.942 426.718 399.428 430.502 401.273 433.722C403.098 436.917 404.346 439.683 405.015 442.02C405.666 444.331 405.777 446.264 405.351 447.819C404.925 449.373 404.049 450.665 402.725 451.692C402.495 451.87 402.246 452.022 401.977 452.149C401.709 452.276 401.491 452.363 401.324 452.411L398.134 449.561C398.788 448.931 399.329 448.287 399.757 447.629C400.21 446.951 400.471 446.156 400.54 445.246C400.59 444.31 400.42 443.197 400.032 441.907C399.623 440.592 398.927 439.01 397.943 437.162C396.939 435.289 395.584 433.095 393.88 430.582C392.2 428.049 390.108 425.061 387.601 421.619L386.484 420.099L402.381 407.769Z" fill="black"/>
<path fill-rule="evenodd" clip-rule="evenodd" d="M402.741 404.942L426.492 435.565L419.715 440.821L401.427 417.242L395.767 421.632C398.773 425.832 401.196 429.531 403.023 432.721L403.025 432.723C404.893 435.994 406.224 438.915 406.955 441.465L406.957 441.474C407.661 443.977 407.856 446.312 407.297 448.352C406.75 450.344 405.616 452.001 403.962 453.284C403.613 453.554 403.238 453.783 402.84 453.971C402.531 454.117 402.201 454.257 401.881 454.348L400.812 454.655L395.173 449.616L396.738 448.109C397.299 447.57 397.737 447.042 398.069 446.531L398.076 446.52L398.084 446.509C398.319 446.157 398.483 445.712 398.531 445.117C398.56 444.494 398.449 443.635 398.107 442.496C397.75 441.349 397.117 439.894 396.168 438.112C395.207 436.32 393.894 434.19 392.214 431.713L392.208 431.704L392.202 431.695C390.545 429.195 388.471 426.234 385.977 422.809L383.699 419.711L402.741 404.942ZM387.603 421.619C390.11 425.061 392.203 428.049 393.882 430.582C395.586 433.095 396.941 435.289 397.945 437.162C398.929 439.01 399.626 440.592 400.034 441.907C400.422 443.197 400.592 444.31 400.542 445.246C400.473 446.156 400.212 446.951 399.759 447.629C399.642 447.809 399.516 447.988 399.382 448.166C399.026 448.639 398.611 449.103 398.136 449.561L401.326 452.411C401.493 452.363 401.711 452.276 401.98 452.149C402.248 452.022 402.497 451.87 402.727 451.692C404.051 450.665 404.927 449.373 405.353 447.819C405.78 446.264 405.668 444.331 405.018 442.02C404.348 439.683 403.1 436.917 401.275 433.722C399.43 430.502 396.944 426.718 393.817 422.37L392.995 421.232L401.785 414.415L420.072 437.994L423.665 435.208L402.383 407.769L386.486 420.099L387.603 421.619Z" fill="black"/>
<path d="M450.984 407.625L448.137 411.169L436.903 402.14L434.813 404.741L441.138 419.877L437.775 424.061L431.209 408.298C429.358 409.623 427.423 410.281 425.404 410.272C423.405 410.237 421.413 409.422 419.428 407.826C418.121 406.776 417.159 405.631 416.543 404.391C415.921 403.105 415.584 401.8 415.532 400.476C415.479 399.151 415.674 397.881 416.114 396.663C416.55 395.4 417.182 394.253 418.01 393.223L423.918 385.872L450.984 407.625ZM421.394 396.811C420.909 397.414 420.578 398.058 420.4 398.742C420.197 399.406 420.143 400.066 420.237 400.721C420.331 401.375 420.549 402.005 420.89 402.61C421.231 403.215 421.703 403.76 422.306 404.245C423.512 405.214 424.805 405.613 426.185 405.439C427.54 405.246 428.682 404.571 429.612 403.415L433.096 399.08L424.878 392.476L421.394 396.811Z" fill="black"/>
<path fill-rule="evenodd" clip-rule="evenodd" d="M453.819 407.317L448.446 414.002L437.213 404.973L437.135 405.07L443.461 420.205L437.221 427.968L430.237 411.202C428.702 411.921 427.084 412.295 425.396 412.287L425.383 412.287L425.371 412.286C422.815 412.242 420.404 411.195 418.167 409.397C416.68 408.202 415.51 406.838 414.74 405.288L414.735 405.278L414.73 405.268C413.997 403.752 413.584 402.177 413.52 400.556C413.457 398.982 413.688 397.455 414.216 395.991C414.727 394.517 415.469 393.17 416.441 391.961L423.611 383.039L453.819 407.317ZM416.116 396.663C415.675 397.88 415.481 399.151 415.533 400.476C415.586 401.8 415.923 403.105 416.544 404.391C417.161 405.631 418.122 406.776 419.429 407.826C421.414 409.422 423.407 410.237 425.406 410.272C426.798 410.278 428.15 409.968 429.462 409.34C430.053 409.057 430.636 408.71 431.211 408.298L437.776 424.061L441.139 419.877L434.814 404.741L436.904 402.14L448.138 411.169L450.986 407.625L423.92 385.872L418.012 393.223C417.184 394.253 416.552 395.4 416.116 396.663ZM422.341 399.29L422.328 399.331C422.208 399.726 422.183 400.087 422.233 400.434C422.29 400.829 422.422 401.222 422.646 401.621C422.848 401.978 423.144 402.332 423.57 402.674C424.397 403.339 425.15 403.534 425.919 403.442C426.716 403.324 427.409 402.941 428.042 402.153L430.264 399.389L425.187 395.309L422.966 398.073C422.643 398.475 422.451 398.865 422.352 399.249L422.341 399.29ZM421.395 396.811C420.91 397.414 420.579 398.058 420.401 398.742C420.198 399.406 420.144 400.066 420.238 400.721C420.332 401.375 420.55 402.005 420.891 402.61C421.232 403.215 421.704 403.76 422.307 404.245C423.514 405.214 424.807 405.613 426.187 405.439C427.542 405.246 428.684 404.571 429.613 403.415L433.097 399.08L424.879 392.476L421.395 396.811Z" fill="black"/>
</svg>
