<svg width="586" height="415" viewBox="0 0 586 415" fill="none" xmlns="http://www.w3.org/2000/svg">
<path d="M1 38.9972C1 17.4596 18.4609 0 40 0H547C568.539 0 586 17.4596 586 38.9972V376.003C586 397.54 568.539 415 547 415H40C18.4609 415 1 397.54 1 376.003V38.9972Z" fill="white"/>
<path fill-rule="evenodd" clip-rule="evenodd" d="M547 15.7153H40C27.1408 15.7153 16.7164 26.139 16.7164 38.9972V376.003C16.7164 388.861 27.1408 399.285 40 399.285H547C559.859 399.285 570.284 388.861 570.284 376.003V38.9972C570.284 26.139 559.859 15.7153 547 15.7153ZM40 0C18.4609 0 1 17.4597 1 38.9972V376.003C1 397.54 18.4609 415 40 415H547C568.539 415 586 397.54 586 376.003V38.9972C586 17.4596 568.539 0 547 0H40Z" fill="#8490FF"/>
<path d="M97 99.805H112.108V50H149.373C158.773 50 167.39 51.337 175.224 54.0111C183.169 56.6852 189.996 60.585 195.703 65.7103C201.41 70.7242 205.887 76.9638 209.132 84.429C212.377 91.8941 214 100.418 214 110C214 119.471 212.377 127.939 209.132 135.404C205.887 142.758 201.354 148.997 195.535 154.123C189.716 159.248 182.834 163.203 174.888 165.989C167.055 168.663 158.549 170 149.373 170H112.108V116.685H97V99.805ZM198.053 110C198.053 103.983 196.99 98.3566 194.864 93.1198C192.737 87.883 189.772 83.3148 185.967 79.415C182.274 75.5153 177.798 72.4513 172.538 70.2228C167.278 67.9944 161.515 66.8802 155.248 66.8802H127.887V99.805H157.934V116.685H127.887V153.12H155.248C161.291 153.12 166.887 152.117 172.034 150.111C177.294 147.994 181.826 145.042 185.631 141.253C189.548 137.465 192.57 132.953 194.696 127.716C196.934 122.368 198.053 116.462 198.053 110Z" fill="black"/>
<path d="M392.874 92.6162C387.508 92.6162 382.645 93.6775 378.285 95.8C373.925 97.9225 370.459 100.715 367.888 104.178L363.528 90.9405C366.658 86.5838 370.962 83.0649 376.44 80.3838C381.918 77.7027 388.011 76.3622 394.719 76.3622C401.762 76.3622 407.855 77.591 412.998 80.0487C418.252 82.3946 422.388 85.8018 425.407 90.2703C428.984 86.0252 433.289 82.6739 438.319 80.2162C443.462 77.6469 449.331 76.3622 455.927 76.3622C461.964 76.3622 467.386 77.5351 472.194 79.8811C477.001 82.227 481.081 85.4108 484.435 89.4324C487.901 93.3423 490.528 97.9784 492.317 103.341C494.106 108.591 495 114.177 495 120.097C495 121.885 494.832 123.784 494.497 125.795H430.438C431.22 133.168 434.183 138.697 439.326 142.384C444.468 145.959 451.064 147.746 459.113 147.746C461.797 147.746 464.424 147.411 466.995 146.741C469.566 146.07 471.97 145.232 474.206 144.227C476.554 143.222 478.622 142.049 480.411 140.708C482.199 139.368 483.709 138.027 484.938 136.686L488.963 148.584C488.069 150.483 486.671 152.326 484.771 154.114C482.982 155.901 480.746 157.577 478.063 159.141C475.492 160.593 472.529 161.766 469.175 162.659C465.821 163.553 462.188 164 458.275 164C451.008 164 444.412 162.715 438.487 160.146C432.674 157.465 427.811 153.611 423.898 148.584C420.656 153.387 416.24 157.186 410.65 159.978C405.06 162.659 398.911 164 392.203 164C382.03 164 373.925 161.654 367.888 156.962C361.963 152.27 359 145.568 359 136.854C359 132.497 359.838 128.643 361.515 125.292C363.304 121.941 365.708 119.092 368.726 116.746C371.745 114.4 375.266 112.668 379.291 111.551C383.316 110.323 387.676 109.708 392.371 109.708C394.272 109.708 396.284 109.876 398.408 110.211C400.532 110.434 402.6 110.825 404.613 111.384C406.737 111.942 408.693 112.668 410.482 113.562C412.383 114.344 414.004 115.35 415.345 116.578V112.389C415.345 108.591 414.619 105.463 413.165 103.005C411.824 100.436 410.035 98.4252 407.799 96.973C405.675 95.409 403.271 94.2919 400.588 93.6216C398.017 92.9514 395.446 92.6162 392.874 92.6162ZM415.345 132.33C414.004 129.984 411.321 128.252 407.296 127.135C403.271 125.906 398.967 125.292 394.383 125.292C388.011 125.292 383.036 126.297 379.459 128.308C375.993 130.207 374.26 132.944 374.26 136.519C374.26 139.87 375.937 142.607 379.291 144.73C382.757 146.741 387.788 147.746 394.383 147.746C396.619 147.746 398.799 147.523 400.924 147.076C403.159 146.629 405.228 146.014 407.128 145.232C409.029 144.45 410.706 143.501 412.159 142.384C413.612 141.267 414.674 140.038 415.345 138.697V132.33ZM478.734 110.378C478.51 107.921 477.783 105.631 476.554 103.508C475.324 101.274 473.647 99.3748 471.523 97.8108C469.51 96.1351 467.163 94.8505 464.48 93.9568C461.797 93.0631 458.946 92.6162 455.927 92.6162C452.909 92.6162 449.946 93.0631 447.039 93.9568C444.245 94.8505 441.729 96.0793 439.493 97.6433C437.369 99.2072 435.58 101.106 434.127 103.341C432.674 105.463 431.779 107.809 431.444 110.378H478.734ZM450.896 40L432.45 64.8H418.531L429.432 40H450.896Z" fill="black"/>
<path d="M429.8 335.693V358H415.2V335.693H386V252H401.271V319.424H443.729V252H459V335.693H429.8Z" fill="black"/>
<path d="M192.5 293.838C194.833 299.2 196 305.009 196 311.265C196 317.521 194.833 323.33 192.5 328.692C190.278 334.054 187.222 338.69 183.333 342.6C179.556 346.51 175.111 349.582 170 351.816C165 353.939 159.667 355 154 355C148.333 355 142.944 353.939 137.833 351.816C132.722 349.582 128.222 346.51 124.333 342.6C120.556 338.69 117.556 334.054 115.333 328.692C113.111 323.33 112 317.521 112 311.265C112 305.009 113.111 299.2 115.333 293.838C117.556 288.476 120.556 283.84 124.333 279.93C128.222 276.02 132.722 272.948 137.833 270.714C142.944 268.479 148.333 267.362 154 267.362C159.667 267.362 165 268.479 170 270.714C175.111 272.948 179.556 276.02 183.333 279.93C187.222 283.84 190.278 288.476 192.5 293.838ZM127.167 311.265C127.167 315.398 127.833 319.196 129.167 322.659C130.5 326.011 132.389 328.915 134.833 331.373C137.278 333.719 140.111 335.562 143.333 336.903C146.556 338.132 150.111 338.746 154 338.746C157.778 338.746 161.278 338.132 164.5 336.903C167.833 335.562 170.722 333.719 173.167 331.373C175.611 328.915 177.5 326.011 178.833 322.659C180.167 319.308 180.833 315.566 180.833 311.432C180.833 307.299 180.167 303.557 178.833 300.205C177.5 296.742 175.611 293.782 173.167 291.324C170.722 288.867 167.833 286.968 164.5 285.627C161.278 284.286 157.778 283.616 154 283.616C150.111 283.616 146.556 284.286 143.333 285.627C140.111 286.968 137.278 288.867 134.833 291.324C132.389 293.782 130.5 296.742 129.167 300.205C127.833 303.557 127.167 307.243 127.167 311.265ZM163.5 231L145.167 255.8H132.333L143.167 231H163.5ZM192.167 231L173.833 255.8H161L171.833 231H192.167Z" fill="black"/>
<path d="M281 10H298V405H281V10Z" fill="#8490FF"/>
<path d="M0 208L0 191L574 191V208L0 208Z" fill="#8490FF"/>
</svg>
