<svg width="819" height="643" viewBox="0 0 819 643" fill="none" xmlns="http://www.w3.org/2000/svg">
<rect x="307.5" y="3.5" width="252" height="234" rx="74.5" fill="white" stroke="black" stroke-width="7"/>
<rect x="556.5" y="515.5" width="263" height="223" rx="74.5" transform="rotate(-180 556.5 515.5)" fill="white" stroke="black" stroke-width="7"/>
<path d="M247.943 203.055L353.194 168L355.081 231.831L247.943 203.055Z" fill="white"/>
<path d="M619.294 325.213L508.285 358.668L506.294 297.75L619.294 325.213Z" fill="white"/>
<path fill-rule="evenodd" clip-rule="evenodd" d="M235.101 202.876L360.028 236.429L357.827 162L235.101 202.876ZM253.436 202.334L354.541 229.489L352.76 169.252L253.436 202.334Z" fill="black"/>
<path fill-rule="evenodd" clip-rule="evenodd" d="M632.838 325.384L501.076 293.362L503.397 364.394L632.838 325.384ZM613.5 325.901L506.864 299.986L508.742 357.473L613.5 325.901Z" fill="black"/>
<path d="M313.816 154L396.992 159.5L369.364 233.503L309.634 217.246L313.816 154Z" fill="white"/>
<path d="M549.816 372.029L474.845 367.543L500.404 298.221L554.135 312.935L549.816 372.029Z" fill="white"/>
<path d="M100.5 89.7664C95.1731 90.0381 90.2395 91.2293 85.699 93.34C81.1584 95.4508 77.2475 98.2711 73.9661 101.801C70.6797 105.232 68.1684 109.316 66.4321 114.053C64.6958 118.79 63.9685 123.92 64.2503 129.444L65.4807 153.562L141.829 149.667L140.599 125.549C140.327 120.223 139.188 115.336 137.181 110.889C135.07 106.348 132.252 102.487 128.727 99.304C125.197 96.0226 121.066 93.5631 116.335 91.9255C111.499 90.1942 106.221 89.4745 100.5 89.7664ZM49.5703 135.385C49.1476 127.099 49.9438 119.444 51.959 112.418C53.9691 105.294 57.1145 99.1004 61.3954 93.8382C65.5776 88.581 70.9002 84.3535 77.3633 81.1558C83.8263 77.958 91.2994 76.1427 99.7826 75.7099C108.167 75.2822 115.737 76.33 122.492 78.8535C129.148 81.3819 134.876 85.0951 139.675 89.993C144.474 94.8909 148.285 100.779 151.109 107.656C153.828 114.441 155.395 121.877 155.807 129.966L157.483 162.813L51.2461 168.233L49.5703 135.385Z" fill="black"/>
<path d="M715.32 452.458C717.921 452.607 720.378 452.288 722.693 451.502C725.009 450.717 727.056 449.554 728.834 448.013C730.61 446.52 732.044 444.67 733.136 442.461C734.228 440.253 734.851 437.801 735.005 435.105L735.677 423.332L698.41 421.205L697.738 432.978C697.59 435.578 697.885 438.01 698.626 440.274C699.411 442.59 700.576 444.612 702.12 446.343C703.661 448.122 705.536 449.533 707.747 450.577C710.003 451.672 712.528 452.299 715.32 452.458ZM742.444 432.993C742.213 437.038 741.424 440.712 740.076 444.017C738.725 447.37 736.872 450.21 734.517 452.54C732.211 454.872 729.404 456.644 726.099 457.856C722.793 459.068 719.07 459.556 714.929 459.32C710.836 459.086 707.217 458.179 704.07 456.599C700.972 455.021 698.387 452.917 696.315 450.287C694.243 447.657 692.703 444.598 691.694 441.111C690.731 437.674 690.362 433.982 690.588 430.034L691.503 414L743.359 416.96L742.444 432.993Z" fill="black"/>
<path d="M206.889 174.748C207.018 177.394 206.682 180.029 205.882 182.653C205.147 185.274 203.904 187.655 202.152 189.795C200.466 191.932 198.198 193.7 195.35 195.098C192.567 196.493 189.191 197.287 185.223 197.48L157.247 198.84L156.808 189.813L184.586 188.462C186.702 188.359 188.571 187.937 190.192 187.195C191.813 186.453 193.159 185.493 194.228 184.314C195.298 183.135 196.094 181.77 196.615 180.22C197.136 178.67 197.353 177.002 197.266 175.216C197.189 173.629 196.884 172.119 196.35 170.687C195.816 169.254 195.091 167.964 194.173 166.815C193.321 165.663 192.313 164.685 191.146 163.88C189.984 163.141 188.734 162.671 187.399 162.471L155.554 164.019L155.115 154.992L204.618 152.584L205.043 161.314L199.586 161.58C201.54 162.214 203.201 163.658 204.57 165.912C205.939 168.165 206.712 171.111 206.889 174.748Z" fill="black"/>
<path d="M1.85581 184.49C1.62891 181.851 1.86665 179.205 2.56903 176.553C3.20543 173.907 4.35932 171.481 6.03067 169.277C7.63605 167.079 9.83623 165.228 12.6312 163.725C15.3602 162.228 18.7038 161.309 22.6621 160.969L50.568 158.569L51.3423 167.574L23.6343 169.957C21.5232 170.138 19.6714 170.63 18.0788 171.431C16.4863 172.233 15.1775 173.243 14.1524 174.461C13.1273 175.679 12.3831 177.072 11.9198 178.64C11.4565 180.209 11.3015 181.883 11.4546 183.665C11.5908 185.248 11.9521 186.745 12.5387 188.157C13.1253 189.569 13.8985 190.831 14.8582 191.945C15.752 193.065 16.7965 194.005 17.9917 194.766C19.1813 195.461 20.4472 195.884 21.7893 196.035L53.5545 193.303L54.3288 202.308L4.9492 206.554L4.20045 197.846L9.64309 197.378C7.66752 196.817 5.95375 195.436 4.50176 193.234C3.04977 191.033 2.16779 188.118 1.85581 184.49Z" fill="black"/>
<path d="M100.21 212.99C101.405 215.621 102.002 218.472 102.002 221.541C102.002 224.611 101.405 227.461 100.21 230.092C99.0727 232.723 97.5086 234.997 95.5178 236.916C93.584 238.834 91.3088 240.342 88.6924 241.438C86.1329 242.479 83.4027 243 80.502 243C77.6012 243 74.8426 242.479 72.2262 241.438C69.6098 240.342 67.3062 238.834 65.3154 236.916C63.3816 234.997 61.8459 232.723 60.7083 230.092C59.5707 227.461 59.002 224.611 59.002 221.541C59.002 218.472 59.5707 215.621 60.7083 212.99C61.8459 210.359 63.3816 208.085 65.3154 206.166C67.3062 204.248 69.6098 202.741 72.2262 201.644C74.8426 200.548 77.6012 200 80.502 200C83.4027 200 86.1329 200.548 88.6924 201.644C91.3088 202.741 93.584 204.248 95.5178 206.166C97.5086 208.085 99.0727 210.359 100.21 212.99ZM66.7658 221.541C66.7658 223.569 67.1071 225.433 67.7897 227.132C68.4722 228.776 69.4391 230.201 70.6904 231.407C71.9418 232.558 73.3922 233.463 75.0416 234.12C76.6911 234.723 78.5112 235.025 80.502 235.025C82.4358 235.025 84.2275 234.723 85.8769 234.12C87.5833 233.463 89.0621 232.558 90.3135 231.407C91.5648 230.201 92.5317 228.776 93.2143 227.132C93.8968 225.488 94.2381 223.651 94.2381 221.623C94.2381 219.595 93.8968 217.759 93.2143 216.115C92.5317 214.416 91.5648 212.963 90.3135 211.757C89.0621 210.551 87.5833 209.62 85.8769 208.962C84.2275 208.304 82.4358 207.975 80.502 207.975C78.5112 207.975 76.6911 208.304 75.0416 208.962C73.3922 209.62 71.9418 210.551 70.6904 211.757C69.4391 212.963 68.4722 214.416 67.7897 216.115C67.1071 217.759 66.7658 219.568 66.7658 221.541Z" fill="black"/>
<path d="M156.252 204.293C157.419 206.985 158.002 209.901 158.002 213.042C158.002 216.183 157.419 219.099 156.252 221.792C155.141 224.484 153.613 226.811 151.669 228.774C149.78 230.737 147.558 232.28 145.002 233.402C142.502 234.467 139.835 235 137.002 235C134.169 235 131.474 234.467 128.919 233.402C126.363 232.28 124.113 230.737 122.169 228.774C120.28 226.811 118.78 224.484 117.669 221.792C116.558 219.099 116.002 216.183 116.002 213.042C116.002 209.901 116.558 206.985 117.669 204.293C118.78 201.6 120.28 199.273 122.169 197.31C124.113 195.347 126.363 193.804 128.919 192.683C131.474 191.561 134.169 191 137.002 191C139.835 191 142.502 191.561 145.002 192.683C147.558 193.804 149.78 195.347 151.669 197.31C153.613 199.273 155.141 201.6 156.252 204.293ZM123.585 213.042C123.585 215.117 123.919 217.024 124.585 218.763C125.252 220.446 126.196 221.904 127.419 223.138C128.641 224.315 130.058 225.241 131.669 225.914C133.28 226.531 135.058 226.839 137.002 226.839C138.891 226.839 140.641 226.531 142.252 225.914C143.919 225.241 145.363 224.315 146.585 223.138C147.808 221.904 148.752 220.446 149.419 218.763C150.085 217.08 150.419 215.201 150.419 213.126C150.419 211.051 150.085 209.172 149.419 207.489C148.752 205.751 147.808 204.264 146.585 203.031C145.363 201.797 143.919 200.843 142.252 200.17C140.641 199.497 138.891 199.161 137.002 199.161C135.058 199.161 133.28 199.497 131.669 200.17C130.058 200.843 128.641 201.797 127.419 203.031C126.196 204.264 125.252 205.751 124.585 207.489C123.919 209.172 123.585 211.023 123.585 213.042Z" fill="black"/>
<path d="M73.2163 185.475C72.6883 184.529 72.3961 183.387 72.3398 182.047C72.3698 180.707 73.0268 179.382 74.3107 178.073C75.5946 176.764 77.1009 176.1 78.8297 176.083C80.6022 176.109 82.1431 176.764 83.4525 178.048C84.7618 179.332 85.4468 180.86 85.5074 182.631C85.568 184.403 84.9136 185.987 83.5441 187.384C82.4314 188.518 81.2721 189.308 80.0662 189.752C78.8603 190.196 77.5893 190.619 76.2533 191.021L64.4872 194.508L60.2973 190.4L73.2163 185.475Z" fill="black"/>
<path d="M140.539 179.295C140.133 180.225 139.473 181.086 138.56 181.88C137.603 182.609 136.351 182.855 134.803 182.618C133.254 182.382 132.051 181.615 131.193 180.317C130.344 178.962 130.05 177.43 130.311 175.72C130.572 174.01 131.31 172.636 132.525 171.596C133.74 170.557 135.174 170.164 136.825 170.416C138.167 170.621 139.289 171.055 140.191 171.718C141.094 172.38 142.013 173.104 142.949 173.889L151.158 180.83L150.322 186.302L140.539 179.295Z" fill="black"/>
<path d="M685.547 353.656C684.983 355.628 683.893 357.532 682.277 359.368C680.557 361.086 678.113 361.917 674.947 361.86C671.781 361.803 669.163 360.59 667.095 358.221C665.028 355.735 664.026 352.744 664.089 349.247C664.152 345.751 665.26 342.797 667.415 340.388C669.57 337.978 672.336 336.803 675.713 336.864C678.457 336.914 680.823 337.481 682.809 338.566C684.795 339.651 686.832 340.853 688.92 342.173L707.238 353.871L707.037 365.06L685.547 353.656Z" fill="black"/>
<path d="M749.341 351.039C748.572 352.941 747.287 354.718 745.485 356.373C743.592 357.899 741.075 358.466 737.932 358.074C734.79 357.682 732.316 356.198 730.51 353.623C728.718 350.933 728.038 347.852 728.472 344.382C728.905 340.912 730.32 338.093 732.718 335.925C735.116 333.757 737.991 332.882 741.343 333.3C744.066 333.64 746.358 334.455 748.218 335.744C750.079 337.034 751.977 338.445 753.913 339.979L770.888 353.552L769.502 364.657L749.341 351.039Z" fill="black"/>
<path d="M96.002 226.839C95.7857 227.251 95.4479 227.651 94.9884 228.038C94.556 228.402 94.0155 228.728 93.3668 229.019C92.7182 229.31 91.9749 229.54 91.1371 229.709C90.3263 229.903 89.4479 230 88.502 230C87.1236 230 85.7993 229.77 84.529 229.31C83.2587 228.85 82.1371 228.208 81.1641 227.384C80.2182 226.537 79.4479 225.532 78.8533 224.369C78.2857 223.207 78.002 221.911 78.002 220.482C78.002 219.077 78.2857 217.793 78.8533 216.631C79.4479 215.444 80.2182 214.439 81.1641 213.616C82.1371 212.792 83.2587 212.15 84.529 211.69C85.7993 211.23 87.1236 211 88.502 211C89.4209 211 90.2722 211.085 91.056 211.254C91.8668 211.424 92.583 211.654 93.2047 211.945C93.8533 212.235 94.3938 212.562 94.8263 212.925C95.2857 213.289 95.6236 213.664 95.8398 214.052L94.8668 216.667C94.2993 216.086 93.502 215.59 92.4749 215.178C91.4479 214.742 90.3533 214.524 89.1911 214.524C86.9209 214.524 85.0965 215.069 83.7182 216.159C82.3668 217.224 81.6911 218.665 81.6911 220.482C81.6911 221.378 81.8668 222.201 82.2182 222.952C82.5965 223.679 83.1101 224.308 83.7587 224.841C84.4074 225.35 85.1911 225.75 86.1101 226.04C87.029 226.331 88.056 226.476 89.1911 226.476C90.4344 226.476 91.5695 226.258 92.5965 225.822C93.6236 225.362 94.4209 224.841 94.9884 224.26L96.002 226.839Z" fill="black"/>
<path d="M152.002 219.006C151.81 219.396 151.509 219.774 151.101 220.141C150.717 220.486 150.236 220.795 149.66 221.071C149.083 221.346 148.422 221.564 147.678 221.725C146.957 221.908 146.176 222 145.335 222C144.11 222 142.933 221.782 141.804 221.346C140.675 220.91 139.678 220.302 138.813 219.522C137.972 218.719 137.287 217.767 136.759 216.665C136.254 215.564 136.002 214.337 136.002 212.983C136.002 211.652 136.254 210.436 136.759 209.335C137.287 208.21 137.972 207.258 138.813 206.478C139.678 205.698 140.675 205.09 141.804 204.654C142.933 204.218 144.11 204 145.335 204C146.152 204 146.909 204.08 147.606 204.241C148.326 204.402 148.963 204.62 149.515 204.895C150.092 205.17 150.573 205.48 150.957 205.824C151.365 206.168 151.666 206.524 151.858 206.891L150.993 209.369C150.488 208.818 149.78 208.348 148.867 207.958C147.954 207.545 146.981 207.338 145.948 207.338C143.93 207.338 142.308 207.855 141.083 208.887C139.882 209.897 139.281 211.262 139.281 212.983C139.281 213.832 139.437 214.612 139.75 215.323C140.086 216.011 140.542 216.608 141.119 217.113C141.696 217.595 142.392 217.973 143.209 218.249C144.026 218.524 144.939 218.662 145.948 218.662C147.053 218.662 148.062 218.455 148.975 218.042C149.888 217.606 150.597 217.113 151.101 216.562L152.002 219.006Z" fill="black"/>
<path d="M49.8215 245.923C49.6423 246.587 49.3021 247.259 48.8008 247.939C48.3287 248.576 47.7071 249.183 46.9361 249.758C46.165 250.332 45.2561 250.837 44.2093 251.27C43.2036 251.735 42.0861 252.068 40.8569 252.27C39.0659 252.566 37.2881 252.504 35.5238 252.085C33.7595 251.667 32.1434 250.944 30.6756 249.917C29.2369 248.847 27.9876 247.504 26.9277 245.887C25.9029 244.265 25.2139 242.381 24.8608 240.238C24.5137 238.13 24.5652 236.144 25.0154 234.278C25.4948 232.37 26.2473 230.697 27.273 229.259C28.3338 227.816 29.6326 226.613 31.1695 225.65C32.7064 224.688 34.3704 224.059 36.1615 223.764C37.3556 223.568 38.4828 223.513 39.5431 223.599C40.6386 223.68 41.6261 223.872 42.5057 224.175C43.4204 224.472 44.2036 224.847 44.8553 225.3C45.5421 225.746 46.0739 226.237 46.4506 226.772L45.8327 230.905C44.9515 230.154 43.7928 229.58 42.3565 229.182C40.9142 228.748 39.438 228.655 37.9279 228.904C34.9779 229.39 32.742 230.598 31.2202 232.528C29.7276 234.416 29.2057 236.723 29.6546 239.448C29.8761 240.792 30.3079 241.99 30.95 243.042C31.6212 244.051 32.4441 244.885 33.4186 245.546C34.3872 246.17 35.5044 246.602 36.7703 246.841C38.0362 247.081 39.4066 247.079 40.8816 246.836C42.4971 246.57 43.9183 246 45.1451 245.126C46.3659 244.216 47.2733 243.264 47.8671 242.27L49.8215 245.923Z" fill="black"/>
<path d="M172.365 230.98C172.727 231.555 173.234 232.087 173.884 232.577C174.495 233.036 175.228 233.42 176.082 233.727C176.936 234.034 177.889 234.231 178.942 234.319C179.967 234.449 181.051 234.42 182.192 234.232C183.854 233.958 185.394 233.35 186.813 232.407C188.231 231.464 189.425 230.278 190.395 228.85C191.327 227.39 192.007 225.729 192.437 223.867C192.834 222.01 192.857 220.009 192.503 217.866C192.156 215.758 191.497 213.889 190.525 212.257C189.515 210.595 188.337 209.24 186.993 208.192C185.616 207.15 184.104 206.41 182.459 205.972C180.813 205.534 179.159 205.452 177.496 205.726C176.388 205.908 175.382 206.205 174.479 206.615C173.543 207.03 172.736 207.518 172.058 208.077C171.347 208.642 170.776 209.24 170.344 209.871C169.88 210.507 169.565 211.138 169.4 211.762L171.22 215.493C171.761 214.508 172.6 213.605 173.737 212.783C174.868 211.925 176.134 211.381 177.536 211.15C180.274 210.699 182.609 211.154 184.541 212.515C186.434 213.845 187.605 215.873 188.054 218.599C188.275 219.943 188.267 221.213 188.029 222.41C187.752 223.575 187.288 224.622 186.638 225.55C185.981 226.442 185.134 227.197 184.098 227.816C183.061 228.434 181.859 228.856 180.49 229.082C178.99 229.329 177.567 229.227 176.221 228.777C174.868 228.291 173.778 227.668 172.95 226.909L172.365 230.98Z" fill="black"/>
<path d="M93.2925 252.011L96.5707 257.825L60.5224 278.151C53.7593 281.965 48.9368 281.316 46.0549 276.205C45.5506 275.311 45.1896 274.223 44.972 272.943C44.7119 271.686 44.7697 270.446 45.1456 269.224L50.5658 266.757C50.4471 267.442 50.4496 268.142 50.5731 268.858C50.6542 269.598 50.8388 270.224 51.127 270.735C51.9675 272.226 52.9998 272.963 54.2238 272.946C55.4292 272.996 56.8826 272.542 58.584 271.582L93.2925 252.011ZM102.872 244.841C104.063 244.17 105.291 244.011 106.555 244.364C107.886 244.737 108.876 245.498 109.524 246.648C110.197 247.84 110.336 249.081 109.941 250.37C109.614 251.677 108.854 252.667 107.663 253.338C106.515 253.986 105.275 254.124 103.944 253.752C102.68 253.398 101.711 252.625 101.039 251.432C100.39 250.282 100.23 249.054 100.558 247.746C100.952 246.457 101.724 245.489 102.872 244.841Z" fill="black"/>
<path d="M778.434 534.72L793.532 538.315L774.411 618.611C770.823 633.675 762.393 639.627 749.119 636.466C746.796 635.913 744.354 634.881 741.792 633.369C739.207 631.953 737.133 630.108 735.571 627.833L739.474 616.598C740.487 617.741 741.712 618.733 743.148 619.576C744.561 620.513 745.931 621.14 747.259 621.456C751.13 622.378 753.978 621.955 755.801 620.186C757.713 618.539 759.12 615.821 760.023 612.031L778.434 534.72ZM780.432 510.867C781.064 508.215 782.645 506.238 785.175 504.939C787.839 503.571 790.664 503.242 793.65 503.953C796.747 504.691 799.121 506.257 800.771 508.653C802.555 510.98 803.131 513.47 802.499 516.122C801.89 518.681 800.254 520.644 797.59 522.012C795.06 523.311 792.246 523.592 789.149 522.855C786.162 522.144 783.777 520.625 781.994 518.298C780.343 515.902 779.823 513.425 780.432 510.867Z" fill="black"/>
<path d="M133.329 248.952L131.363 255.921L170.026 266.832C177.279 268.879 181.771 266.839 183.5 260.712C183.802 259.64 183.928 258.408 183.878 257.016C183.873 255.636 183.567 254.365 182.96 253.201L177.265 252.173C177.517 252.851 177.657 253.579 177.683 254.358C177.755 255.15 177.705 255.852 177.532 256.465C177.028 258.252 176.187 259.31 175.011 259.64C173.865 260.033 172.38 259.972 170.555 259.457L133.329 248.952ZM122.697 244.215C121.42 243.855 120.211 244.037 119.071 244.763C117.87 245.526 117.075 246.597 116.686 247.976C116.283 249.405 116.4 250.734 117.039 251.962C117.618 253.227 118.546 254.04 119.823 254.401C121.055 254.748 122.271 254.54 123.472 253.777C124.612 253.051 125.384 251.974 125.788 250.544C126.177 249.166 126.082 247.844 125.503 246.578C124.864 245.351 123.929 244.563 122.697 244.215Z" fill="black"/>
<path d="M658.304 534.321L642.715 534.933L645.996 618.435C646.612 634.1 653.772 641.664 667.476 641.126C669.874 641.031 672.483 640.485 675.303 639.486C678.127 638.585 680.53 637.159 682.512 635.206L680.843 623.282C679.622 624.218 678.221 624.964 676.642 625.52C675.066 626.174 673.593 626.527 672.223 626.581C668.226 626.738 665.499 625.76 664.044 623.646C662.478 621.635 661.618 618.66 661.463 614.719L658.304 534.321ZM660.96 510.237C660.852 507.478 659.676 505.206 657.433 503.419C655.071 501.538 652.349 500.658 649.265 500.779C646.068 500.905 643.423 501.996 641.33 504.052C639.12 506.013 638.069 508.374 638.177 511.132C638.282 513.793 639.515 516.063 641.876 517.944C644.12 519.731 646.84 520.561 650.038 520.436C653.121 520.314 655.768 519.273 657.979 517.311C660.071 515.255 661.065 512.897 660.96 510.237Z" fill="black"/>
<path d="M108.371 297.721C107.591 297.476 106.805 297.033 106.014 296.394C105.272 295.792 104.572 295.008 103.913 294.043C103.253 293.077 102.681 291.946 102.197 290.65C101.675 289.402 101.311 288.023 101.105 286.512C100.804 284.311 100.926 282.14 101.469 279.999C102.013 277.859 102.912 275.912 104.168 274.158C105.472 272.441 107.096 270.966 109.038 269.734C110.986 268.545 113.233 267.777 115.78 267.429C118.283 267.088 120.633 267.229 122.828 267.853C125.073 268.514 127.032 269.499 128.705 270.81C130.385 272.164 131.773 273.799 132.87 275.715C133.967 277.632 134.665 279.691 134.965 281.892C135.166 283.36 135.2 284.74 135.069 286.033C134.943 287.369 134.689 288.569 134.307 289.632C133.93 290.739 133.465 291.682 132.912 292.461C132.365 293.283 131.769 293.913 131.126 294.353L126.252 293.435C127.164 292.387 127.876 290.993 128.386 289.253C128.939 287.507 129.089 285.706 128.835 283.85C128.341 280.224 126.972 277.443 124.73 275.507C122.536 273.608 119.821 272.879 116.584 273.321C114.987 273.539 113.557 274.02 112.296 274.763C111.083 275.544 110.073 276.517 109.265 277.683C108.5 278.842 107.958 280.191 107.641 281.729C107.323 283.268 107.288 284.943 107.535 286.756C107.806 288.741 108.442 290.501 109.442 292.035C110.486 293.564 111.588 294.71 112.747 295.475L108.371 297.721Z" fill="black"/>
<path d="M179.109 298.85L177.331 305.459L118.078 289.512L119.857 282.903L179.109 298.85Z" fill="black"/>
<path d="M174.874 301.773C173.715 301.08 172.687 300.202 171.789 299.139C170.938 298.063 170.305 296.853 169.889 295.51C169.519 294.155 169.443 292.67 169.66 291.057C169.895 289.414 170.548 287.697 171.619 285.905L179.17 273.273L183.124 275.636L175.627 288.179C174.467 290.12 174.081 291.916 174.47 293.567C174.906 295.206 175.907 296.493 177.471 297.428C178.166 297.843 178.895 298.137 179.657 298.309C180.419 298.481 181.154 298.535 181.86 298.471C182.614 298.394 183.316 298.206 183.967 297.906C184.647 297.623 185.224 297.218 185.697 296.69L194.291 282.311L198.245 284.674L184.885 307.027L181.061 304.742L182.534 302.278C181.697 302.953 180.603 303.272 179.25 303.233C177.926 303.212 176.467 302.725 174.874 301.773Z" fill="black"/>
<path d="M625.198 460.558C625.819 457.65 626.92 454.882 628.5 452.254C630.14 449.716 632.213 447.535 634.719 445.714C637.283 443.981 640.325 442.768 643.844 442.076C647.437 441.399 651.482 441.541 655.98 442.502L687.688 449.277L685.567 459.202L654.084 452.475C649.212 451.434 645.192 451.905 642.025 453.89C638.917 455.963 636.943 458.962 636.104 462.889C635.731 464.634 635.636 466.362 635.819 468.074C636.002 469.786 636.411 471.356 637.047 472.784C637.741 474.301 638.633 475.632 639.721 476.777C640.793 477.994 642.048 478.909 643.485 479.52L679.577 487.232L677.456 497.157L621.35 485.168L623.401 475.57L629.585 476.892C627.582 475.628 626.14 473.571 625.26 470.722C624.364 467.945 624.343 464.557 625.198 460.558Z" fill="black"/>
<path d="M809.028 462.093C809.691 464.992 809.859 467.966 809.534 471.015C809.117 474.009 808.156 476.859 806.652 479.567C805.057 482.22 802.81 484.602 799.911 486.713C796.938 488.842 793.209 490.418 788.726 491.443L757.117 498.665L754.857 488.77L786.241 481.6C791.098 480.49 794.545 478.368 796.581 475.233C798.525 472.043 799.05 468.491 798.156 464.577C797.758 462.838 797.116 461.23 796.228 459.755C795.341 458.28 794.308 457.029 793.13 456.001C791.86 454.919 790.491 454.087 789.022 453.508C787.536 452.856 786.013 452.556 784.452 452.607L748.472 460.828L746.212 450.934L802.143 438.154L804.33 447.722L798.165 449.131C800.514 449.433 802.688 450.69 804.688 452.903C806.671 455.043 808.117 458.106 809.028 462.093Z" fill="black"/>
<path d="M31.9715 367.162C29.0601 366.986 26.1099 365.903 23.1206 363.913C20.221 361.881 17.8377 358.848 15.9706 354.815C9.74697 341.37 14.2091 331.142 29.357 324.13L62.2969 308.882L56.6957 296.781L60.4602 295.039L96.1999 303.473L97.9425 307.238L81.002 315.08L91.8933 338.608L78.8518 344.645L67.9604 321.116L37.1717 335.369C32.8693 337.36 30.2367 339.667 29.2739 342.29C28.3111 344.912 28.6595 348.016 30.3191 351.601C31.4808 354.111 32.9488 355.989 34.7231 357.236C36.5389 358.572 38.4543 359.536 40.4693 360.127L31.9715 367.162Z" fill="black"/>
<path d="M214.544 380.849C217.559 380.546 220.543 379.329 223.495 377.198C226.351 375.029 228.59 371.875 230.213 367.737C235.621 353.944 230.166 343.848 213.848 337.45L178.364 323.537L183.231 311.123L179.176 309.533L142.659 319.562L141.145 323.424L159.394 330.58L149.929 354.718L163.978 360.226L173.442 336.088L206.609 349.093C211.244 350.91 214.166 353.117 215.376 355.713C216.586 358.31 216.47 361.447 215.028 365.125C214.018 367.7 212.64 369.652 210.893 370.983C209.11 372.406 207.193 373.458 205.144 374.139L214.544 380.849Z" fill="black"/>
<path d="M692.512 560.813C694.061 563.418 696.425 565.607 699.604 567.382C702.777 569.054 706.582 569.75 711.017 569.472C725.804 568.543 732.648 559.333 731.55 541.84L729.162 503.8L742.47 502.965L742.197 498.618L717.674 469.761L713.534 470.021L714.761 489.584L688.885 491.209L689.831 506.269L715.707 504.645L717.938 540.2C718.25 545.169 717.485 548.75 715.644 550.944C713.802 553.138 710.91 554.358 706.967 554.606C704.207 554.779 701.855 554.355 699.91 553.334C697.867 552.319 696.104 551.027 694.62 549.458L692.512 560.813Z" fill="black"/>
<path d="M106.414 317.658L105.485 311.498L121.664 319.633L133.173 308.393L134.093 314.497L126.313 322.025L135.975 326.98L136.912 333.194L122.546 325.855L109.556 338.5L108.644 332.451L117.833 323.416L106.414 317.658Z" fill="black"/>
<path d="M139.102 360.52L114.101 363.569L113.542 358.986L133.683 356.53L132.111 343.636L111.97 346.092L111.411 341.509L136.412 338.461L139.102 360.52Z" fill="black"/>
<path d="M138.683 392.812L113.633 390.194L114.113 385.602L134.293 387.711L135.643 374.792L115.462 372.684L115.942 368.092L140.992 370.709L138.683 392.812Z" fill="black"/>
<path d="M136.46 421.702L111.41 419.085L111.89 414.493L132.07 416.601L133.42 403.683L113.24 401.574L113.72 396.982L138.77 399.599L136.46 421.702Z" fill="black"/>
<path d="M139.198 445.121L114.293 448.874L113.605 444.308L133.669 441.285L131.733 428.441L111.669 431.464L110.982 426.899L135.887 423.146L139.198 445.121Z" fill="black"/>
<path d="M12.2122 358.901L18.4266 381.162C20.0133 386.846 22.4847 390.495 25.841 392.111C29.2545 393.626 33.6961 393.62 39.1657 392.093C41.9401 391.318 44.3138 390.485 46.2866 389.594C48.3387 388.681 50.3864 387.599 52.4297 386.348L42.4138 350.47L53.5908 347.35L77.3247 432.366L66.1477 435.487L55.8344 398.544C53.452 399.804 50.997 400.958 48.4692 402.004C46.0208 403.028 43.33 403.949 40.3971 404.768C36.9092 405.741 33.4983 406.226 30.1644 406.22C26.9098 406.193 23.84 405.603 20.955 404.452C18.1273 403.199 15.643 401.34 13.5021 398.874C11.3391 396.33 9.6847 393.005 8.53877 388.9L1.03516 362.022L12.2122 358.901Z" fill="black"/>
<path d="M46.0957 428.835L54.7281 430.177L50.2477 458.987L81.3602 434.319L92.7476 436.09L58.2889 463.527L85.625 502.453L73.5028 500.568L49.1205 466.236L44.4831 496.055L35.8507 494.713L46.0957 428.835Z" fill="black"/>
<path d="M175.117 435.233L187.607 358.461L201.542 360.728L197.812 383.652L213.43 386.193C217.514 386.858 221.182 388.139 224.436 390.037C227.792 391.952 230.546 394.347 232.697 397.224C234.968 400.015 236.55 403.168 237.445 406.683C238.443 410.214 238.624 413.928 237.99 417.826C237.339 421.826 235.981 425.343 233.916 428.376C231.851 431.409 229.291 433.94 226.236 435.97C223.3 437.914 219.938 439.262 216.148 440.014C212.375 440.663 208.498 440.664 204.516 440.016L175.117 435.233ZM208.935 425.417C212.814 426.048 216.111 425.426 218.826 423.552C221.558 421.575 223.216 418.791 223.8 415.201C224.384 411.611 223.567 408.583 221.348 406.117C219.249 403.564 216.413 401.997 212.84 401.416L195.384 398.576L191.479 422.577L208.935 425.417Z" fill="black"/>
<path d="M208.916 486.557C210.382 486.304 211.786 485.872 213.127 485.26C214.468 484.649 215.702 483.961 216.828 483.198C218.015 482.423 219.034 481.583 219.884 480.677C220.734 479.771 221.431 478.892 221.976 478.039L225.305 484.199C224.997 485.328 224.408 486.473 223.54 487.635C222.732 488.786 221.67 489.919 220.352 491.032C219.085 492.073 217.578 492.998 215.831 493.805C214.083 494.613 212.14 495.202 210.002 495.572C206.581 496.163 203.31 496.159 200.187 495.56C197.114 494.89 194.334 493.726 191.845 492.069C189.408 490.34 187.323 488.107 185.592 485.37C183.912 482.562 182.753 479.315 182.116 475.63C181.564 472.437 181.558 469.307 182.098 466.242C182.627 463.114 183.678 460.277 185.25 457.728C186.823 455.179 188.872 453.023 191.398 451.258C193.913 449.432 196.912 448.218 200.394 447.616C203.692 447.046 206.766 447.179 209.616 448.015C212.465 448.851 214.997 450.216 217.212 452.11C219.477 453.932 221.353 456.232 222.84 459.011C224.316 461.729 225.335 464.715 225.897 467.969C226.067 468.952 226.156 470.012 226.164 471.149L191.163 477.198C192.291 481.177 194.435 483.937 197.595 485.478C200.744 486.957 204.518 487.317 208.916 486.557ZM216.086 464.163C215.731 462.833 215.116 461.642 214.243 460.592C213.358 459.48 212.262 458.594 210.953 457.935C209.694 457.204 208.289 456.719 206.738 456.481C205.187 456.243 203.587 456.267 201.938 456.552C200.289 456.837 198.712 457.362 197.209 458.128C195.767 458.883 194.509 459.796 193.436 460.867C192.424 461.927 191.627 463.14 191.045 464.506C190.453 465.81 190.187 467.184 190.248 468.628L216.086 464.163Z" fill="black"/>
<path d="M104.204 511.231L98.0762 461.979L107.016 460.867L111.953 500.545L130.52 498.234L125.583 458.556L134.523 457.444L139.46 497.122L158.027 494.812L153.09 455.134L162.03 454.021L168.159 503.273L104.204 511.231Z" fill="black"/>
<path d="M746.618 398.082L752.768 389.277L742.518 385.783L744.499 380.053L754.545 383.337V372.506H760.354V383.337L770.536 379.983L772.518 385.783L762.199 389.277L768.417 398.012L763.839 401.506L757.483 392.631L751.196 401.436L746.618 398.082Z" fill="black"/>
<path d="M664.071 397.554L669.401 389.964L660.518 386.952L662.235 382.012L670.941 384.843V375.506H675.975V384.843L684.8 381.952L686.518 386.952L677.575 389.964L682.964 397.494L678.996 400.506L673.488 392.855L668.039 400.446L664.071 397.554Z" fill="black"/>
<path d="M726.906 402.973L726.258 408.353L703.092 405.56L703.605 401.299C705.531 400.63 707.186 399.515 708.568 397.952C709.986 396.394 710.813 394.638 711.049 392.685C711.143 391.904 711.155 391.202 711.085 390.582L705.039 389.853L705.662 384.686L709.996 385.208C709.674 383.98 709.387 382.757 709.136 381.538C708.885 380.318 708.838 379.052 708.997 377.738C709.399 374.4 710.661 371.886 712.783 370.196C714.94 368.511 717.677 367.868 720.994 368.268C722.1 368.401 723.115 368.685 724.039 369.121C724.999 369.561 725.84 370.095 726.56 370.722C727.281 371.349 727.866 372.05 728.315 372.825C728.8 373.604 729.138 374.402 729.329 375.217L726.686 378.682C726.137 377.534 725.379 376.47 724.412 375.489C723.444 374.508 722.087 373.912 720.339 373.701C718.484 373.477 717.016 373.805 715.933 374.683C714.854 375.526 714.221 376.728 714.032 378.291C713.891 379.463 713.942 380.694 714.184 381.984C714.467 383.243 714.783 384.524 715.132 385.827L722.89 386.762L722.267 391.929L716.114 391.188C716.184 391.809 716.174 392.492 716.084 393.238C715.87 395.013 715.376 396.557 714.603 397.869C713.83 399.181 712.83 400.267 711.605 401.128L726.906 402.973Z" fill="black"/>
<path d="M802.054 383.547C804.774 383.245 806.774 382.528 808.051 381.395C809.38 380.257 809.97 379.017 809.822 377.678C809.668 376.286 808.929 375.246 807.605 374.558C806.327 373.813 804.533 373.569 802.223 373.825L797.141 374.388L796.31 366.89L800.699 366.403C802.701 366.181 804.204 365.676 805.208 364.886C806.206 364.045 806.623 362.878 806.457 361.383C806.326 360.198 805.629 359.31 804.369 358.719C803.154 358.072 801.571 357.856 799.62 358.072C797.823 358.271 796.063 358.805 794.341 359.674C792.618 360.543 790.976 361.899 789.413 363.742L786.939 358.304C788.074 356.352 789.68 354.661 791.756 353.231C793.878 351.744 796.427 350.836 799.405 350.506C801.304 350.295 803.078 350.359 804.727 350.698C806.376 351.037 807.816 351.608 809.048 352.41C810.28 353.213 811.279 354.25 812.043 355.521C812.854 356.736 813.35 358.167 813.533 359.817C813.744 361.723 813.519 363.444 812.858 364.978C812.247 366.506 811.286 367.682 809.975 368.505C814.264 369.699 816.675 372.693 817.206 377.485C817.406 379.289 817.175 380.958 816.514 382.492C815.852 384.026 814.86 385.388 813.537 386.578C812.265 387.762 810.736 388.74 808.951 389.512C807.165 390.283 805.272 390.78 803.27 391.002C800.189 391.343 797.406 391.078 794.918 390.206C792.483 389.328 790.403 387.916 788.68 385.968L789.894 380.043C792.867 382.948 796.92 384.116 802.054 383.547Z" fill="black"/>
<path d="M640.929 378.251C638.5 378.011 636.715 377.34 635.575 376.238C634.388 375.131 633.861 373.906 633.994 372.565C634.131 371.172 634.79 370.117 635.972 369.4C637.112 368.626 638.714 368.341 640.776 368.545L645.313 368.993L646.053 361.485L642.135 361.098C640.348 360.922 639.006 360.451 638.11 359.685C637.219 358.868 636.847 357.711 636.995 356.215C637.112 355.028 637.733 354.125 638.858 353.507C639.943 352.832 641.356 352.581 643.097 352.753C644.701 352.911 646.272 353.405 647.81 354.234C649.347 355.063 650.814 356.38 652.209 358.185L654.416 352.697C653.403 350.774 651.97 349.122 650.116 347.74C648.222 346.303 645.946 345.453 643.288 345.191C641.592 345.024 640.009 345.128 638.537 345.504C637.066 345.88 635.78 346.482 634.68 347.312C633.581 348.141 632.69 349.199 632.007 350.487C631.284 351.718 630.841 353.159 630.679 354.81C630.49 356.719 630.691 358.432 631.282 359.949C631.827 361.462 632.685 362.615 633.856 363.408C630.027 364.697 627.876 367.741 627.402 372.54C627.224 374.346 627.43 376.007 628.021 377.524C628.612 379.042 629.498 380.379 630.679 381.538C631.815 382.692 633.179 383.634 634.773 384.365C636.367 385.095 638.057 385.548 639.844 385.725C642.594 385.996 645.079 385.668 647.299 384.741C649.473 383.809 651.329 382.351 652.866 380.366L651.782 374.476C649.129 377.445 645.511 378.703 640.929 378.251Z" fill="black"/>
<path d="M763.441 309.964L748.805 309.144L723.997 225.219L690.258 305.866L675.337 305.03L717.714 205.053L732.493 205.881L763.441 309.964Z" fill="black"/>
<path d="M794.371 331.519L649.008 327.096L649.839 299.782L665.576 300.26L665.139 314.629L779.028 318.094L779.466 303.726L795.202 304.205L794.371 331.519Z" fill="black"/>
<path d="M705.568 623.165L684.518 570.165H694.73L710.465 610.632L726.201 570.165H736.518L715.467 623.165H705.568Z" fill="black"/>
<path d="M341.81 43.46H344.93L349.91 54.65L354.41 43.46H357.56L348.95 65H345.77L348.44 58.31L341.81 43.46ZM360.6 65H357.24L362.88 57.05L357.81 50.03H361.14L364.53 54.77L367.95 50.03H371.34L366.27 57.08L371.97 65H368.67L364.59 59.39L360.6 65ZM393.002 52.94H388.022V65H385.292V52.94H380.312V50.03H393.002V52.94ZM409.927 50.03H412.657V65H409.927V50.03ZM396.517 65V50.03H399.247V54.5H402.007C402.807 54.5 403.547 54.63 404.227 54.89C404.927 55.15 405.527 55.52 406.027 56C406.547 56.46 406.947 57.01 407.227 57.65C407.527 58.29 407.677 58.99 407.677 59.75C407.677 60.53 407.527 61.24 407.227 61.88C406.927 62.52 406.517 63.08 405.997 63.56C405.497 64.02 404.897 64.38 404.197 64.64C403.497 64.88 402.757 65 401.977 65H396.517ZM402.367 62.09C403.127 62.09 403.737 61.87 404.197 61.43C404.657 60.97 404.887 60.39 404.887 59.69C404.887 58.99 404.637 58.44 404.137 58.04C403.657 57.62 403.067 57.41 402.367 57.41H399.247V62.09H402.367ZM418.901 65.09C418.561 64.99 418.231 64.79 417.911 64.49C417.611 64.17 417.461 63.71 417.461 63.11C417.461 62.51 417.661 62.01 418.061 61.61C418.481 61.21 418.991 61.01 419.591 61.01C420.191 61.01 420.701 61.21 421.121 61.61C421.541 62.01 421.751 62.53 421.751 63.17C421.751 63.69 421.661 64.14 421.481 64.52C421.301 64.9 421.101 65.29 420.881 65.69L418.931 69.2H417.011L418.901 65.09ZM443.662 59.69C443.422 59.27 442.942 58.96 442.222 58.76C441.502 58.54 440.732 58.43 439.912 58.43C438.772 58.43 437.882 58.61 437.242 58.97C436.622 59.31 436.312 59.8 436.312 60.44C436.312 61.04 436.612 61.53 437.212 61.91C437.832 62.27 438.732 62.45 439.912 62.45C440.312 62.45 440.702 62.41 441.082 62.33C441.482 62.25 441.852 62.14 442.192 62C442.532 61.86 442.832 61.69 443.092 61.49C443.352 61.29 443.542 61.07 443.662 60.83V59.69ZM434.392 52.28C434.952 51.5 435.722 50.87 436.702 50.39C437.682 49.91 438.772 49.67 439.972 49.67C441.972 49.67 443.542 50.19 444.682 51.23C445.822 52.25 446.392 53.69 446.392 55.55V65H443.752V63.68C443.572 63.94 443.322 64.17 443.002 64.37C442.682 64.57 442.322 64.75 441.922 64.91C441.542 65.05 441.142 65.16 440.722 65.24C440.302 65.32 439.882 65.36 439.462 65.36C437.682 65.36 436.252 64.94 435.172 64.1C434.112 63.24 433.582 62.04 433.582 60.5C433.582 59.72 433.732 59.03 434.032 58.43C434.352 57.83 434.782 57.32 435.322 56.9C435.862 56.48 436.492 56.17 437.212 55.97C437.932 55.75 438.712 55.64 439.552 55.64C439.892 55.64 440.252 55.67 440.632 55.73C441.032 55.77 441.412 55.84 441.772 55.94C442.152 56.04 442.502 56.17 442.822 56.33C443.142 56.47 443.422 56.65 443.662 56.87V56.15C443.662 55.53 443.552 55 443.332 54.56C443.112 54.1 442.822 53.73 442.462 53.45C442.102 53.15 441.672 52.93 441.172 52.79C440.692 52.65 440.182 52.58 439.642 52.58C438.682 52.58 437.812 52.77 437.032 53.15C436.252 53.53 435.632 54.03 435.172 54.65L434.392 52.28ZM464.911 43.46C465.891 43.46 466.781 43.59 467.581 43.85C468.401 44.11 469.101 44.49 469.681 44.99C470.261 45.47 470.711 46.08 471.031 46.82C471.351 47.56 471.511 48.41 471.511 49.37C471.511 50.33 471.341 51.15 471.001 51.83C470.661 52.49 470.201 53.05 469.621 53.51C470.501 53.93 471.221 54.57 471.781 55.43C472.341 56.29 472.621 57.38 472.621 58.7C472.621 59.72 472.451 60.62 472.111 61.4C471.791 62.18 471.331 62.84 470.731 63.38C470.151 63.9 469.451 64.3 468.631 64.58C467.831 64.86 466.951 65 465.991 65H459.481V43.46H464.911ZM462.301 55.52V61.97H466.561C467.001 61.97 467.421 61.89 467.821 61.73C468.221 61.57 468.561 61.35 468.841 61.07C469.121 60.79 469.341 60.45 469.501 60.05C469.681 59.65 469.771 59.22 469.771 58.76C469.771 58.34 469.691 57.94 469.531 57.56C469.371 57.16 469.151 56.81 468.871 56.51C468.591 56.21 468.251 55.97 467.851 55.79C467.451 55.61 467.011 55.52 466.531 55.52H462.301ZM462.301 46.49V52.49H465.601C466.501 52.49 467.241 52.23 467.821 51.71C468.401 51.17 468.691 50.44 468.691 49.52C468.691 48.64 468.411 47.92 467.851 47.36C467.291 46.78 466.541 46.49 465.601 46.49H462.301ZM489.995 50.03H492.725V65H489.995V50.03ZM476.585 65V50.03H479.315V54.5H482.075C482.875 54.5 483.615 54.63 484.295 54.89C484.995 55.15 485.595 55.52 486.095 56C486.615 56.46 487.015 57.01 487.295 57.65C487.595 58.29 487.745 58.99 487.745 59.75C487.745 60.53 487.595 61.24 487.295 61.88C486.995 62.52 486.585 63.08 486.065 63.56C485.565 64.02 484.965 64.38 484.265 64.64C483.565 64.88 482.825 65 482.045 65H476.585ZM482.435 62.09C483.195 62.09 483.805 61.87 484.265 61.43C484.725 60.97 484.955 60.39 484.955 59.69C484.955 58.99 484.705 58.44 484.205 58.04C483.725 57.62 483.135 57.41 482.435 57.41H479.315V62.09H482.435ZM349.16 90.03C350.64 90.03 351.84 90.39 352.76 91.11C353.7 91.83 354.17 92.82 354.17 94.08C354.17 94.7 354.07 95.27 353.87 95.79C353.69 96.29 353.35 96.74 352.85 97.14C354.21 97.8 354.89 98.98 354.89 100.68C354.89 101.32 354.75 101.91 354.47 102.45C354.21 102.97 353.85 103.42 353.39 103.8C352.93 104.18 352.38 104.48 351.74 104.7C351.12 104.9 350.45 105 349.73 105H343.46V90.03H349.16ZM350.27 102.15C350.81 102.15 351.25 102 351.59 101.7C351.93 101.38 352.1 100.97 352.1 100.47C352.1 99.97 351.92 99.58 351.56 99.3C351.22 99.02 350.79 98.88 350.27 98.88H346.19V102.15H350.27ZM349.67 96.06C350.17 96.06 350.58 95.92 350.9 95.64C351.22 95.34 351.38 94.96 351.38 94.5C351.38 93.96 351.21 93.56 350.87 93.3C350.53 93.02 350.13 92.88 349.67 92.88H346.19V96.06H349.67ZM363.071 102.45C364.131 102.45 364.931 102.26 365.471 101.88C366.031 101.5 366.311 101.05 366.311 100.53C366.311 99.99 366.071 99.56 365.591 99.24C365.131 98.9 364.451 98.73 363.551 98.73H361.571V95.82H363.281C364.061 95.82 364.661 95.69 365.081 95.43C365.501 95.15 365.711 94.72 365.711 94.14C365.711 93.68 365.481 93.31 365.021 93.03C364.581 92.73 363.981 92.58 363.221 92.58C362.521 92.58 361.821 92.71 361.121 92.97C360.421 93.23 359.731 93.68 359.051 94.32L358.331 92.13C358.851 91.43 359.541 90.85 360.401 90.39C361.281 89.91 362.301 89.67 363.461 89.67C364.201 89.67 364.881 89.77 365.501 89.97C366.121 90.17 366.651 90.45 367.091 90.81C367.531 91.17 367.871 91.61 368.111 92.13C368.371 92.63 368.501 93.2 368.501 93.84C368.501 94.58 368.341 95.23 368.021 95.79C367.721 96.35 367.301 96.76 366.761 97.02C368.361 97.66 369.161 98.91 369.161 100.77C369.161 101.47 369.001 102.1 368.681 102.66C368.361 103.22 367.921 103.7 367.361 104.1C366.821 104.5 366.191 104.81 365.471 105.03C364.751 105.25 364.001 105.36 363.221 105.36C362.021 105.36 360.961 105.14 360.041 104.7C359.141 104.26 358.401 103.63 357.821 102.81L358.541 100.59C359.561 101.83 361.071 102.45 363.071 102.45ZM382.138 99.69C381.898 99.27 381.418 98.96 380.698 98.76C379.978 98.54 379.208 98.43 378.388 98.43C377.248 98.43 376.358 98.61 375.718 98.97C375.098 99.31 374.788 99.8 374.788 100.44C374.788 101.04 375.088 101.53 375.688 101.91C376.308 102.27 377.208 102.45 378.388 102.45C378.788 102.45 379.178 102.41 379.558 102.33C379.958 102.25 380.328 102.14 380.668 102C381.008 101.86 381.308 101.69 381.568 101.49C381.828 101.29 382.018 101.07 382.138 100.83V99.69ZM372.868 92.28C373.428 91.5 374.198 90.87 375.178 90.39C376.158 89.91 377.248 89.67 378.448 89.67C380.448 89.67 382.018 90.19 383.158 91.23C384.298 92.25 384.868 93.69 384.868 95.55V105H382.228V103.68C382.048 103.94 381.798 104.17 381.478 104.37C381.158 104.57 380.798 104.75 380.398 104.91C380.018 105.05 379.618 105.16 379.198 105.24C378.778 105.32 378.358 105.36 377.938 105.36C376.158 105.36 374.728 104.94 373.648 104.1C372.588 103.24 372.058 102.04 372.058 100.5C372.058 99.72 372.208 99.03 372.508 98.43C372.828 97.83 373.258 97.32 373.798 96.9C374.338 96.48 374.968 96.17 375.688 95.97C376.408 95.75 377.188 95.64 378.028 95.64C378.368 95.64 378.728 95.67 379.108 95.73C379.508 95.77 379.888 95.84 380.248 95.94C380.628 96.04 380.978 96.17 381.298 96.33C381.618 96.47 381.898 96.65 382.138 96.87V96.15C382.138 95.53 382.028 95 381.808 94.56C381.588 94.1 381.298 93.73 380.938 93.45C380.578 93.15 380.148 92.93 379.648 92.79C379.168 92.65 378.658 92.58 378.118 92.58C377.158 92.58 376.288 92.77 375.508 93.15C374.728 93.53 374.108 94.03 373.648 94.65L372.868 92.28ZM402.772 90.03V105H400.042V92.94H392.362V105H389.632V90.03H402.772ZM421.989 94.35C422.409 95.31 422.619 96.37 422.619 97.53C422.619 98.69 422.409 99.75 421.989 100.71C421.569 101.67 421.009 102.5 420.309 103.2C419.609 103.88 418.789 104.41 417.849 104.79C416.929 105.17 415.959 105.36 414.939 105.36C413.799 105.36 412.819 105.17 411.999 104.79C411.179 104.41 410.649 103.94 410.409 103.38V111.39H407.679V90.03H410.319V91.62C410.559 91.06 411.089 90.6 411.909 90.24C412.749 89.86 413.739 89.67 414.879 89.67C415.919 89.67 416.909 89.86 417.849 90.24C418.789 90.62 419.609 91.16 420.309 91.86C421.009 92.54 421.569 93.37 421.989 94.35ZM419.889 97.47C419.889 95.97 419.429 94.78 418.509 93.9C417.589 93.02 416.369 92.58 414.849 92.58C413.809 92.58 412.869 92.82 412.029 93.3C411.209 93.76 410.669 94.35 410.409 95.07V99.96C410.669 100.68 411.209 101.28 412.029 101.76C412.869 102.22 413.809 102.45 414.849 102.45C416.369 102.45 417.589 102 418.509 101.1C419.429 100.2 419.889 98.99 419.889 97.47ZM435.547 99.69C435.307 99.27 434.827 98.96 434.107 98.76C433.387 98.54 432.617 98.43 431.797 98.43C430.657 98.43 429.767 98.61 429.127 98.97C428.507 99.31 428.197 99.8 428.197 100.44C428.197 101.04 428.497 101.53 429.097 101.91C429.717 102.27 430.617 102.45 431.797 102.45C432.197 102.45 432.587 102.41 432.967 102.33C433.367 102.25 433.737 102.14 434.077 102C434.417 101.86 434.717 101.69 434.977 101.49C435.237 101.29 435.427 101.07 435.547 100.83V99.69ZM426.277 92.28C426.837 91.5 427.607 90.87 428.587 90.39C429.567 89.91 430.657 89.67 431.857 89.67C433.857 89.67 435.427 90.19 436.567 91.23C437.707 92.25 438.277 93.69 438.277 95.55V105H435.637V103.68C435.457 103.94 435.207 104.17 434.887 104.37C434.567 104.57 434.207 104.75 433.807 104.91C433.427 105.05 433.027 105.16 432.607 105.24C432.187 105.32 431.767 105.36 431.347 105.36C429.567 105.36 428.137 104.94 427.057 104.1C425.997 103.24 425.467 102.04 425.467 100.5C425.467 99.72 425.617 99.03 425.917 98.43C426.237 97.83 426.667 97.32 427.207 96.9C427.747 96.48 428.377 96.17 429.097 95.97C429.817 95.75 430.597 95.64 431.437 95.64C431.777 95.64 432.137 95.67 432.517 95.73C432.917 95.77 433.297 95.84 433.657 95.94C434.037 96.04 434.387 96.17 434.707 96.33C435.027 96.47 435.307 96.65 435.547 96.87V96.15C435.547 95.53 435.437 95 435.217 94.56C434.997 94.1 434.707 93.73 434.347 93.45C433.987 93.15 433.557 92.93 433.057 92.79C432.577 92.65 432.067 92.58 431.527 92.58C430.567 92.58 429.697 92.77 428.917 93.15C428.137 93.53 427.517 94.03 427.057 94.65L426.277 92.28ZM448.74 90.03C450.22 90.03 451.42 90.39 452.34 91.11C453.28 91.83 453.75 92.82 453.75 94.08C453.75 94.7 453.65 95.27 453.45 95.79C453.27 96.29 452.93 96.74 452.43 97.14C453.79 97.8 454.47 98.98 454.47 100.68C454.47 101.32 454.33 101.91 454.05 102.45C453.79 102.97 453.43 103.42 452.97 103.8C452.51 104.18 451.96 104.48 451.32 104.7C450.7 104.9 450.03 105 449.31 105H443.04V90.03H448.74ZM449.85 102.15C450.39 102.15 450.83 102 451.17 101.7C451.51 101.38 451.68 100.97 451.68 100.47C451.68 99.97 451.5 99.58 451.14 99.3C450.8 99.02 450.37 98.88 449.85 98.88H445.77V102.15H449.85ZM449.25 96.06C449.75 96.06 450.16 95.92 450.48 95.64C450.8 95.34 450.96 94.96 450.96 94.5C450.96 93.96 450.79 93.56 450.45 93.3C450.11 93.02 449.71 92.88 449.25 92.88H445.77V96.06H449.25ZM458.331 102.09C458.691 101.55 459.051 100.92 459.411 100.2C459.791 99.48 460.121 98.67 460.401 97.77C460.701 96.85 460.941 95.83 461.121 94.71C461.301 93.59 461.391 92.35 461.391 90.99V90.03H471.321V102.09H473.811V108.99H471.201V105H459.471V108.99H456.861V102.09H458.331ZM468.591 102.09V92.94H463.911C463.851 94.02 463.721 95.04 463.521 96C463.341 96.96 463.121 97.83 462.861 98.61C462.621 99.39 462.361 100.08 462.081 100.68C461.821 101.26 461.581 101.73 461.361 102.09H468.591ZM475.485 90.03H478.545L483.135 101.04L487.695 90.03H490.725L481.815 111.39H478.785L481.665 104.43L475.485 90.03ZM356.6 130.03V145H353.87V132.94H346.19V145H343.46V130.03H356.6ZM368.407 142.45C368.887 142.45 369.357 142.39 369.817 142.27C370.277 142.15 370.707 142 371.107 141.82C371.527 141.64 371.897 141.43 372.217 141.19C372.537 140.95 372.807 140.71 373.027 140.47L373.747 142.6C373.587 142.94 373.337 143.27 372.997 143.59C372.677 143.91 372.277 144.21 371.797 144.49C371.337 144.75 370.807 144.96 370.207 145.12C369.607 145.28 368.957 145.36 368.257 145.36C367.137 145.36 366.097 145.18 365.137 144.82C364.197 144.44 363.377 143.92 362.677 143.26C361.997 142.58 361.457 141.76 361.057 140.8C360.677 139.82 360.487 138.73 360.487 137.53C360.487 136.49 360.657 135.5 360.997 134.56C361.337 133.6 361.827 132.76 362.467 132.04C363.107 131.32 363.877 130.75 364.777 130.33C365.677 129.89 366.697 129.67 367.837 129.67C368.917 129.67 369.887 129.88 370.747 130.3C371.607 130.72 372.337 131.29 372.937 132.01C373.557 132.71 374.027 133.54 374.347 134.5C374.667 135.44 374.827 136.44 374.827 137.5C374.827 137.82 374.797 138.16 374.737 138.52H363.277C363.417 139.84 363.947 140.83 364.867 141.49C365.787 142.13 366.967 142.45 368.407 142.45ZM371.917 135.76C371.877 135.32 371.747 134.91 371.527 134.53C371.307 134.13 371.007 133.79 370.627 133.51C370.267 133.21 369.847 132.98 369.367 132.82C368.887 132.66 368.377 132.58 367.837 132.58C367.297 132.58 366.767 132.66 366.247 132.82C365.747 132.98 365.297 133.2 364.897 133.48C364.517 133.76 364.197 134.1 363.937 134.5C363.677 134.88 363.517 135.3 363.457 135.76H371.917ZM393.043 134.35C393.463 135.31 393.673 136.37 393.673 137.53C393.673 138.69 393.463 139.75 393.043 140.71C392.623 141.67 392.063 142.5 391.363 143.2C390.663 143.88 389.843 144.41 388.903 144.79C387.983 145.17 387.013 145.36 385.993 145.36C384.853 145.36 383.873 145.17 383.053 144.79C382.233 144.41 381.703 143.94 381.463 143.38V151.39H378.733V130.03H381.373V131.62C381.613 131.06 382.143 130.6 382.963 130.24C383.803 129.86 384.793 129.67 385.933 129.67C386.973 129.67 387.963 129.86 388.903 130.24C389.843 130.62 390.663 131.16 391.363 131.86C392.063 132.54 392.623 133.37 393.043 134.35ZM390.943 137.47C390.943 135.97 390.483 134.78 389.563 133.9C388.643 133.02 387.423 132.58 385.903 132.58C384.863 132.58 383.923 132.82 383.083 133.3C382.263 133.76 381.723 134.35 381.463 135.07V139.96C381.723 140.68 382.263 141.28 383.083 141.76C383.923 142.22 384.863 142.45 385.903 142.45C387.423 142.45 388.643 142 389.563 141.1C390.483 140.2 390.943 138.99 390.943 137.47ZM403.271 130.03C404.751 130.03 405.951 130.39 406.871 131.11C407.811 131.83 408.281 132.82 408.281 134.08C408.281 134.7 408.181 135.27 407.981 135.79C407.801 136.29 407.461 136.74 406.961 137.14C408.321 137.8 409.001 138.98 409.001 140.68C409.001 141.32 408.861 141.91 408.581 142.45C408.321 142.97 407.961 143.42 407.501 143.8C407.041 144.18 406.491 144.48 405.851 144.7C405.231 144.9 404.561 145 403.841 145H397.571V130.03H403.271ZM404.381 142.15C404.921 142.15 405.361 142 405.701 141.7C406.041 141.38 406.211 140.97 406.211 140.47C406.211 139.97 406.031 139.58 405.671 139.3C405.331 139.02 404.901 138.88 404.381 138.88H400.301V142.15H404.381ZM403.781 136.06C404.281 136.06 404.691 135.92 405.011 135.64C405.331 135.34 405.491 134.96 405.491 134.5C405.491 133.96 405.321 133.56 404.981 133.3C404.641 133.02 404.241 132.88 403.781 132.88H400.301V136.06H403.781ZM426.422 134.41C426.842 135.37 427.052 136.41 427.052 137.53C427.052 138.65 426.842 139.69 426.422 140.65C426.022 141.61 425.472 142.44 424.772 143.14C424.092 143.84 423.292 144.39 422.372 144.79C421.472 145.17 420.512 145.36 419.492 145.36C418.472 145.36 417.502 145.17 416.582 144.79C415.662 144.39 414.852 143.84 414.152 143.14C413.472 142.44 412.932 141.61 412.532 140.65C412.132 139.69 411.932 138.65 411.932 137.53C411.932 136.41 412.132 135.37 412.532 134.41C412.932 133.45 413.472 132.62 414.152 131.92C414.852 131.22 415.662 130.67 416.582 130.27C417.502 129.87 418.472 129.67 419.492 129.67C420.512 129.67 421.472 129.87 422.372 130.27C423.292 130.67 424.092 131.22 424.772 131.92C425.472 132.62 426.022 133.45 426.422 134.41ZM414.662 137.53C414.662 138.27 414.782 138.95 415.022 139.57C415.262 140.17 415.602 140.69 416.042 141.13C416.482 141.55 416.992 141.88 417.572 142.12C418.152 142.34 418.792 142.45 419.492 142.45C420.172 142.45 420.802 142.34 421.382 142.12C421.982 141.88 422.502 141.55 422.942 141.13C423.382 140.69 423.722 140.17 423.962 139.57C424.202 138.97 424.322 138.3 424.322 137.56C424.322 136.82 424.202 136.15 423.962 135.55C423.722 134.93 423.382 134.4 422.942 133.96C422.502 133.52 421.982 133.18 421.382 132.94C420.802 132.7 420.172 132.58 419.492 132.58C418.792 132.58 418.152 132.7 417.572 132.94C416.992 133.18 416.482 133.52 416.042 133.96C415.602 134.4 415.262 134.93 415.022 135.55C414.782 136.15 414.662 136.81 414.662 137.53ZM444.41 134.41C444.83 135.37 445.04 136.41 445.04 137.53C445.04 138.65 444.83 139.69 444.41 140.65C444.01 141.61 443.46 142.44 442.76 143.14C442.08 143.84 441.28 144.39 440.36 144.79C439.46 145.17 438.5 145.36 437.48 145.36C436.46 145.36 435.49 145.17 434.57 144.79C433.65 144.39 432.84 143.84 432.14 143.14C431.46 142.44 430.92 141.61 430.52 140.65C430.12 139.69 429.92 138.65 429.92 137.53C429.92 136.41 430.12 135.37 430.52 134.41C430.92 133.45 431.46 132.62 432.14 131.92C432.84 131.22 433.65 130.67 434.57 130.27C435.49 129.87 436.46 129.67 437.48 129.67C438.5 129.67 439.46 129.87 440.36 130.27C441.28 130.67 442.08 131.22 442.76 131.92C443.46 132.62 444.01 133.45 444.41 134.41ZM432.65 137.53C432.65 138.27 432.77 138.95 433.01 139.57C433.25 140.17 433.59 140.69 434.03 141.13C434.47 141.55 434.98 141.88 435.56 142.12C436.14 142.34 436.78 142.45 437.48 142.45C438.16 142.45 438.79 142.34 439.37 142.12C439.97 141.88 440.49 141.55 440.93 141.13C441.37 140.69 441.71 140.17 441.95 139.57C442.19 138.97 442.31 138.3 442.31 137.56C442.31 136.82 442.19 136.15 441.95 135.55C441.71 134.93 441.37 134.4 440.93 133.96C440.49 133.52 439.97 133.18 439.37 132.94C438.79 132.7 438.16 132.58 437.48 132.58C436.78 132.58 436.14 132.7 435.56 132.94C434.98 133.18 434.47 133.52 434.03 133.96C433.59 134.4 433.25 134.93 433.01 135.55C432.77 136.15 432.65 136.81 432.65 137.53ZM459.828 132.94H454.848V145H452.118V132.94H447.138V130.03H459.828V132.94ZM463.343 130.03H466.073V136.33L472.703 130.03H476.423L468.863 137.26L477.143 145H473.093L466.073 138.4V145H463.343V130.03ZM494 134.35C494.42 135.31 494.63 136.37 494.63 137.53C494.63 138.69 494.42 139.75 494 140.71C493.58 141.67 493.02 142.5 492.32 143.2C491.62 143.88 490.8 144.41 489.86 144.79C488.94 145.17 487.97 145.36 486.95 145.36C485.81 145.36 484.83 145.17 484.01 144.79C483.19 144.41 482.66 143.94 482.42 143.38V151.39H479.69V130.03H482.33V131.62C482.57 131.06 483.1 130.6 483.92 130.24C484.76 129.86 485.75 129.67 486.89 129.67C487.93 129.67 488.92 129.86 489.86 130.24C490.8 130.62 491.62 131.16 492.32 131.86C493.02 132.54 493.58 133.37 494 134.35ZM491.9 137.47C491.9 135.97 491.44 134.78 490.52 133.9C489.6 133.02 488.38 132.58 486.86 132.58C485.82 132.58 484.88 132.82 484.04 133.3C483.22 133.76 482.68 134.35 482.42 135.07V139.96C482.68 140.68 483.22 141.28 484.04 141.76C484.88 142.22 485.82 142.45 486.86 142.45C488.38 142.45 489.6 142 490.52 141.1C491.44 140.2 491.9 138.99 491.9 137.47ZM511.938 130.03H514.668V145H511.938V130.03ZM498.528 145V130.03H501.258V134.5H504.018C504.818 134.5 505.558 134.63 506.238 134.89C506.938 135.15 507.538 135.52 508.038 136C508.558 136.46 508.958 137.01 509.238 137.65C509.538 138.29 509.688 138.99 509.688 139.75C509.688 140.53 509.538 141.24 509.238 141.88C508.938 142.52 508.528 143.08 508.008 143.56C507.508 144.02 506.908 144.38 506.208 144.64C505.508 144.88 504.768 145 503.988 145H498.528ZM504.378 142.09C505.138 142.09 505.748 141.87 506.208 141.43C506.668 140.97 506.898 140.39 506.898 139.69C506.898 138.99 506.648 138.44 506.148 138.04C505.668 137.62 505.078 137.41 504.378 137.41H501.258V142.09H504.378ZM528.863 135.46V138.07H519.383V135.46H528.863ZM349.16 170.03C350.64 170.03 351.84 170.39 352.76 171.11C353.7 171.83 354.17 172.82 354.17 174.08C354.17 174.7 354.07 175.27 353.87 175.79C353.69 176.29 353.35 176.74 352.85 177.14C354.21 177.8 354.89 178.98 354.89 180.68C354.89 181.32 354.75 181.91 354.47 182.45C354.21 182.97 353.85 183.42 353.39 183.8C352.93 184.18 352.38 184.48 351.74 184.7C351.12 184.9 350.45 185 349.73 185H343.46V170.03H349.16ZM350.27 182.15C350.81 182.15 351.25 182 351.59 181.7C351.93 181.38 352.1 180.97 352.1 180.47C352.1 179.97 351.92 179.58 351.56 179.3C351.22 179.02 350.79 178.88 350.27 178.88H346.19V182.15H350.27ZM349.67 176.06C350.17 176.06 350.58 175.92 350.9 175.64C351.22 175.34 351.38 174.96 351.38 174.5C351.38 173.96 351.21 173.56 350.87 173.3C350.53 173.02 350.13 172.88 349.67 172.88H346.19V176.06H349.67ZM367.871 179.69C367.631 179.27 367.151 178.96 366.431 178.76C365.711 178.54 364.941 178.43 364.121 178.43C362.981 178.43 362.091 178.61 361.451 178.97C360.831 179.31 360.521 179.8 360.521 180.44C360.521 181.04 360.821 181.53 361.421 181.91C362.041 182.27 362.941 182.45 364.121 182.45C364.521 182.45 364.911 182.41 365.291 182.33C365.691 182.25 366.061 182.14 366.401 182C366.741 181.86 367.041 181.69 367.301 181.49C367.561 181.29 367.751 181.07 367.871 180.83V179.69ZM358.601 172.28C359.161 171.5 359.931 170.87 360.911 170.39C361.891 169.91 362.981 169.67 364.181 169.67C366.181 169.67 367.751 170.19 368.891 171.23C370.031 172.25 370.601 173.69 370.601 175.55V185H367.961V183.68C367.781 183.94 367.531 184.17 367.211 184.37C366.891 184.57 366.531 184.75 366.131 184.91C365.751 185.05 365.351 185.16 364.931 185.24C364.511 185.32 364.091 185.36 363.671 185.36C361.891 185.36 360.461 184.94 359.381 184.1C358.321 183.24 357.791 182.04 357.791 180.5C357.791 179.72 357.941 179.03 358.241 178.43C358.561 177.83 358.991 177.32 359.531 176.9C360.071 176.48 360.701 176.17 361.421 175.97C362.141 175.75 362.921 175.64 363.761 175.64C364.101 175.64 364.461 175.67 364.841 175.73C365.241 175.77 365.621 175.84 365.981 175.94C366.361 176.04 366.711 176.17 367.031 176.33C367.351 176.47 367.631 176.65 367.871 176.87V176.15C367.871 175.53 367.761 175 367.541 174.56C367.321 174.1 367.031 173.73 366.671 173.45C366.311 173.15 365.881 172.93 365.381 172.79C364.901 172.65 364.391 172.58 363.851 172.58C362.891 172.58 362.021 172.77 361.241 173.15C360.461 173.53 359.841 174.03 359.381 174.65L358.601 172.28ZM386.644 172.94H381.664V185H378.934V172.94H373.954V170.03H386.644V172.94ZM396.708 182.45C397.188 182.45 397.658 182.39 398.118 182.27C398.578 182.15 399.008 182 399.408 181.82C399.828 181.64 400.198 181.43 400.518 181.19C400.838 180.95 401.108 180.71 401.328 180.47L402.048 182.6C401.888 182.94 401.638 183.27 401.298 183.59C400.978 183.91 400.578 184.21 400.098 184.49C399.638 184.75 399.108 184.96 398.508 185.12C397.908 185.28 397.258 185.36 396.558 185.36C395.438 185.36 394.398 185.18 393.438 184.82C392.498 184.44 391.678 183.92 390.978 183.26C390.298 182.58 389.758 181.76 389.358 180.8C388.978 179.82 388.788 178.73 388.788 177.53C388.788 176.49 388.958 175.5 389.298 174.56C389.638 173.6 390.128 172.76 390.768 172.04C391.408 171.32 392.178 170.75 393.078 170.33C393.978 169.89 394.998 169.67 396.138 169.67C397.218 169.67 398.188 169.88 399.048 170.3C399.908 170.72 400.638 171.29 401.238 172.01C401.858 172.71 402.328 173.54 402.648 174.5C402.968 175.44 403.128 176.44 403.128 177.5C403.128 177.82 403.098 178.16 403.038 178.52H391.578C391.718 179.84 392.248 180.83 393.168 181.49C394.088 182.13 395.268 182.45 396.708 182.45ZM400.218 175.76C400.178 175.32 400.048 174.91 399.828 174.53C399.608 174.13 399.308 173.79 398.928 173.51C398.568 173.21 398.148 172.98 397.668 172.82C397.188 172.66 396.678 172.58 396.138 172.58C395.598 172.58 395.068 172.66 394.548 172.82C394.048 172.98 393.598 173.2 393.198 173.48C392.818 173.76 392.498 174.1 392.238 174.5C391.978 174.88 391.818 175.3 391.758 175.76H400.218ZM404.908 182.45C405.568 182.37 406.158 182.18 406.678 181.88C407.198 181.58 407.638 181.03 407.998 180.23C408.358 179.41 408.638 178.27 408.838 176.81C409.058 175.35 409.208 173.41 409.288 170.99L409.318 170.03H419.758V185H417.028V172.94H411.898L411.868 173.66C411.708 177.54 411.168 180.42 410.248 182.3C409.328 184.18 408.018 185.12 406.318 185.12C405.938 185.12 405.628 185.08 405.388 185L404.908 182.45ZM424.671 185V170.03H427.401V174.5H430.461C431.261 174.5 432.001 174.63 432.681 174.89C433.381 175.15 433.981 175.52 434.481 176C435.001 176.46 435.401 177.01 435.681 177.65C435.981 178.29 436.131 178.99 436.131 179.75C436.131 180.53 435.981 181.24 435.681 181.88C435.381 182.52 434.971 183.08 434.451 183.56C433.951 184.02 433.351 184.38 432.651 184.64C431.951 184.88 431.211 185 430.431 185H424.671ZM430.821 182.09C431.581 182.09 432.191 181.87 432.651 181.43C433.111 180.97 433.341 180.39 433.341 179.69C433.341 178.99 433.091 178.44 432.591 178.04C432.111 177.62 431.521 177.41 430.821 177.41H427.401V182.09H430.821ZM442.289 184.67C441.909 184.29 441.719 183.82 441.719 183.26C441.719 182.7 441.909 182.23 442.289 181.85C442.669 181.47 443.139 181.28 443.699 181.28C444.259 181.28 444.729 181.47 445.109 181.85C445.489 182.23 445.679 182.7 445.679 183.26C445.679 183.82 445.489 184.29 445.109 184.67C444.729 185.05 444.259 185.24 443.699 185.24C443.139 185.24 442.669 185.05 442.289 184.67ZM438.839 165.95C439.019 165.57 439.269 165.21 439.589 164.87C439.909 164.51 440.289 164.2 440.729 163.94C441.169 163.68 441.639 163.48 442.139 163.34C442.659 163.18 443.189 163.1 443.729 163.1C444.529 163.1 445.239 163.21 445.859 163.43C446.479 163.65 446.999 163.96 447.419 164.36C447.839 164.74 448.159 165.19 448.379 165.71C448.599 166.23 448.709 166.79 448.709 167.39C448.709 167.97 448.609 168.49 448.409 168.95C448.209 169.41 447.939 169.84 447.599 170.24C447.279 170.62 446.889 170.97 446.429 171.29C445.989 171.61 445.529 171.92 445.049 172.22C444.529 172.54 444.109 172.82 443.789 173.06C443.469 173.3 443.219 173.52 443.039 173.72C442.859 173.9 442.739 174.08 442.679 174.26C442.619 174.42 442.589 174.58 442.589 174.74C442.589 175.12 442.739 175.43 443.039 175.67C443.339 175.91 443.759 176.03 444.299 176.03C445.379 176.03 446.429 175.49 447.449 174.41L447.899 176.72C447.639 177.2 447.179 177.67 446.519 178.13C445.859 178.59 445.009 178.82 443.969 178.82C443.349 178.82 442.779 178.72 442.259 178.52C441.759 178.32 441.329 178.04 440.969 177.68C440.609 177.32 440.329 176.91 440.129 176.45C439.949 175.97 439.859 175.46 439.859 174.92C439.859 174.54 439.909 174.15 440.009 173.75C440.129 173.35 440.329 172.95 440.609 172.55C440.889 172.15 441.259 171.75 441.719 171.35C442.179 170.93 442.759 170.51 443.459 170.09C444.339 169.55 444.979 169.1 445.379 168.74C445.779 168.38 445.979 167.97 445.979 167.51C445.979 167.05 445.779 166.69 445.379 166.43C444.999 166.15 444.459 166.01 443.759 166.01C442.919 166.01 442.129 166.2 441.389 166.58C440.669 166.96 440.039 167.5 439.499 168.2L438.839 165.95Z" fill="black"/>
<path d="M335.708 353.184C336.236 353.664 336.704 354.144 337.112 354.624C337.544 355.08 337.904 355.572 338.192 356.1C338.504 356.604 338.744 357.144 338.912 357.72C339.08 358.296 339.164 358.92 339.164 359.592C339.164 361.368 338.636 362.856 337.58 364.056C336.548 365.232 335.168 365.976 333.44 366.288V369.996H330.164V366.288C329.444 366.144 328.748 365.928 328.076 365.64C327.404 365.352 326.792 365.016 326.24 364.632C325.712 364.224 325.256 363.804 324.872 363.372C324.512 362.916 324.248 362.472 324.08 362.04L325.124 358.584C325.916 359.832 326.924 360.84 328.148 361.608C329.396 362.376 330.704 362.76 332.072 362.76C333.296 362.76 334.196 362.484 334.772 361.932C335.372 361.356 335.672 360.612 335.672 359.7C335.672 359.028 335.468 358.38 335.06 357.756C334.652 357.132 334.148 356.58 333.548 356.1C332.036 354.828 330.788 353.784 329.804 352.968C328.82 352.152 328.04 351.432 327.464 350.808C326.672 349.968 326.048 349.152 325.592 348.36C325.16 347.544 324.944 346.644 324.944 345.66C324.944 344.076 325.424 342.78 326.384 341.772C327.344 340.74 328.604 340.092 330.164 339.828V336.156H333.44V339.972C334.496 340.236 335.42 340.668 336.212 341.268C337.028 341.868 337.652 342.54 338.084 343.284L337.328 346.668C336.632 345.78 335.756 345.012 334.7 344.364C333.668 343.716 332.588 343.392 331.46 343.392C330.62 343.392 329.9 343.584 329.3 343.968C328.724 344.328 328.436 344.928 328.436 345.768C328.436 346.392 328.664 346.992 329.12 347.568C329.576 348.12 330.032 348.576 330.488 348.936C331.376 349.656 332.108 350.244 332.684 350.7C333.284 351.156 333.764 351.54 334.124 351.852C334.508 352.164 334.82 352.416 335.06 352.608C335.3 352.8 335.516 352.992 335.708 353.184ZM361.673 348.972H357.785L357.065 352.968H360.629V356.208H356.489L355.373 362.544H352.421L353.537 356.208H349.361L348.245 362.544H345.293L346.409 356.208H342.953V352.968H346.985L347.705 348.972H343.997V345.732H348.281L349.289 340.152H352.241L351.233 345.732H355.409L356.417 340.152H359.369L358.361 345.732H361.673V348.972ZM349.937 352.968H354.113L354.833 348.972H350.657L349.937 352.968ZM367.267 353.328L370.507 348.792L365.107 346.992L366.151 344.04L371.443 345.732V340.152H374.503V345.732L379.867 344.004L380.911 346.992L375.475 348.792L378.751 353.292L376.339 355.092L372.991 350.52L369.679 355.056L367.267 353.328ZM402.08 358.62C401.84 358.284 401.396 358.032 400.748 357.864C400.124 357.672 399.452 357.576 398.732 357.576C397.676 357.576 396.848 357.744 396.248 358.08C395.648 358.392 395.348 358.836 395.348 359.412C395.348 360.036 395.636 360.516 396.212 360.852C396.812 361.188 397.652 361.356 398.732 361.356C399.476 361.356 400.16 361.236 400.784 360.996C401.408 360.732 401.84 360.372 402.08 359.916V358.62ZM404.996 358.512C404.996 359.256 405.176 359.892 405.536 360.42C405.92 360.948 406.508 361.212 407.3 361.212C407.9 361.212 408.38 361.032 408.74 360.672C409.124 360.312 409.412 359.868 409.604 359.34C409.796 358.812 409.916 358.248 409.964 357.648C410.036 357.024 410.072 356.46 410.072 355.956C410.072 354.3 409.772 352.812 409.172 351.492C408.572 350.148 407.768 349.008 406.76 348.072C405.752 347.112 404.576 346.38 403.232 345.876C401.912 345.372 400.52 345.12 399.056 345.12C397.472 345.12 395.996 345.408 394.628 345.984C393.26 346.56 392.06 347.364 391.028 348.396C390.02 349.428 389.216 350.664 388.616 352.104C388.04 353.52 387.752 355.068 387.752 356.748C387.752 358.404 388.004 359.952 388.508 361.392C389.036 362.808 389.792 364.044 390.776 365.1C391.76 366.132 392.948 366.936 394.34 367.512C395.756 368.112 397.352 368.412 399.128 368.412C400.4 368.412 401.54 368.292 402.548 368.052C403.556 367.812 404.516 367.344 405.428 366.648L406.004 369.348C405.284 370.044 404.312 370.608 403.088 371.04C401.864 371.472 400.544 371.688 399.128 371.688C397.088 371.688 395.192 371.304 393.44 370.536C391.688 369.792 390.164 368.748 388.868 367.404C387.572 366.06 386.552 364.488 385.808 362.688C385.064 360.864 384.692 358.884 384.692 356.748C384.692 354.708 385.052 352.788 385.772 350.988C386.516 349.164 387.524 347.58 388.796 346.236C390.092 344.892 391.604 343.824 393.332 343.032C395.084 342.24 396.968 341.844 398.984 341.844C400.856 341.844 402.644 342.192 404.348 342.888C406.052 343.584 407.552 344.556 408.848 345.804C410.144 347.052 411.176 348.54 411.944 350.268C412.712 351.996 413.096 353.88 413.096 355.92C413.096 356.976 413 358.008 412.808 359.016C412.616 360.024 412.28 360.924 411.8 361.716C411.344 362.508 410.732 363.144 409.964 363.624C409.22 364.104 408.296 364.344 407.192 364.344C406.232 364.344 405.404 364.176 404.708 363.84C404.036 363.48 403.412 362.952 402.836 362.256C402.62 362.544 402.332 362.82 401.972 363.084C401.636 363.324 401.24 363.54 400.784 363.732C400.352 363.924 399.884 364.08 399.38 364.2C398.9 364.296 398.408 364.344 397.904 364.344C396.248 364.344 394.916 363.912 393.908 363.048C392.9 362.184 392.396 360.984 392.396 359.448C392.396 358.704 392.54 358.044 392.828 357.468C393.14 356.868 393.548 356.364 394.052 355.956C394.58 355.548 395.18 355.248 395.852 355.056C396.548 354.84 397.28 354.732 398.048 354.732C398.888 354.732 399.668 354.84 400.388 355.056C401.132 355.272 401.696 355.548 402.08 355.884V355.308C402.08 354.204 401.72 353.388 401 352.86C400.28 352.308 399.392 352.032 398.336 352.032C397.496 352.032 396.644 352.236 395.78 352.644C394.94 353.028 394.256 353.532 393.728 354.156L393.08 351.564C393.608 350.724 394.388 350.064 395.42 349.584C396.476 349.08 397.544 348.828 398.624 348.828C399.56 348.828 400.412 348.96 401.18 349.224C401.972 349.464 402.644 349.836 403.196 350.34C403.772 350.82 404.216 351.42 404.528 352.14C404.84 352.86 404.996 353.7 404.996 354.66V358.512ZM422.653 366L437.521 340.152H440.977L426.109 366H422.653ZM426.217 351.888C425.449 352.224 424.609 352.392 423.697 352.392C422.785 352.392 421.933 352.224 421.141 351.888C420.373 351.552 419.701 351.096 419.125 350.52C418.573 349.944 418.141 349.284 417.829 348.54C417.517 347.772 417.361 346.956 417.361 346.092C417.361 345.228 417.517 344.424 417.829 343.68C418.141 342.912 418.573 342.24 419.125 341.664C419.701 341.088 420.373 340.632 421.141 340.296C421.933 339.96 422.785 339.792 423.697 339.792C424.609 339.792 425.449 339.96 426.217 340.296C427.009 340.632 427.681 341.088 428.233 341.664C428.809 342.24 429.253 342.912 429.565 343.68C429.877 344.424 430.033 345.228 430.033 346.092C430.033 346.956 429.877 347.772 429.565 348.54C429.253 349.284 428.809 349.944 428.233 350.52C427.681 351.096 427.009 351.552 426.217 351.888ZM426.073 343.896C425.497 343.272 424.705 342.96 423.697 342.96C422.689 342.96 421.885 343.272 421.285 343.896C420.709 344.52 420.421 345.252 420.421 346.092C420.421 346.932 420.709 347.664 421.285 348.288C421.885 348.912 422.689 349.224 423.697 349.224C424.705 349.224 425.497 348.912 426.073 348.288C426.673 347.664 426.973 346.932 426.973 346.092C426.973 345.252 426.673 344.52 426.073 343.896ZM442.453 365.856C441.685 366.192 440.845 366.36 439.933 366.36C439.021 366.36 438.169 366.192 437.377 365.856C436.609 365.52 435.937 365.064 435.361 364.488C434.809 363.912 434.377 363.252 434.065 362.508C433.753 361.74 433.597 360.924 433.597 360.06C433.597 359.196 433.753 358.392 434.065 357.648C434.377 356.88 434.809 356.208 435.361 355.632C435.937 355.056 436.609 354.6 437.377 354.264C438.169 353.928 439.021 353.76 439.933 353.76C440.845 353.76 441.685 353.928 442.453 354.264C443.245 354.6 443.917 355.056 444.469 355.632C445.045 356.208 445.489 356.88 445.801 357.648C446.113 358.392 446.269 359.196 446.269 360.06C446.269 360.924 446.113 361.74 445.801 362.508C445.489 363.252 445.045 363.912 444.469 364.488C443.917 365.064 443.245 365.52 442.453 365.856ZM442.309 357.864C441.733 357.24 440.941 356.928 439.933 356.928C438.925 356.928 438.121 357.24 437.521 357.864C436.945 358.488 436.657 359.22 436.657 360.06C436.657 360.9 436.945 361.632 437.521 362.256C438.121 362.88 438.925 363.192 439.933 363.192C440.941 363.192 441.733 362.88 442.309 362.256C442.909 361.632 443.209 360.9 443.209 360.06C443.209 359.22 442.909 358.488 442.309 357.864ZM470.773 366H466.669L464.041 363.048C463.129 364.08 462.061 364.908 460.837 365.532C459.613 366.132 458.197 366.432 456.589 366.432C455.461 366.432 454.453 366.252 453.565 365.892C452.701 365.532 451.957 365.052 451.333 364.452C450.733 363.828 450.265 363.12 449.929 362.328C449.617 361.512 449.461 360.648 449.461 359.736C449.461 358.944 449.581 358.212 449.821 357.54C450.061 356.868 450.385 356.244 450.793 355.668C451.225 355.068 451.717 354.516 452.269 354.012C452.845 353.508 453.445 353.04 454.069 352.608L454.645 352.176L454.285 351.744C453.373 350.592 452.689 349.584 452.233 348.72C451.777 347.856 451.549 346.932 451.549 345.948C451.549 345.084 451.705 344.28 452.017 343.536C452.353 342.768 452.809 342.108 453.385 341.556C453.961 340.98 454.645 340.536 455.437 340.224C456.229 339.888 457.093 339.72 458.029 339.72C459.013 339.72 459.901 339.888 460.693 340.224C461.485 340.56 462.157 341.016 462.709 341.592C463.261 342.168 463.681 342.84 463.969 343.608C464.281 344.352 464.437 345.156 464.437 346.02C464.437 346.62 464.317 347.208 464.077 347.784C463.861 348.336 463.549 348.888 463.141 349.44C462.757 349.968 462.289 350.484 461.737 350.988C461.209 351.492 460.645 351.96 460.045 352.392L459.469 352.824L463.933 358.008C464.341 357.36 464.713 356.676 465.049 355.956C465.409 355.236 465.757 354.456 466.093 353.616L467.497 356.712C467.113 357.936 466.585 359.124 465.913 360.276L470.773 366ZM457.957 343.32C457.021 343.32 456.265 343.596 455.689 344.148C455.137 344.676 454.861 345.324 454.861 346.092C454.861 346.788 455.041 347.424 455.401 348C455.785 348.576 456.181 349.104 456.589 349.584L457.453 350.556L457.957 350.16C458.341 349.896 458.725 349.608 459.109 349.296C459.493 348.984 459.829 348.66 460.117 348.324C460.429 347.988 460.669 347.64 460.837 347.28C461.029 346.92 461.125 346.548 461.125 346.164C461.125 345.252 460.813 344.556 460.189 344.076C459.589 343.572 458.845 343.32 457.957 343.32ZM456.877 362.832C457.813 362.832 458.689 362.664 459.505 362.328C460.321 361.968 461.137 361.392 461.953 360.6L456.841 354.624L456.373 354.948C455.941 355.26 455.509 355.584 455.077 355.92C454.645 356.232 454.261 356.58 453.925 356.964C453.589 357.324 453.313 357.72 453.097 358.152C452.905 358.584 452.809 359.064 452.809 359.592C452.809 360.576 453.169 361.368 453.889 361.968C454.609 362.544 455.605 362.832 456.877 362.832ZM472.276 353.724L478.54 341.34H482.284L488.512 353.724H484.984L480.448 344.544L475.84 353.724H472.276ZM503.309 372.408H506.873L493.661 340.152H490.133L503.309 372.408ZM510.395 365.676C509.915 365.172 509.675 364.548 509.675 363.804C509.675 363.06 509.915 362.448 510.395 361.968C510.899 361.464 511.523 361.212 512.267 361.212C512.987 361.212 513.587 361.464 514.067 361.968C514.571 362.448 514.823 363.06 514.823 363.804C514.823 364.548 514.571 365.172 514.067 365.676C513.587 366.18 512.987 366.432 512.267 366.432C511.523 366.432 510.899 366.18 510.395 365.676ZM510.395 353.292C509.915 352.788 509.675 352.164 509.675 351.42C509.675 350.676 509.915 350.064 510.395 349.584C510.899 349.08 511.523 348.828 512.267 348.828C512.987 348.828 513.587 349.08 514.067 349.584C514.571 350.064 514.823 350.676 514.823 351.42C514.823 352.164 514.571 352.788 514.067 353.292C513.587 353.796 512.987 354.048 512.267 354.048C511.523 354.048 510.899 353.796 510.395 353.292ZM520.865 353.328L524.105 348.792L518.705 346.992L519.749 344.04L525.041 345.732V340.152H528.101V345.732L533.465 344.004L534.509 346.992L529.073 348.792L532.349 353.292L529.937 355.092L526.589 350.52L523.277 355.056L520.865 353.328ZM345.968 414H341.864L339.236 411.048C338.324 412.08 337.256 412.908 336.032 413.532C334.808 414.132 333.392 414.432 331.784 414.432C330.656 414.432 329.648 414.252 328.76 413.892C327.896 413.532 327.152 413.052 326.528 412.452C325.928 411.828 325.46 411.12 325.124 410.328C324.812 409.512 324.656 408.648 324.656 407.736C324.656 406.944 324.776 406.212 325.016 405.54C325.256 404.868 325.58 404.244 325.988 403.668C326.42 403.068 326.912 402.516 327.464 402.012C328.04 401.508 328.64 401.04 329.264 400.608L329.84 400.176L329.48 399.744C328.568 398.592 327.884 397.584 327.428 396.72C326.972 395.856 326.744 394.932 326.744 393.948C326.744 393.084 326.9 392.28 327.212 391.536C327.548 390.768 328.004 390.108 328.58 389.556C329.156 388.98 329.84 388.536 330.632 388.224C331.424 387.888 332.288 387.72 333.224 387.72C334.208 387.72 335.096 387.888 335.888 388.224C336.68 388.56 337.352 389.016 337.904 389.592C338.456 390.168 338.876 390.84 339.164 391.608C339.476 392.352 339.632 393.156 339.632 394.02C339.632 394.62 339.512 395.208 339.272 395.784C339.056 396.336 338.744 396.888 338.336 397.44C337.952 397.968 337.484 398.484 336.932 398.988C336.404 399.492 335.84 399.96 335.24 400.392L334.664 400.824L339.128 406.008C339.536 405.36 339.908 404.676 340.244 403.956C340.604 403.236 340.952 402.456 341.288 401.616L342.692 404.712C342.308 405.936 341.78 407.124 341.108 408.276L345.968 414ZM333.152 391.32C332.216 391.32 331.46 391.596 330.884 392.148C330.332 392.676 330.056 393.324 330.056 394.092C330.056 394.788 330.236 395.424 330.596 396C330.98 396.576 331.376 397.104 331.784 397.584L332.648 398.556L333.152 398.16C333.536 397.896 333.92 397.608 334.304 397.296C334.688 396.984 335.024 396.66 335.312 396.324C335.624 395.988 335.864 395.64 336.032 395.28C336.224 394.92 336.32 394.548 336.32 394.164C336.32 393.252 336.008 392.556 335.384 392.076C334.784 391.572 334.04 391.32 333.152 391.32ZM332.072 410.832C333.008 410.832 333.884 410.664 334.7 410.328C335.516 409.968 336.332 409.392 337.148 408.6L332.036 402.624L331.568 402.948C331.136 403.26 330.704 403.584 330.272 403.92C329.84 404.232 329.456 404.58 329.12 404.964C328.784 405.324 328.508 405.72 328.292 406.152C328.1 406.584 328.004 407.064 328.004 407.592C328.004 408.576 328.364 409.368 329.084 409.968C329.804 410.544 330.8 410.832 332.072 410.832ZM358.56 401.184C359.088 401.664 359.556 402.144 359.964 402.624C360.396 403.08 360.756 403.572 361.044 404.1C361.356 404.604 361.596 405.144 361.764 405.72C361.932 406.296 362.016 406.92 362.016 407.592C362.016 409.368 361.488 410.856 360.432 412.056C359.4 413.232 358.02 413.976 356.292 414.288V417.996H353.016V414.288C352.296 414.144 351.6 413.928 350.928 413.64C350.256 413.352 349.644 413.016 349.092 412.632C348.564 412.224 348.108 411.804 347.724 411.372C347.364 410.916 347.1 410.472 346.932 410.04L347.976 406.584C348.768 407.832 349.776 408.84 351 409.608C352.248 410.376 353.556 410.76 354.924 410.76C356.148 410.76 357.048 410.484 357.624 409.932C358.224 409.356 358.524 408.612 358.524 407.7C358.524 407.028 358.32 406.38 357.912 405.756C357.504 405.132 357 404.58 356.4 404.1C354.888 402.828 353.64 401.784 352.656 400.968C351.672 400.152 350.892 399.432 350.316 398.808C349.524 397.968 348.9 397.152 348.444 396.36C348.012 395.544 347.796 394.644 347.796 393.66C347.796 392.076 348.276 390.78 349.236 389.772C350.196 388.74 351.456 388.092 353.016 387.828V384.156H356.292V387.972C357.348 388.236 358.272 388.668 359.064 389.268C359.88 389.868 360.504 390.54 360.936 391.284L360.18 394.668C359.484 393.78 358.608 393.012 357.552 392.364C356.52 391.716 355.44 391.392 354.312 391.392C353.472 391.392 352.752 391.584 352.152 391.968C351.576 392.328 351.288 392.928 351.288 393.768C351.288 394.392 351.516 394.992 351.972 395.568C352.428 396.12 352.884 396.576 353.34 396.936C354.228 397.656 354.96 398.244 355.536 398.7C356.136 399.156 356.616 399.54 356.976 399.852C357.36 400.164 357.672 400.416 357.912 400.608C358.152 400.8 358.368 400.992 358.56 401.184ZM384.525 396.972H380.637L379.917 400.968H383.481V404.208H379.341L378.225 410.544H375.273L376.389 404.208H372.213L371.097 410.544H368.145L369.261 404.208H365.805V400.968H369.837L370.557 396.972H366.849V393.732H371.133L372.141 388.152H375.093L374.085 393.732H378.261L379.269 388.152H382.221L381.213 393.732H384.525V396.972ZM372.789 400.968H376.965L377.685 396.972H373.509L372.789 400.968ZM388.499 388.296C390.323 390.912 391.595 393.588 392.315 396.324C393.059 399.06 393.431 401.736 393.431 404.352C393.431 406.896 393.059 409.524 392.315 412.236C391.595 414.924 390.323 417.588 388.499 420.228L391.487 420.516C393.407 418.212 394.775 415.704 395.591 412.992C396.431 410.256 396.851 407.376 396.851 404.352C396.851 401.256 396.431 398.34 395.591 395.604C394.775 392.844 393.407 390.324 391.487 388.044L388.499 388.296ZM412.665 401.184C413.193 401.664 413.661 402.144 414.069 402.624C414.501 403.08 414.861 403.572 415.149 404.1C415.461 404.604 415.701 405.144 415.869 405.72C416.037 406.296 416.121 406.92 416.121 407.592C416.121 409.368 415.593 410.856 414.537 412.056C413.505 413.232 412.125 413.976 410.397 414.288V417.996H407.121V414.288C406.401 414.144 405.705 413.928 405.033 413.64C404.361 413.352 403.749 413.016 403.197 412.632C402.669 412.224 402.213 411.804 401.829 411.372C401.469 410.916 401.205 410.472 401.037 410.04L402.081 406.584C402.873 407.832 403.881 408.84 405.105 409.608C406.353 410.376 407.661 410.76 409.029 410.76C410.253 410.76 411.153 410.484 411.729 409.932C412.329 409.356 412.629 408.612 412.629 407.7C412.629 407.028 412.425 406.38 412.017 405.756C411.609 405.132 411.105 404.58 410.505 404.1C408.993 402.828 407.745 401.784 406.761 400.968C405.777 400.152 404.997 399.432 404.421 398.808C403.629 397.968 403.005 397.152 402.549 396.36C402.117 395.544 401.901 394.644 401.901 393.66C401.901 392.076 402.381 390.78 403.341 389.772C404.301 388.74 405.561 388.092 407.121 387.828V384.156H410.397V387.972C411.453 388.236 412.377 388.668 413.169 389.268C413.985 389.868 414.609 390.54 415.041 391.284L414.285 394.668C413.589 393.78 412.713 393.012 411.657 392.364C410.625 391.716 409.545 391.392 408.417 391.392C407.577 391.392 406.857 391.584 406.257 391.968C405.681 392.328 405.393 392.928 405.393 393.768C405.393 394.392 405.621 394.992 406.077 395.568C406.533 396.12 406.989 396.576 407.445 396.936C408.333 397.656 409.065 398.244 409.641 398.7C410.241 399.156 410.721 399.54 411.081 399.852C411.465 400.164 411.777 400.416 412.017 400.608C412.257 400.8 412.473 400.992 412.665 401.184ZM420.81 401.328L424.05 396.792L418.65 394.992L419.694 392.04L424.986 393.732V388.152H428.046V393.732L433.41 392.004L434.454 394.992L429.018 396.792L432.294 401.292L429.882 403.092L426.534 398.52L423.222 403.056L420.81 401.328ZM442.375 414L457.243 388.152H460.699L445.831 414H442.375ZM445.939 399.888C445.171 400.224 444.331 400.392 443.419 400.392C442.507 400.392 441.655 400.224 440.863 399.888C440.095 399.552 439.423 399.096 438.847 398.52C438.295 397.944 437.863 397.284 437.551 396.54C437.239 395.772 437.083 394.956 437.083 394.092C437.083 393.228 437.239 392.424 437.551 391.68C437.863 390.912 438.295 390.24 438.847 389.664C439.423 389.088 440.095 388.632 440.863 388.296C441.655 387.96 442.507 387.792 443.419 387.792C444.331 387.792 445.171 387.96 445.939 388.296C446.731 388.632 447.403 389.088 447.955 389.664C448.531 390.24 448.975 390.912 449.287 391.68C449.599 392.424 449.755 393.228 449.755 394.092C449.755 394.956 449.599 395.772 449.287 396.54C448.975 397.284 448.531 397.944 447.955 398.52C447.403 399.096 446.731 399.552 445.939 399.888ZM445.795 391.896C445.219 391.272 444.427 390.96 443.419 390.96C442.411 390.96 441.607 391.272 441.007 391.896C440.431 392.52 440.143 393.252 440.143 394.092C440.143 394.932 440.431 395.664 441.007 396.288C441.607 396.912 442.411 397.224 443.419 397.224C444.427 397.224 445.219 396.912 445.795 396.288C446.395 395.664 446.695 394.932 446.695 394.092C446.695 393.252 446.395 392.52 445.795 391.896ZM462.175 413.856C461.407 414.192 460.567 414.36 459.655 414.36C458.743 414.36 457.891 414.192 457.099 413.856C456.331 413.52 455.659 413.064 455.083 412.488C454.531 411.912 454.099 411.252 453.787 410.508C453.475 409.74 453.319 408.924 453.319 408.06C453.319 407.196 453.475 406.392 453.787 405.648C454.099 404.88 454.531 404.208 455.083 403.632C455.659 403.056 456.331 402.6 457.099 402.264C457.891 401.928 458.743 401.76 459.655 401.76C460.567 401.76 461.407 401.928 462.175 402.264C462.967 402.6 463.639 403.056 464.191 403.632C464.767 404.208 465.211 404.88 465.523 405.648C465.835 406.392 465.991 407.196 465.991 408.06C465.991 408.924 465.835 409.74 465.523 410.508C465.211 411.252 464.767 411.912 464.191 412.488C463.639 413.064 462.967 413.52 462.175 413.856ZM462.031 405.864C461.455 405.24 460.663 404.928 459.655 404.928C458.647 404.928 457.843 405.24 457.243 405.864C456.667 406.488 456.379 407.22 456.379 408.06C456.379 408.9 456.667 409.632 457.243 410.256C457.843 410.88 458.647 411.192 459.655 411.192C460.663 411.192 461.455 410.88 462.031 410.256C462.631 409.632 462.931 408.9 462.931 408.06C462.931 407.22 462.631 406.488 462.031 405.864ZM490.495 414H486.391L483.763 411.048C482.851 412.08 481.783 412.908 480.559 413.532C479.335 414.132 477.919 414.432 476.311 414.432C475.183 414.432 474.175 414.252 473.287 413.892C472.423 413.532 471.679 413.052 471.055 412.452C470.455 411.828 469.987 411.12 469.651 410.328C469.339 409.512 469.183 408.648 469.183 407.736C469.183 406.944 469.303 406.212 469.543 405.54C469.783 404.868 470.107 404.244 470.515 403.668C470.947 403.068 471.439 402.516 471.991 402.012C472.567 401.508 473.167 401.04 473.791 400.608L474.367 400.176L474.007 399.744C473.095 398.592 472.411 397.584 471.955 396.72C471.499 395.856 471.271 394.932 471.271 393.948C471.271 393.084 471.427 392.28 471.739 391.536C472.075 390.768 472.531 390.108 473.107 389.556C473.683 388.98 474.367 388.536 475.159 388.224C475.951 387.888 476.815 387.72 477.751 387.72C478.735 387.72 479.623 387.888 480.415 388.224C481.207 388.56 481.879 389.016 482.431 389.592C482.983 390.168 483.403 390.84 483.691 391.608C484.003 392.352 484.159 393.156 484.159 394.02C484.159 394.62 484.039 395.208 483.799 395.784C483.583 396.336 483.271 396.888 482.863 397.44C482.479 397.968 482.011 398.484 481.459 398.988C480.931 399.492 480.367 399.96 479.767 400.392L479.191 400.824L483.655 406.008C484.063 405.36 484.435 404.676 484.771 403.956C485.131 403.236 485.479 402.456 485.815 401.616L487.219 404.712C486.835 405.936 486.307 407.124 485.635 408.276L490.495 414ZM477.679 391.32C476.743 391.32 475.987 391.596 475.411 392.148C474.859 392.676 474.583 393.324 474.583 394.092C474.583 394.788 474.763 395.424 475.123 396C475.507 396.576 475.903 397.104 476.311 397.584L477.175 398.556L477.679 398.16C478.063 397.896 478.447 397.608 478.831 397.296C479.215 396.984 479.551 396.66 479.839 396.324C480.151 395.988 480.391 395.64 480.559 395.28C480.751 394.92 480.847 394.548 480.847 394.164C480.847 393.252 480.535 392.556 479.911 392.076C479.311 391.572 478.567 391.32 477.679 391.32ZM476.599 410.832C477.535 410.832 478.411 410.664 479.227 410.328C480.043 409.968 480.859 409.392 481.675 408.6L476.563 402.624L476.095 402.948C475.663 403.26 475.231 403.584 474.799 403.92C474.367 404.232 473.983 404.58 473.647 404.964C473.311 405.324 473.035 405.72 472.819 406.152C472.627 406.584 472.531 407.064 472.531 407.592C472.531 408.576 472.891 409.368 473.611 409.968C474.331 410.544 475.327 410.832 476.599 410.832ZM513.347 414H509.243L506.615 411.048C505.703 412.08 504.635 412.908 503.411 413.532C502.187 414.132 500.771 414.432 499.163 414.432C498.035 414.432 497.027 414.252 496.139 413.892C495.275 413.532 494.531 413.052 493.907 412.452C493.307 411.828 492.839 411.12 492.503 410.328C492.191 409.512 492.035 408.648 492.035 407.736C492.035 406.944 492.155 406.212 492.395 405.54C492.635 404.868 492.959 404.244 493.367 403.668C493.799 403.068 494.291 402.516 494.843 402.012C495.419 401.508 496.019 401.04 496.643 400.608L497.219 400.176L496.859 399.744C495.947 398.592 495.263 397.584 494.807 396.72C494.351 395.856 494.123 394.932 494.123 393.948C494.123 393.084 494.279 392.28 494.591 391.536C494.927 390.768 495.383 390.108 495.959 389.556C496.535 388.98 497.219 388.536 498.011 388.224C498.803 387.888 499.667 387.72 500.603 387.72C501.587 387.72 502.475 387.888 503.267 388.224C504.059 388.56 504.731 389.016 505.283 389.592C505.835 390.168 506.255 390.84 506.543 391.608C506.855 392.352 507.011 393.156 507.011 394.02C507.011 394.62 506.891 395.208 506.651 395.784C506.435 396.336 506.123 396.888 505.715 397.44C505.331 397.968 504.863 398.484 504.311 398.988C503.783 399.492 503.219 399.96 502.619 400.392L502.043 400.824L506.507 406.008C506.915 405.36 507.287 404.676 507.623 403.956C507.983 403.236 508.331 402.456 508.667 401.616L510.071 404.712C509.687 405.936 509.159 407.124 508.487 408.276L513.347 414ZM500.531 391.32C499.595 391.32 498.839 391.596 498.263 392.148C497.711 392.676 497.435 393.324 497.435 394.092C497.435 394.788 497.615 395.424 497.975 396C498.359 396.576 498.755 397.104 499.163 397.584L500.027 398.556L500.531 398.16C500.915 397.896 501.299 397.608 501.683 397.296C502.067 396.984 502.403 396.66 502.691 396.324C503.003 395.988 503.243 395.64 503.411 395.28C503.603 394.92 503.699 394.548 503.699 394.164C503.699 393.252 503.387 392.556 502.763 392.076C502.163 391.572 501.419 391.32 500.531 391.32ZM499.451 410.832C500.387 410.832 501.263 410.664 502.079 410.328C502.895 409.968 503.711 409.392 504.527 408.6L499.415 402.624L498.947 402.948C498.515 403.26 498.083 403.584 497.651 403.92C497.219 404.232 496.835 404.58 496.499 404.964C496.163 405.324 495.887 405.72 495.671 406.152C495.479 406.584 495.383 407.064 495.383 407.592C495.383 408.576 495.743 409.368 496.463 409.968C497.183 410.544 498.179 410.832 499.451 410.832ZM534.29 396.972H530.402L529.682 400.968H533.246V404.208H529.106L527.99 410.544H525.038L526.154 404.208H521.978L520.862 410.544H517.91L519.026 404.208H515.57V400.968H519.602L520.322 396.972H516.614V393.732H520.898L521.906 388.152H524.858L523.85 393.732H528.026L529.034 388.152H531.986L530.978 393.732H534.29V396.972ZM522.554 400.968H526.73L527.45 396.972H523.274L522.554 400.968ZM326.24 449.328L329.48 444.792L324.08 442.992L325.124 440.04L330.416 441.732V436.152H333.476V441.732L338.84 440.004L339.884 442.992L334.448 444.792L337.724 449.292L335.312 451.092L331.964 446.52L328.652 451.056L326.24 449.328ZM352.413 436.296C350.589 438.912 349.305 441.588 348.561 444.324C347.841 447.06 347.481 449.736 347.481 452.352C347.481 454.896 347.841 457.524 348.561 460.236C349.305 462.924 350.589 465.588 352.413 468.228L349.425 468.516C347.505 466.212 346.125 463.704 345.285 460.992C344.469 458.256 344.061 455.376 344.061 452.352C344.061 449.256 344.469 446.34 345.285 443.604C346.125 440.844 347.505 438.324 349.425 436.044L352.413 436.296ZM357.283 449.328L360.523 444.792L355.123 442.992L356.167 440.04L361.459 441.732V436.152H364.519V441.732L369.883 440.004L370.927 442.992L365.491 444.792L368.767 449.292L366.355 451.092L363.007 446.52L359.695 451.056L357.283 449.328ZM378.848 462L393.716 436.152H397.172L382.304 462H378.848ZM382.412 447.888C381.644 448.224 380.804 448.392 379.892 448.392C378.98 448.392 378.128 448.224 377.336 447.888C376.568 447.552 375.896 447.096 375.32 446.52C374.768 445.944 374.336 445.284 374.024 444.54C373.712 443.772 373.556 442.956 373.556 442.092C373.556 441.228 373.712 440.424 374.024 439.68C374.336 438.912 374.768 438.24 375.32 437.664C375.896 437.088 376.568 436.632 377.336 436.296C378.128 435.96 378.98 435.792 379.892 435.792C380.804 435.792 381.644 435.96 382.412 436.296C383.204 436.632 383.876 437.088 384.428 437.664C385.004 438.24 385.448 438.912 385.76 439.68C386.072 440.424 386.228 441.228 386.228 442.092C386.228 442.956 386.072 443.772 385.76 444.54C385.448 445.284 385.004 445.944 384.428 446.52C383.876 447.096 383.204 447.552 382.412 447.888ZM382.268 439.896C381.692 439.272 380.9 438.96 379.892 438.96C378.884 438.96 378.08 439.272 377.48 439.896C376.904 440.52 376.616 441.252 376.616 442.092C376.616 442.932 376.904 443.664 377.48 444.288C378.08 444.912 378.884 445.224 379.892 445.224C380.9 445.224 381.692 444.912 382.268 444.288C382.868 443.664 383.168 442.932 383.168 442.092C383.168 441.252 382.868 440.52 382.268 439.896ZM398.648 461.856C397.88 462.192 397.04 462.36 396.128 462.36C395.216 462.36 394.364 462.192 393.572 461.856C392.804 461.52 392.132 461.064 391.556 460.488C391.004 459.912 390.572 459.252 390.26 458.508C389.948 457.74 389.792 456.924 389.792 456.06C389.792 455.196 389.948 454.392 390.26 453.648C390.572 452.88 391.004 452.208 391.556 451.632C392.132 451.056 392.804 450.6 393.572 450.264C394.364 449.928 395.216 449.76 396.128 449.76C397.04 449.76 397.88 449.928 398.648 450.264C399.44 450.6 400.112 451.056 400.664 451.632C401.24 452.208 401.684 452.88 401.996 453.648C402.308 454.392 402.464 455.196 402.464 456.06C402.464 456.924 402.308 457.74 401.996 458.508C401.684 459.252 401.24 459.912 400.664 460.488C400.112 461.064 399.44 461.52 398.648 461.856ZM398.504 453.864C397.928 453.24 397.136 452.928 396.128 452.928C395.12 452.928 394.316 453.24 393.716 453.864C393.14 454.488 392.852 455.22 392.852 456.06C392.852 456.9 393.14 457.632 393.716 458.256C394.316 458.88 395.12 459.192 396.128 459.192C397.136 459.192 397.928 458.88 398.504 458.256C399.104 457.632 399.404 456.9 399.404 456.06C399.404 455.22 399.104 454.488 398.504 453.864ZM415.448 436.296C413.624 438.912 412.34 441.588 411.596 444.324C410.876 447.06 410.516 449.736 410.516 452.352C410.516 454.896 410.876 457.524 411.596 460.236C412.34 462.924 413.624 465.588 415.448 468.228L412.46 468.516C410.54 466.212 409.16 463.704 408.32 460.992C407.504 458.256 407.096 455.376 407.096 452.352C407.096 449.256 407.504 446.34 408.32 443.604C409.16 440.844 410.54 438.324 412.46 436.044L415.448 436.296ZM438.138 444.972H434.25L433.53 448.968H437.094V452.208H432.954L431.838 458.544H428.886L430.002 452.208H425.826L424.71 458.544H421.758L422.874 452.208H419.418V448.968H423.45L424.17 444.972H420.462V441.732H424.746L425.754 436.152H428.706L427.698 441.732H431.874L432.882 436.152H435.834L434.826 441.732H438.138V444.972ZM426.402 448.968H430.578L431.298 444.972H427.122L426.402 448.968ZM451.94 436.296C450.116 438.912 448.832 441.588 448.088 444.324C447.368 447.06 447.008 449.736 447.008 452.352C447.008 454.896 447.368 457.524 448.088 460.236C448.832 462.924 450.116 465.588 451.94 468.228L448.952 468.516C447.032 466.212 445.652 463.704 444.812 460.992C443.996 458.256 443.588 455.376 443.588 452.352C443.588 449.256 443.996 446.34 444.812 443.604C445.652 440.844 447.032 438.324 448.952 436.044L451.94 436.296ZM455.19 436.296C457.014 438.912 458.286 441.588 459.006 444.324C459.75 447.06 460.122 449.736 460.122 452.352C460.122 454.896 459.75 457.524 459.006 460.236C458.286 462.924 457.014 465.588 455.19 468.228L458.178 468.516C460.098 466.212 461.466 463.704 462.282 460.992C463.122 458.256 463.542 455.376 463.542 452.352C463.542 449.256 463.122 446.34 462.282 443.604C461.466 440.844 460.098 438.324 458.178 436.044L455.19 436.296ZM486.736 454.62C486.496 454.284 486.052 454.032 485.404 453.864C484.78 453.672 484.108 453.576 483.388 453.576C482.332 453.576 481.504 453.744 480.904 454.08C480.304 454.392 480.004 454.836 480.004 455.412C480.004 456.036 480.292 456.516 480.868 456.852C481.468 457.188 482.308 457.356 483.388 457.356C484.132 457.356 484.816 457.236 485.44 456.996C486.064 456.732 486.496 456.372 486.736 455.916V454.62ZM489.652 454.512C489.652 455.256 489.832 455.892 490.192 456.42C490.576 456.948 491.164 457.212 491.956 457.212C492.556 457.212 493.036 457.032 493.396 456.672C493.78 456.312 494.068 455.868 494.26 455.34C494.452 454.812 494.572 454.248 494.62 453.648C494.692 453.024 494.728 452.46 494.728 451.956C494.728 450.3 494.428 448.812 493.828 447.492C493.228 446.148 492.424 445.008 491.416 444.072C490.408 443.112 489.232 442.38 487.888 441.876C486.568 441.372 485.176 441.12 483.712 441.12C482.128 441.12 480.652 441.408 479.284 441.984C477.916 442.56 476.716 443.364 475.684 444.396C474.676 445.428 473.872 446.664 473.272 448.104C472.696 449.52 472.408 451.068 472.408 452.748C472.408 454.404 472.66 455.952 473.164 457.392C473.692 458.808 474.448 460.044 475.432 461.1C476.416 462.132 477.604 462.936 478.996 463.512C480.412 464.112 482.008 464.412 483.784 464.412C485.056 464.412 486.196 464.292 487.204 464.052C488.212 463.812 489.172 463.344 490.084 462.648L490.66 465.348C489.94 466.044 488.968 466.608 487.744 467.04C486.52 467.472 485.2 467.688 483.784 467.688C481.744 467.688 479.848 467.304 478.096 466.536C476.344 465.792 474.82 464.748 473.524 463.404C472.228 462.06 471.208 460.488 470.464 458.688C469.72 456.864 469.348 454.884 469.348 452.748C469.348 450.708 469.708 448.788 470.428 446.988C471.172 445.164 472.18 443.58 473.452 442.236C474.748 440.892 476.26 439.824 477.988 439.032C479.74 438.24 481.624 437.844 483.64 437.844C485.512 437.844 487.3 438.192 489.004 438.888C490.708 439.584 492.208 440.556 493.504 441.804C494.8 443.052 495.832 444.54 496.6 446.268C497.368 447.996 497.752 449.88 497.752 451.92C497.752 452.976 497.656 454.008 497.464 455.016C497.272 456.024 496.936 456.924 496.456 457.716C496 458.508 495.388 459.144 494.62 459.624C493.876 460.104 492.952 460.344 491.848 460.344C490.888 460.344 490.06 460.176 489.364 459.84C488.692 459.48 488.068 458.952 487.492 458.256C487.276 458.544 486.988 458.82 486.628 459.084C486.292 459.324 485.896 459.54 485.44 459.732C485.008 459.924 484.54 460.08 484.036 460.2C483.556 460.296 483.064 460.344 482.56 460.344C480.904 460.344 479.572 459.912 478.564 459.048C477.556 458.184 477.052 456.984 477.052 455.448C477.052 454.704 477.196 454.044 477.484 453.468C477.796 452.868 478.204 452.364 478.708 451.956C479.236 451.548 479.836 451.248 480.508 451.056C481.204 450.84 481.936 450.732 482.704 450.732C483.544 450.732 484.324 450.84 485.044 451.056C485.788 451.272 486.352 451.548 486.736 451.884V451.308C486.736 450.204 486.376 449.388 485.656 448.86C484.936 448.308 484.048 448.032 482.992 448.032C482.152 448.032 481.3 448.236 480.436 448.644C479.596 449.028 478.912 449.532 478.384 450.156L477.736 447.564C478.264 446.724 479.044 446.064 480.076 445.584C481.132 445.08 482.2 444.828 483.28 444.828C484.216 444.828 485.068 444.96 485.836 445.224C486.628 445.464 487.3 445.836 487.852 446.34C488.428 446.82 488.872 447.42 489.184 448.14C489.496 448.86 489.652 449.7 489.652 450.66V454.512ZM523.437 462H519.333L516.705 459.048C515.793 460.08 514.725 460.908 513.501 461.532C512.277 462.132 510.861 462.432 509.253 462.432C508.125 462.432 507.117 462.252 506.229 461.892C505.365 461.532 504.621 461.052 503.997 460.452C503.397 459.828 502.929 459.12 502.593 458.328C502.281 457.512 502.125 456.648 502.125 455.736C502.125 454.944 502.245 454.212 502.485 453.54C502.725 452.868 503.049 452.244 503.457 451.668C503.889 451.068 504.381 450.516 504.933 450.012C505.509 449.508 506.109 449.04 506.733 448.608L507.309 448.176L506.949 447.744C506.037 446.592 505.353 445.584 504.897 444.72C504.441 443.856 504.213 442.932 504.213 441.948C504.213 441.084 504.369 440.28 504.681 439.536C505.017 438.768 505.473 438.108 506.049 437.556C506.625 436.98 507.309 436.536 508.101 436.224C508.893 435.888 509.757 435.72 510.693 435.72C511.677 435.72 512.565 435.888 513.357 436.224C514.149 436.56 514.821 437.016 515.373 437.592C515.925 438.168 516.345 438.84 516.633 439.608C516.945 440.352 517.101 441.156 517.101 442.02C517.101 442.62 516.981 443.208 516.741 443.784C516.525 444.336 516.213 444.888 515.805 445.44C515.421 445.968 514.953 446.484 514.401 446.988C513.873 447.492 513.309 447.96 512.709 448.392L512.133 448.824L516.597 454.008C517.005 453.36 517.377 452.676 517.713 451.956C518.073 451.236 518.421 450.456 518.757 449.616L520.161 452.712C519.777 453.936 519.249 455.124 518.577 456.276L523.437 462ZM510.621 439.32C509.685 439.32 508.929 439.596 508.353 440.148C507.801 440.676 507.525 441.324 507.525 442.092C507.525 442.788 507.705 443.424 508.065 444C508.449 444.576 508.845 445.104 509.253 445.584L510.117 446.556L510.621 446.16C511.005 445.896 511.389 445.608 511.773 445.296C512.157 444.984 512.493 444.66 512.781 444.324C513.093 443.988 513.333 443.64 513.501 443.28C513.693 442.92 513.789 442.548 513.789 442.164C513.789 441.252 513.477 440.556 512.853 440.076C512.253 439.572 511.509 439.32 510.621 439.32ZM509.541 458.832C510.477 458.832 511.353 458.664 512.169 458.328C512.985 457.968 513.801 457.392 514.617 456.6L509.505 450.624L509.037 450.948C508.605 451.26 508.173 451.584 507.741 451.92C507.309 452.232 506.925 452.58 506.589 452.964C506.253 453.324 505.977 453.72 505.761 454.152C505.569 454.584 505.473 455.064 505.473 455.592C505.473 456.576 505.833 457.368 506.553 457.968C507.273 458.544 508.269 458.832 509.541 458.832ZM524.94 436.296C526.764 438.912 528.036 441.588 528.756 444.324C529.5 447.06 529.872 449.736 529.872 452.352C529.872 454.896 529.5 457.524 528.756 460.236C528.036 462.924 526.764 465.588 524.94 468.228L527.928 468.516C529.848 466.212 531.216 463.704 532.032 460.992C532.872 458.256 533.292 455.376 533.292 452.352C533.292 449.256 532.872 446.34 532.032 443.604C531.216 440.844 529.848 438.324 527.928 436.044L524.94 436.296Z" fill="black"/>
</svg>
