<svg width="867" height="253" viewBox="0 0 867 253" fill="none" xmlns="http://www.w3.org/2000/svg">
<path d="M25 29.1887L36.9976 19.9057H43.2964V74.0943H36.2478V29.1132L25 37.2642V29.1887Z" fill="black"/>
<path d="M69.2512 26.6981C67.8015 26.6981 66.4767 26.9245 65.277 27.3774C64.1272 27.7799 63.1024 28.3333 62.2026 29.0377C61.3027 29.6918 60.5029 30.4465 59.803 31.3019C59.1532 32.1069 58.6033 32.9371 58.1534 33.7925L55.004 28.434C55.4039 27.1761 56.0288 25.9937 56.8786 24.8868C57.7785 23.7296 58.8532 22.7233 60.103 21.8679C61.3527 20.9623 62.7525 20.2579 64.3022 19.7547C65.9018 19.2516 67.6015 19 69.4011 19C71.8507 19 74.0002 19.4277 75.8499 20.283C77.7495 21.088 79.3492 22.195 80.6489 23.6038C81.9487 25.0126 82.9235 26.6478 83.5733 28.5094C84.2732 30.3711 84.6231 32.3585 84.6231 34.4717C84.6231 36.434 84.3732 38.2704 83.8733 39.9811C83.4234 41.6918 82.7485 43.4025 81.8487 45.1132C80.9488 46.8239 79.8491 48.5597 78.5493 50.3208C77.2496 52.0314 75.7749 53.8931 74.1252 55.9057L65.202 66.4717H86.1228V74.0943H55.154V67.9057L69.4011 51.0755C71.8007 48.2075 73.7503 45.5409 75.25 43.0755C76.7497 40.5597 77.4995 37.9434 77.4995 35.2264C77.4995 34.0189 77.2996 32.9119 76.8997 31.9057C76.5497 30.8491 75.9998 29.9434 75.25 29.1887C74.5501 28.434 73.6753 27.8302 72.6255 27.3774C71.6257 26.9245 70.5009 26.6981 69.2512 26.6981Z" fill="black"/>
<path d="M109.099 67.3019C112.349 67.3019 114.923 66.4214 116.823 64.6604C118.722 62.8994 119.672 60.5094 119.672 57.4906C119.672 56.1824 119.422 54.9497 118.922 53.7925C118.422 52.6352 117.698 51.6289 116.748 50.7736C115.798 49.9182 114.648 49.239 113.298 48.7359C111.949 48.2327 110.449 47.9811 108.799 47.9811C107.9 47.9811 107.025 48.0566 106.175 48.2075C105.325 48.3082 104.55 48.4843 103.85 48.7359L102.576 42.6226L114.498 27.5283H96.6518V19.9057H123.721V25.7925L112.024 40.5094C113.723 40.6101 115.448 41.0629 117.198 41.8679C118.947 42.6226 120.522 43.7296 121.922 45.1887C123.371 46.5975 124.521 48.3333 125.371 50.3962C126.271 52.4088 126.721 54.6981 126.721 57.2642C126.721 59.6289 126.296 61.8931 125.446 64.0566C124.596 66.2201 123.396 68.1069 121.847 69.717C120.297 71.327 118.422 72.6101 116.223 73.566C114.073 74.522 111.649 75 108.949 75C107.15 75 105.4 74.7484 103.7 74.2453C102.051 73.7924 100.526 73.1635 99.1263 72.3585C97.7266 71.5535 96.5268 70.6478 95.527 69.6415C94.5772 68.6352 93.9023 67.6038 93.5024 66.5472L95.452 60.0566C97.2017 62.6226 99.2013 64.4843 101.451 65.6415C103.75 66.7484 106.3 67.3019 109.099 67.3019Z" fill="black"/>
<path d="M154.916 19.9057H161.74V50.3208H168.189V57.9434H161.74V74.0943H154.691V57.9434H133.096V51.3019L154.916 19.9057ZM154.691 50.3208V31L141.269 50.3208H154.691Z" fill="black"/>
<path d="M190.042 67.3019C193.292 67.3019 195.866 66.3962 197.766 64.5849C199.665 62.7233 200.615 60.283 200.615 57.2642C200.615 55.7044 200.315 54.3208 199.715 53.1132C199.165 51.9057 198.416 50.8994 197.466 50.0943C196.566 49.239 195.491 48.5849 194.241 48.1321C192.992 47.6792 191.692 47.4528 190.342 47.4528C187.143 47.4528 184.368 48.3333 182.019 50.0943L176.32 48.8868L178.869 19.9057H203.914V27.5283H184.268L183.144 41.7925C184.393 41.088 185.643 40.5849 186.893 40.283C188.143 39.9308 189.592 39.7547 191.242 39.7547C193.592 39.7547 195.766 40.2075 197.766 41.1132C199.765 41.9686 201.49 43.1761 202.94 44.7358C204.439 46.2453 205.589 48.0566 206.389 50.1698C207.239 52.2327 207.664 54.4969 207.664 56.9623C207.664 59.3774 207.239 61.6667 206.389 63.8302C205.539 65.9937 204.339 67.9057 202.79 69.566C201.24 71.2264 199.365 72.5597 197.166 73.566C195.016 74.522 192.592 75 189.892 75C188.093 75 186.343 74.7484 184.643 74.2453C182.994 73.7924 181.469 73.1635 180.069 72.3585C178.669 71.5535 177.47 70.6478 176.47 69.6415C175.52 68.6352 174.845 67.6038 174.445 66.5472L176.545 59.9057C178.145 62.4214 180.094 64.283 182.394 65.4906C184.693 66.6981 187.243 67.3019 190.042 67.3019Z" fill="black"/>
<path d="M229.693 39.8302C230.193 39.7296 230.643 39.6792 231.043 39.6792C231.493 39.6289 232.092 39.6038 232.842 39.6038C235.592 39.6038 238.066 40.0818 240.266 41.0377C242.465 41.9937 244.315 43.2767 245.815 44.8868C247.364 46.4465 248.539 48.3082 249.339 50.4717C250.189 52.5849 250.614 54.7987 250.614 57.1132C250.614 59.6289 250.139 61.9686 249.189 64.1321C248.239 66.2956 246.94 68.1824 245.29 69.7925C243.69 71.4025 241.816 72.6855 239.666 73.6415C237.566 74.5472 235.342 75 232.992 75C230.493 75 228.168 74.5472 226.019 73.6415C223.869 72.7359 222.019 71.478 220.47 69.8679C218.92 68.2579 217.695 66.3711 216.796 64.2076C215.946 62.044 215.521 59.7044 215.521 57.1887C215.521 54.2201 216.021 51.4025 217.02 48.7359C218.07 46.0189 219.27 43.5283 220.62 41.2642L233.367 19.9057H241.616L229.693 39.8302ZM228.943 66.6226C230.243 67.0755 231.618 67.3019 233.067 67.3019C234.517 67.3019 235.867 67.0503 237.116 66.5472C238.416 66.044 239.516 65.3648 240.416 64.5094C241.366 63.6038 242.115 62.5472 242.665 61.3396C243.215 60.1321 243.49 58.8239 243.49 57.4151C243.49 56.0063 243.24 54.6981 242.74 53.4906C242.24 52.2327 241.516 51.1509 240.566 50.2453C239.616 49.3396 238.491 48.6352 237.191 48.1321C235.892 47.5786 234.467 47.3019 232.917 47.3019C231.468 47.3019 230.118 47.5535 228.868 48.0566C227.618 48.5094 226.519 49.1887 225.569 50.0943C224.669 51 223.944 52.0818 223.394 53.3396C222.894 54.5472 222.644 55.9057 222.644 57.4151C222.644 58.9245 222.919 60.283 223.469 61.4906C224.019 62.6981 224.744 63.7296 225.644 64.5849C226.594 65.4403 227.693 66.1195 228.943 66.6226Z" fill="black"/>
<path d="M278.44 27.5283H255.869V19.9057H286.688V25.9434L266.592 74.0943H259.094L278.44 27.5283Z" fill="black"/>
<path d="M320.522 45.717C322.922 47.1761 324.696 49.1132 325.846 51.5283C327.046 53.9434 327.646 56.4591 327.646 59.0755C327.646 61.3396 327.196 63.4528 326.296 65.4151C325.446 67.327 324.246 69.0126 322.697 70.4717C321.197 71.8805 319.397 72.9874 317.298 73.7925C315.248 74.5975 312.999 75 310.549 75C308.1 75 305.825 74.5975 303.725 73.7925C301.676 72.9874 299.876 71.8805 298.327 70.4717C296.827 69.0126 295.627 67.327 294.727 65.4151C293.877 63.4528 293.453 61.3396 293.453 59.0755C293.453 56.4591 294.027 53.9434 295.177 51.5283C296.377 49.1132 298.177 47.1761 300.576 45.717C298.976 44.761 297.627 43.2767 296.527 41.2642C295.427 39.2013 294.877 36.8365 294.877 34.1698C294.877 32.1069 295.252 30.1698 296.002 28.3585C296.802 26.4969 297.877 24.8868 299.226 23.5283C300.626 22.1195 302.276 21.0126 304.175 20.2075C306.125 19.4025 308.25 19 310.549 19C312.849 19 314.948 19.4025 316.848 20.2075C318.798 21.0126 320.447 22.1195 321.797 23.5283C323.197 24.8868 324.271 26.4969 325.021 28.3585C325.821 30.1698 326.221 32.1069 326.221 34.1698C326.221 36.8365 325.671 39.2013 324.571 41.2642C323.472 43.2767 322.122 44.761 320.522 45.717ZM314.148 27.3774C313.099 26.9245 311.899 26.6981 310.549 26.6981C309.199 26.6981 307.975 26.9245 306.875 27.3774C305.825 27.8302 304.925 28.434 304.175 29.1887C303.476 29.9434 302.926 30.7987 302.526 31.7547C302.176 32.6604 302.001 33.5912 302.001 34.5472C302.001 35.5535 302.176 36.5094 302.526 37.4151C302.926 38.3208 303.476 39.1509 304.175 39.9057C304.925 40.6101 305.825 41.1887 306.875 41.6415C307.975 42.044 309.199 42.2453 310.549 42.2453C311.899 42.2453 313.099 42.044 314.148 41.6415C315.248 41.1887 316.148 40.6101 316.848 39.9057C317.598 39.1509 318.148 38.3208 318.498 37.4151C318.897 36.5094 319.097 35.5535 319.097 34.5472C319.097 33.5912 318.897 32.6604 318.498 31.7547C318.148 30.7987 317.598 29.9434 316.848 29.1887C316.148 28.434 315.248 27.8302 314.148 27.3774ZM306.5 66.6226C307.75 67.0755 309.099 67.3019 310.549 67.3019C311.999 67.3019 313.324 67.0755 314.523 66.6226C315.773 66.1698 316.823 65.5409 317.673 64.7358C318.573 63.9308 319.272 63 319.772 61.9434C320.272 60.8365 320.522 59.6792 320.522 58.4717C320.522 57.2138 320.272 56.0566 319.772 55C319.272 53.8931 318.573 52.9371 317.673 52.1321C316.823 51.327 315.773 50.6981 314.523 50.2453C313.324 49.7925 311.999 49.566 310.549 49.566C309.099 49.566 307.75 49.7925 306.5 50.2453C305.3 50.6981 304.25 51.327 303.351 52.1321C302.501 52.9371 301.826 53.8931 301.326 55C300.826 56.0566 300.576 57.2138 300.576 58.4717C300.576 59.6792 300.826 60.8365 301.326 61.9434C301.826 63 302.501 63.9308 303.351 64.7358C304.25 65.5409 305.3 66.1698 306.5 66.6226Z" fill="black"/>
<path d="M356.828 54.1698C356.328 54.2704 355.853 54.3459 355.403 54.3962C355.003 54.3962 354.428 54.3962 353.678 54.3962C350.929 54.3962 348.454 53.9182 346.255 52.9623C344.055 52.0063 342.181 50.7484 340.631 49.1887C339.131 47.5786 337.957 45.717 337.107 43.6038C336.307 41.4403 335.907 39.2013 335.907 36.8868C335.907 34.3711 336.382 32.0314 337.332 29.8679C338.282 27.7044 339.556 25.8176 341.156 24.2075C342.806 22.5975 344.68 21.3396 346.78 20.434C348.929 19.478 351.179 19 353.529 19C356.028 19 358.353 19.4528 360.502 20.3585C362.652 21.2642 364.501 22.522 366.051 24.1321C367.601 25.7421 368.8 27.6289 369.65 29.7925C370.55 31.956 371 34.2956 371 36.8113C371 39.7799 370.475 42.6226 369.425 45.3396C368.426 48.0063 367.251 50.4717 365.901 52.7358L353.154 74.0943H344.905L356.828 54.1698ZM357.503 27.4528C356.253 26.9497 354.903 26.6981 353.453 26.6981C352.004 26.6981 350.629 26.9497 349.329 27.4528C348.08 27.956 346.98 28.6604 346.03 29.566C345.13 30.4214 344.405 31.4528 343.855 32.6604C343.306 33.8679 343.031 35.1761 343.031 36.5849C343.031 37.9937 343.281 39.327 343.78 40.5849C344.28 41.7925 345.005 42.8491 345.955 43.7547C346.905 44.6604 348.03 45.3899 349.329 45.9434C350.629 46.4465 352.054 46.6981 353.603 46.6981C355.053 46.6981 356.403 46.4717 357.653 46.0189C358.902 45.5157 359.977 44.8113 360.877 43.9057C361.827 43 362.552 41.9434 363.052 40.7358C363.602 39.478 363.876 38.0943 363.876 36.5849C363.876 35.0755 363.602 33.717 363.052 32.5094C362.502 31.3019 361.752 30.2704 360.802 29.4151C359.902 28.5597 358.802 27.9057 357.503 27.4528Z" fill="black"/>
<path d="M453.725 29.1887L465.728 19.9057H472.029V66.3962H485.157V74.0943H452V66.3962H464.978V29.1132L453.725 37.2642V29.1887Z" fill="black"/>
<path d="M511.233 26.6981C509.783 26.6981 508.458 26.9245 507.258 27.3774C506.107 27.7799 505.082 28.3333 504.182 29.0377C503.282 29.6918 502.482 30.4465 501.781 31.3019C501.131 32.1069 500.581 32.9371 500.131 33.7925L496.98 28.434C497.38 27.1761 498.006 25.9937 498.856 24.8868C499.756 23.7296 500.831 22.7233 502.081 21.8679C503.332 20.9623 504.732 20.2579 506.282 19.7547C507.883 19.2516 509.583 19 511.383 19C513.834 19 515.984 19.4277 517.835 20.283C519.735 21.088 521.336 22.195 522.636 23.6038C523.936 25.0126 524.911 26.6478 525.562 28.5094C526.262 30.3711 526.612 32.3585 526.612 34.4717C526.612 36.434 526.362 38.2704 525.862 39.9811C525.411 41.6918 524.736 43.4025 523.836 45.1132C522.936 46.8239 521.836 48.5597 520.535 50.3208C519.235 52.0314 517.76 53.8931 516.109 55.9057L507.183 66.4717H528.112V74.0943H497.13V67.9057L511.383 51.0755C513.784 48.2075 515.734 45.5409 517.235 43.0755C518.735 40.5597 519.485 37.9434 519.485 35.2264C519.485 34.0189 519.285 32.9119 518.885 31.9057C518.535 30.8491 517.985 29.9434 517.235 29.1887C516.535 28.434 515.659 27.8302 514.609 27.3774C513.609 26.9245 512.484 26.6981 511.233 26.6981Z" fill="black"/>
<path d="M556.514 67.3019C559.765 67.3019 562.34 66.4214 564.241 64.6604C566.141 62.8994 567.091 60.5094 567.091 57.4906C567.091 56.1824 566.841 54.9497 566.341 53.7925C565.841 52.6352 565.116 51.6289 564.165 50.7736C563.215 49.9182 562.065 49.239 560.715 48.7359C559.364 48.2327 557.864 47.9811 556.214 47.9811C555.314 47.9811 554.438 48.0566 553.588 48.2075C552.738 48.3082 551.963 48.4843 551.263 48.7359L549.987 42.6226L561.915 27.5283H544.061V19.9057H571.142V25.7925L559.439 40.5094C561.14 40.6101 562.865 41.0629 564.616 41.8679C566.366 42.6226 567.941 43.7296 569.342 45.1887C570.792 46.5975 571.942 48.3333 572.792 50.3962C573.693 52.4088 574.143 54.6981 574.143 57.2642C574.143 59.6289 573.718 61.8931 572.867 64.0566C572.017 66.2201 570.817 68.1069 569.267 69.717C567.716 71.327 565.841 72.6101 563.64 73.566C561.49 74.522 559.064 75 556.364 75C554.563 75 552.813 74.7484 551.113 74.2453C549.462 73.7924 547.937 73.1635 546.537 72.3585C545.136 71.5535 543.936 70.6478 542.936 69.6415C541.986 68.6352 541.311 67.6038 540.91 66.5472L542.861 60.0566C544.611 62.6226 546.612 64.4843 548.862 65.6415C551.163 66.7484 553.713 67.3019 556.514 67.3019Z" fill="black"/>
<path d="M606.82 19.9057H613.647V50.3208H620.098V57.9434H613.647V74.0943H606.595V57.9434H584.991V51.3019L606.82 19.9057ZM606.595 50.3208V31L593.167 50.3208H606.595Z" fill="black"/>
<path d="M646.475 67.3019C649.725 67.3019 652.301 66.3962 654.201 64.5849C656.102 62.7233 657.052 60.283 657.052 57.2642C657.052 55.7044 656.752 54.3208 656.152 53.1132C655.602 51.9057 654.851 50.8994 653.901 50.0943C653.001 49.239 651.926 48.5849 650.675 48.1321C649.425 47.6792 648.125 47.4528 646.775 47.4528C643.574 47.4528 640.798 48.3333 638.448 50.0943L632.747 48.8868L635.297 19.9057H660.353V27.5283H640.698L639.573 41.7925C640.823 41.088 642.074 40.5849 643.324 40.283C644.574 39.9308 646.024 39.7547 647.675 39.7547C650.025 39.7547 652.201 40.2075 654.201 41.1132C656.202 41.9686 657.927 43.1761 659.377 44.7358C660.878 46.2453 662.028 48.0566 662.828 50.1698C663.678 52.2327 664.103 54.4969 664.103 56.9623C664.103 59.3774 663.678 61.6667 662.828 63.8302C661.978 65.9937 660.778 67.9057 659.227 69.566C657.677 71.2264 655.802 72.5597 653.601 73.566C651.451 74.522 649.025 75 646.325 75C644.524 75 642.774 74.7484 641.073 74.2453C639.423 73.7924 637.898 73.1635 636.497 72.3585C635.097 71.5535 633.897 70.6478 632.897 69.6415C631.946 68.6352 631.271 67.6038 630.871 66.5472L632.972 59.9057C634.572 62.4214 636.522 64.283 638.823 65.4906C641.123 66.6981 643.674 67.3019 646.475 67.3019Z" fill="black"/>
<path d="M689.129 39.8302C689.63 39.7296 690.08 39.6792 690.48 39.6792C690.93 39.6289 691.53 39.6038 692.28 39.6038C695.031 39.6038 697.506 40.0818 699.707 41.0377C701.907 41.9937 703.758 43.2767 705.258 44.8868C706.808 46.4465 707.983 48.3082 708.784 50.4717C709.634 52.5849 710.059 54.7987 710.059 57.1132C710.059 59.6289 709.584 61.9686 708.634 64.1321C707.683 66.2956 706.383 68.1824 704.733 69.7925C703.132 71.4025 701.257 72.6855 699.107 73.6415C697.006 74.5472 694.781 75 692.43 75C689.93 75 687.604 74.5472 685.454 73.6415C683.303 72.7359 681.453 71.478 679.902 69.8679C678.352 68.2579 677.127 66.3711 676.227 64.2076C675.376 62.044 674.951 59.7044 674.951 57.1887C674.951 54.2201 675.451 51.4025 676.452 48.7359C677.502 46.0189 678.702 43.5283 680.052 41.2642L692.805 19.9057H701.057L689.129 39.8302ZM688.379 66.6226C689.68 67.0755 691.055 67.3019 692.505 67.3019C693.955 67.3019 695.306 67.0503 696.556 66.5472C697.856 66.044 698.957 65.3648 699.857 64.5094C700.807 63.6038 701.557 62.5472 702.107 61.3396C702.657 60.1321 702.932 58.8239 702.932 57.4151C702.932 56.0063 702.682 54.6981 702.182 53.4906C701.682 52.2327 700.957 51.1509 700.007 50.2453C699.057 49.3396 697.931 48.6352 696.631 48.1321C695.331 47.5786 693.905 47.3019 692.355 47.3019C690.905 47.3019 689.555 47.5535 688.304 48.0566C687.054 48.5094 685.954 49.1887 685.004 50.0943C684.103 51 683.378 52.0818 682.828 53.3396C682.328 54.5472 682.078 55.9057 682.078 57.4151C682.078 58.9245 682.353 60.283 682.903 61.4906C683.453 62.6981 684.178 63.7296 685.079 64.5849C686.029 65.4403 687.129 66.1195 688.379 66.6226Z" fill="black"/>
<path d="M744.687 27.5283H722.107V19.9057H752.939V25.9434L732.835 74.0943H725.333L744.687 27.5283Z" fill="black"/>
<path d="M792.443 45.717C794.844 47.1761 796.619 49.1132 797.769 51.5283C798.969 53.9434 799.57 56.4591 799.57 59.0755C799.57 61.3396 799.119 63.4528 798.219 65.4151C797.369 67.327 796.169 69.0126 794.618 70.4717C793.118 71.8805 791.318 72.9874 789.217 73.7925C787.167 74.5975 784.916 75 782.466 75C780.015 75 777.74 74.5975 775.639 73.7925C773.589 72.9874 771.789 71.8805 770.238 70.4717C768.738 69.0126 767.538 67.327 766.637 65.4151C765.787 63.4528 765.362 61.3396 765.362 59.0755C765.362 56.4591 765.937 53.9434 767.088 51.5283C768.288 49.1132 770.088 47.1761 772.489 45.717C770.888 44.761 769.538 43.2767 768.438 41.2642C767.338 39.2013 766.788 36.8365 766.788 34.1698C766.788 32.1069 767.163 30.1698 767.913 28.3585C768.713 26.4969 769.788 24.8868 771.138 23.5283C772.539 22.1195 774.189 21.0126 776.089 20.2075C778.04 19.4025 780.165 19 782.466 19C784.766 19 786.867 19.4025 788.767 20.2075C790.718 21.0126 792.368 22.1195 793.718 23.5283C795.119 24.8868 796.194 26.4969 796.944 28.3585C797.744 30.1698 798.144 32.1069 798.144 34.1698C798.144 36.8365 797.594 39.2013 796.494 41.2642C795.394 43.2767 794.043 44.761 792.443 45.717ZM786.067 27.3774C785.016 26.9245 783.816 26.6981 782.466 26.6981C781.116 26.6981 779.89 26.9245 778.79 27.3774C777.74 27.8302 776.84 28.434 776.089 29.1887C775.389 29.9434 774.839 30.7987 774.439 31.7547C774.089 32.6604 773.914 33.5912 773.914 34.5472C773.914 35.5535 774.089 36.5094 774.439 37.4151C774.839 38.3208 775.389 39.1509 776.089 39.9057C776.84 40.6101 777.74 41.1887 778.79 41.6415C779.89 42.044 781.116 42.2453 782.466 42.2453C783.816 42.2453 785.016 42.044 786.067 41.6415C787.167 41.1887 788.067 40.6101 788.767 39.9057C789.517 39.1509 790.068 38.3208 790.418 37.4151C790.818 36.5094 791.018 35.5535 791.018 34.5472C791.018 33.5912 790.818 32.6604 790.418 31.7547C790.068 30.7987 789.517 29.9434 788.767 29.1887C788.067 28.434 787.167 27.8302 786.067 27.3774ZM778.415 66.6226C779.665 67.0755 781.016 67.3019 782.466 67.3019C783.916 67.3019 785.241 67.0755 786.442 66.6226C787.692 66.1698 788.742 65.5409 789.592 64.7358C790.493 63.9308 791.193 63 791.693 61.9434C792.193 60.8365 792.443 59.6792 792.443 58.4717C792.443 57.2138 792.193 56.0566 791.693 55C791.193 53.8931 790.493 52.9371 789.592 52.1321C788.742 51.327 787.692 50.6981 786.442 50.2453C785.241 49.7925 783.916 49.566 782.466 49.566C781.016 49.566 779.665 49.7925 778.415 50.2453C777.215 50.6981 776.164 51.327 775.264 52.1321C774.414 52.9371 773.739 53.8931 773.239 55C772.739 56.0566 772.489 57.2138 772.489 58.4717C772.489 59.6792 772.739 60.8365 773.239 61.9434C773.739 63 774.414 63.9308 775.264 64.7358C776.164 65.5409 777.215 66.1698 778.415 66.6226Z" fill="black"/>
<path d="M830.822 54.1698C830.322 54.2704 829.847 54.3459 829.397 54.3962C828.997 54.3962 828.421 54.3962 827.671 54.3962C824.921 54.3962 822.445 53.9182 820.245 52.9623C818.044 52.0063 816.169 50.7484 814.618 49.1887C813.118 47.5786 811.943 45.717 811.093 43.6038C810.293 41.4403 809.892 39.2013 809.892 36.8868C809.892 34.3711 810.368 32.0314 811.318 29.8679C812.268 27.7044 813.543 25.8176 815.144 24.2075C816.794 22.5975 818.669 21.3396 820.77 20.434C822.92 19.478 825.171 19 827.521 19C830.022 19 832.347 19.4528 834.498 20.3585C836.648 21.2642 838.499 22.522 840.049 24.1321C841.599 25.7421 842.799 27.6289 843.65 29.7925C844.55 31.956 845 34.2956 845 36.8113C845 39.7799 844.475 42.6226 843.425 45.3396C842.424 48.0063 841.249 50.4717 839.899 52.7358L827.146 74.0943H818.894L830.822 54.1698ZM831.497 27.4528C830.247 26.9497 828.897 26.6981 827.446 26.6981C825.996 26.6981 824.621 26.9497 823.32 27.4528C822.07 27.956 820.97 28.6604 820.02 29.566C819.119 30.4214 818.394 31.4528 817.844 32.6604C817.294 33.8679 817.019 35.1761 817.019 36.5849C817.019 37.9937 817.269 39.327 817.769 40.5849C818.269 41.7925 818.994 42.8491 819.945 43.7547C820.895 44.6604 822.02 45.3899 823.32 45.9434C824.621 46.4465 826.046 46.6981 827.596 46.6981C829.047 46.6981 830.397 46.4717 831.647 46.0189C832.897 45.5157 833.973 44.8113 834.873 43.9057C835.823 43 836.548 41.9434 837.048 40.7358C837.598 39.478 837.873 38.0943 837.873 36.5849C837.873 35.0755 837.598 33.717 837.048 32.5094C836.498 31.3019 835.748 30.2704 834.798 29.4151C833.898 28.5597 832.797 27.9057 831.497 27.4528Z" fill="black"/>
<path d="M25 170.689L37.0632 161.416H43.1323V199.037H36.314V170.01L25 178.228V170.689Z" fill="black"/>
<path d="M86.0754 191.724V199.037H55.3554V193.005C57.4034 191.749 59.3515 190.568 61.1997 189.462C62.7981 188.507 64.3466 187.552 65.8451 186.597C67.3936 185.642 68.5925 184.888 69.4416 184.335C70.4906 183.682 71.5146 182.978 72.5136 182.224C73.5127 181.47 74.4118 180.691 75.211 179.887C76.0102 179.083 76.6596 178.228 77.1591 177.324C77.6586 176.369 77.9084 175.363 77.9084 174.308C77.9084 172.247 77.1591 170.664 75.6606 169.558C74.162 168.402 72.3138 167.824 70.116 167.824C67.5685 167.824 65.3956 168.402 63.5973 169.558C61.7991 170.664 60.3005 172.272 59.1017 174.383L55.9548 169.483C56.3044 168.427 56.8789 167.372 57.6781 166.316C58.4773 165.21 59.4763 164.23 60.6752 163.376C61.874 162.521 63.2727 161.843 64.8711 161.34C66.4695 160.787 68.2428 160.511 70.1909 160.511C72.4887 160.511 74.5367 160.888 76.3349 161.642C78.1831 162.346 79.7066 163.301 80.9055 164.507C82.1542 165.713 83.1033 167.146 83.7527 168.804C84.4021 170.413 84.7267 172.121 84.7267 173.931C84.7267 175.64 84.452 177.198 83.9025 178.605C83.3531 179.962 82.6288 181.219 81.7297 182.375C80.8305 183.481 79.8065 184.511 78.6576 185.466C77.5088 186.371 76.3349 187.225 75.1361 188.029C74.7864 188.281 74.3119 188.607 73.7125 189.009L71.9142 190.216C71.2149 190.718 70.4656 191.221 69.6664 191.724H86.0754Z" fill="black"/>
<path d="M107.571 208.687C110.867 208.687 113.49 207.757 115.438 205.897C117.386 204.088 118.36 201.675 118.36 198.66C118.36 197.303 118.085 196.046 117.536 194.89C117.036 193.684 116.312 192.653 115.363 191.799C114.414 190.894 113.24 190.191 111.842 189.688C110.493 189.185 108.969 188.934 107.271 188.934C106.372 188.934 105.473 189.009 104.574 189.16C103.724 189.261 102.95 189.437 102.251 189.688L101.052 184.109L112.965 168.729H95.1328V161.416H122.181V166.995L110.493 181.998C112.191 182.098 113.914 182.526 115.663 183.28C117.411 184.034 118.985 185.114 120.383 186.521C121.832 187.929 122.981 189.638 123.83 191.648C124.729 193.608 125.179 195.87 125.179 198.434C125.179 200.796 124.754 203.032 123.905 205.143C123.056 207.305 121.857 209.19 120.308 210.798C118.76 212.406 116.887 213.663 114.689 214.568C112.541 215.523 110.118 216 107.421 216C105.623 216 103.899 215.774 102.251 215.321C100.602 214.919 99.079 214.341 97.6803 213.587C96.2817 212.834 95.0828 211.979 94.0838 211.024C93.1348 210.069 92.4354 209.064 91.9859 208.008L93.934 201.449C95.4325 203.761 97.3307 205.546 99.6284 206.802C101.926 208.059 104.574 208.687 107.571 208.687Z" fill="black"/>
<path d="M154.159 161.416H160.752V191.724H167.346V199.037H160.752V215.095H153.934V199.037H132.28V192.704L154.159 161.416ZM153.934 191.724V172.197L140.297 191.724H153.934Z" fill="black"/>
<path d="M190.496 216C188.698 216 186.975 215.774 185.326 215.321C183.678 214.919 182.154 214.341 180.756 213.587C179.357 212.834 178.158 211.979 177.159 211.024C176.21 210.069 175.511 209.064 175.061 208.008L177.009 201.449C178.508 203.761 180.406 205.546 182.704 206.802C185.001 208.059 187.649 208.687 190.646 208.687C193.993 208.687 196.615 207.757 198.513 205.897C200.461 204.038 201.435 201.55 201.435 198.434C201.435 196.875 201.136 195.468 200.536 194.212C199.987 192.955 199.238 191.899 198.288 191.045C197.339 190.191 196.216 189.537 194.917 189.085C193.668 188.632 192.369 188.406 191.021 188.406C189.322 188.406 187.774 188.658 186.375 189.16C184.976 189.663 183.678 190.366 182.479 191.271L176.934 190.216L179.482 161.416H204.507V168.729H184.802L183.678 183.129C184.927 182.425 186.175 181.923 187.424 181.621C188.723 181.269 190.196 181.093 191.845 181.093C194.192 181.093 196.365 181.52 198.363 182.375C200.361 183.229 202.085 184.41 203.533 185.918C205.032 187.426 206.181 189.236 206.98 191.347C207.829 193.407 208.254 195.669 208.254 198.132C208.254 200.545 207.829 202.831 206.98 204.993C206.131 207.154 204.932 209.039 203.384 210.647C201.835 212.306 199.962 213.613 197.764 214.568C195.616 215.523 193.193 216 190.496 216Z" fill="black"/>
<path d="M228.935 164.808C229.884 164.658 231.108 164.582 232.606 164.582C235.354 164.582 237.826 165.06 240.024 166.015C242.222 166.97 244.095 168.251 245.643 169.86C247.192 171.418 248.366 173.277 249.165 175.439C250.014 177.55 250.439 179.761 250.439 182.073C250.439 184.586 249.964 186.924 249.015 189.085C248.066 191.246 246.767 193.131 245.119 194.739C243.521 196.348 241.647 197.629 239.499 198.584C237.402 199.489 235.179 199.941 232.831 199.941C230.333 199.941 228.011 199.489 225.863 198.584C223.715 197.68 221.867 196.423 220.318 194.815C218.77 193.206 217.546 191.321 216.647 189.16C215.798 186.999 215.373 184.662 215.373 182.149C215.373 179.183 215.897 176.369 216.946 173.705C217.995 170.991 219.194 168.503 220.543 166.241L233.281 144.905H240.923L228.935 164.808ZM228.71 191.95C230.009 192.402 231.407 192.628 232.906 192.628C234.404 192.628 235.803 192.377 237.102 191.874C238.451 191.321 239.599 190.593 240.548 189.688C241.498 188.783 242.247 187.703 242.796 186.446C243.346 185.19 243.62 183.832 243.62 182.375C243.62 180.917 243.346 179.56 242.796 178.304C242.297 176.997 241.572 175.891 240.623 174.986C239.674 174.031 238.525 173.277 237.177 172.725C235.878 172.172 234.404 171.895 232.756 171.895C231.258 171.895 229.859 172.147 228.56 172.649C227.261 173.152 226.138 173.881 225.188 174.836C224.289 175.74 223.565 176.846 223.016 178.153C222.466 179.409 222.191 180.817 222.191 182.375C222.191 183.933 222.466 185.34 223.016 186.597C223.565 187.853 224.314 188.934 225.263 189.839C226.262 190.743 227.411 191.447 228.71 191.95Z" fill="black"/>
<path d="M279.423 168.729H256.495V161.416H287.29V166.995L267.509 215.095H260.241L279.423 168.729Z" fill="black"/>
<path d="M322.561 170.689C324.959 172.147 326.732 174.082 327.881 176.494C329.08 178.907 329.679 181.42 329.679 184.034C329.679 186.295 329.23 188.406 328.331 190.366C327.481 192.276 326.283 193.96 324.734 195.418C323.236 196.825 321.437 197.931 319.339 198.735C317.291 199.539 315.044 199.941 312.596 199.941C310.148 199.941 307.876 199.539 305.778 198.735C303.73 197.931 301.931 196.825 300.383 195.418C298.884 193.96 297.686 192.276 296.786 190.366C295.937 188.406 295.513 186.295 295.513 184.034C295.513 181.42 296.087 178.907 297.236 176.494C298.435 174.082 300.233 172.147 302.631 170.689C301.032 169.734 299.684 168.251 298.585 166.241C297.486 164.18 296.936 161.818 296.936 159.154C296.936 157.093 297.311 155.158 298.06 153.349C298.859 151.489 299.933 149.881 301.282 148.524C302.681 147.116 304.329 146.01 306.227 145.206C308.175 144.402 310.298 144 312.596 144C314.894 144 316.992 144.402 318.89 145.206C320.838 146.01 322.486 147.116 323.835 148.524C325.234 149.881 326.308 151.489 327.057 153.349C327.856 155.158 328.256 157.093 328.256 159.154C328.256 161.818 327.706 164.18 326.607 166.241C325.508 168.251 324.16 169.734 322.561 170.689ZM316.342 152.067C315.243 151.564 313.995 151.313 312.596 151.313C311.197 151.313 309.949 151.564 308.85 152.067C307.751 152.519 306.827 153.123 306.077 153.876C305.328 154.63 304.754 155.51 304.354 156.515C303.954 157.47 303.755 158.45 303.755 159.455C303.755 160.461 303.954 161.441 304.354 162.396C304.754 163.351 305.328 164.205 306.077 164.959C306.827 165.663 307.751 166.241 308.85 166.693C309.949 167.146 311.197 167.372 312.596 167.372C313.995 167.372 315.243 167.146 316.342 166.693C317.441 166.241 318.365 165.663 319.115 164.959C319.864 164.205 320.438 163.351 320.838 162.396C321.238 161.441 321.437 160.461 321.437 159.455C321.437 158.45 321.238 157.47 320.838 156.515C320.438 155.51 319.864 154.63 319.115 153.876C318.365 153.123 317.441 152.519 316.342 152.067ZM308.475 191.95C309.724 192.402 311.097 192.628 312.596 192.628C314.095 192.628 315.468 192.402 316.717 191.95C317.966 191.447 319.04 190.794 319.939 189.99C320.888 189.135 321.612 188.155 322.112 187.049C322.611 185.943 322.861 184.762 322.861 183.506C322.861 182.249 322.611 181.068 322.112 179.962C321.612 178.806 320.888 177.826 319.939 177.022C319.04 176.218 317.966 175.59 316.717 175.137C315.468 174.635 314.095 174.383 312.596 174.383C311.097 174.383 309.724 174.635 308.475 175.137C307.226 175.59 306.127 176.218 305.178 177.022C304.279 177.826 303.58 178.806 303.08 179.962C302.581 181.068 302.331 182.249 302.331 183.506C302.331 184.762 302.581 185.943 303.08 187.049C303.58 188.155 304.279 189.135 305.178 189.99C306.127 190.794 307.226 191.447 308.475 191.95Z" fill="black"/>
<path d="M358.914 195.644C358.414 195.745 357.94 195.82 357.49 195.87C357.041 195.87 356.441 195.87 355.692 195.87C352.945 195.87 350.472 195.393 348.274 194.438C346.076 193.483 344.203 192.226 342.655 190.668C341.156 189.06 339.982 187.2 339.133 185.089C338.334 182.978 337.934 180.741 337.934 178.379C337.934 175.916 338.409 173.604 339.358 171.443C340.307 169.231 341.581 167.321 343.179 165.713C344.777 164.105 346.651 162.848 348.799 161.943C350.947 160.988 353.194 160.511 355.542 160.511C358.04 160.511 360.362 160.963 362.51 161.868C364.658 162.773 366.506 164.029 368.055 165.638C369.603 167.246 370.802 169.131 371.651 171.292C372.55 173.453 373 175.791 373 178.304C373 181.269 372.476 184.109 371.427 186.823C370.428 189.487 369.254 191.95 367.905 194.212L355.392 215.095H347.225L358.914 195.644ZM359.663 168.578C358.364 168.075 356.966 167.824 355.467 167.824C353.969 167.824 352.545 168.101 351.196 168.653C349.898 169.156 348.774 169.86 347.825 170.764C346.875 171.669 346.126 172.75 345.577 174.006C345.027 175.263 344.753 176.62 344.753 178.077C344.753 179.535 345.002 180.917 345.502 182.224C346.051 183.481 346.801 184.586 347.75 185.541C348.699 186.446 349.823 187.175 351.121 187.728C352.47 188.281 353.969 188.557 355.617 188.557C357.115 188.557 358.514 188.306 359.813 187.803C361.112 187.301 362.211 186.597 363.11 185.692C364.059 184.737 364.808 183.631 365.357 182.375C365.907 181.068 366.182 179.636 366.182 178.077C366.182 176.519 365.907 175.112 365.357 173.855C364.808 172.599 364.034 171.518 363.035 170.614C362.086 169.709 360.962 169.03 359.663 168.578Z" fill="black"/>
<path d="M453.875 170.689L465.953 161.416H472.029V191.347H485.157V199.037H452V191.347H465.203V170.01L453.875 178.228V170.689Z" fill="black"/>
<path d="M528.112 191.724V199.037H497.355V193.005C499.406 191.749 501.356 190.568 503.207 189.462C504.807 188.507 506.357 187.552 507.858 186.597C509.408 185.642 510.608 184.888 511.458 184.335C512.509 183.682 513.534 182.978 514.534 182.224C515.534 181.47 516.435 180.691 517.235 179.887C518.035 179.083 518.685 178.228 519.185 177.324C519.685 176.369 519.935 175.363 519.935 174.308C519.935 172.247 519.185 170.664 517.685 169.558C516.184 168.402 514.334 167.824 512.134 167.824C509.583 167.824 507.408 168.402 505.607 169.558C503.807 170.664 502.307 172.272 501.106 174.383L497.956 169.483C498.306 168.427 498.881 167.372 499.681 166.316C500.481 165.21 501.481 164.23 502.682 163.376C503.882 162.521 505.282 161.843 506.882 161.34C508.483 160.787 510.258 160.511 512.209 160.511C514.509 160.511 516.56 160.888 518.36 161.642C520.21 162.346 521.736 163.301 522.936 164.507C524.186 165.713 525.136 167.146 525.787 168.804C526.437 170.413 526.762 172.121 526.762 173.931C526.762 175.64 526.487 177.198 525.937 178.605C525.386 179.962 524.661 181.219 523.761 182.375C522.861 183.481 521.836 184.511 520.685 185.466C519.535 186.371 518.36 187.225 517.16 188.029C516.81 188.281 516.335 188.607 515.734 189.009L513.934 190.216C513.234 190.718 512.484 191.221 511.684 191.724H528.112Z" fill="black"/>
<path d="M556.514 208.687C559.815 208.687 562.44 207.757 564.391 205.897C566.341 204.088 567.316 201.675 567.316 198.66C567.316 197.303 567.041 196.046 566.491 194.89C565.991 193.684 565.266 192.653 564.316 191.799C563.365 190.894 562.19 190.191 560.79 189.688C559.439 189.185 557.914 188.934 556.214 188.934C555.314 188.934 554.413 189.009 553.513 189.16C552.663 189.261 551.888 189.437 551.188 189.688L549.987 184.109L561.915 168.729H544.061V161.416H571.142V166.995L559.439 181.998C561.14 182.098 562.865 182.526 564.616 183.28C566.366 184.034 567.941 185.114 569.342 186.521C570.792 187.929 571.942 189.638 572.792 191.648C573.693 193.608 574.143 195.87 574.143 198.434C574.143 200.796 573.718 203.032 572.867 205.143C572.017 207.305 570.817 209.19 569.267 210.798C567.716 212.406 565.841 213.663 563.64 214.568C561.49 215.523 559.064 216 556.364 216C554.563 216 552.838 215.774 551.188 215.321C549.537 214.919 548.012 214.341 546.612 213.587C545.211 212.834 544.011 211.979 543.011 211.024C542.061 210.069 541.361 209.064 540.91 208.008L542.861 201.449C544.361 203.761 546.262 205.546 548.562 206.802C550.863 208.059 553.513 208.687 556.514 208.687Z" fill="black"/>
<path d="M606.895 161.416H613.497V191.724H620.098V199.037H613.497V215.095H606.67V199.037H584.991V192.704L606.895 161.416ZM606.67 191.724V172.197L593.017 191.724H606.67Z" fill="black"/>
<path d="M646.325 216C644.524 216 642.799 215.774 641.148 215.321C639.498 214.919 637.973 214.341 636.572 213.587C635.172 212.834 633.972 211.979 632.972 211.024C632.021 210.069 631.321 209.064 630.871 208.008L632.822 201.449C634.322 203.761 636.222 205.546 638.523 206.802C640.823 208.059 643.474 208.687 646.475 208.687C649.825 208.687 652.451 207.757 654.351 205.897C656.302 204.038 657.277 201.55 657.277 198.434C657.277 196.875 656.977 195.468 656.377 194.212C655.827 192.955 655.076 191.899 654.126 191.045C653.176 190.191 652.051 189.537 650.75 189.085C649.5 188.632 648.2 188.406 646.85 188.406C645.149 188.406 643.599 188.658 642.199 189.16C640.798 189.663 639.498 190.366 638.298 191.271L632.747 190.216L635.297 161.416H660.353V168.729H640.623L639.498 183.129C640.748 182.425 641.999 181.923 643.249 181.621C644.549 181.269 646.024 181.093 647.675 181.093C650.025 181.093 652.201 181.52 654.201 182.375C656.202 183.229 657.927 184.41 659.377 185.918C660.878 187.426 662.028 189.236 662.828 191.347C663.678 193.407 664.103 195.669 664.103 198.132C664.103 200.545 663.678 202.831 662.828 204.993C661.978 207.154 660.778 209.039 659.227 210.647C657.677 212.306 655.802 213.613 653.601 214.568C651.451 215.523 649.025 216 646.325 216Z" fill="black"/>
<path d="M688.529 164.808C689.479 164.658 690.705 164.582 692.205 164.582C694.956 164.582 697.431 165.06 699.632 166.015C701.832 166.97 703.708 168.251 705.258 169.86C706.808 171.418 707.983 173.277 708.784 175.439C709.634 177.55 710.059 179.761 710.059 182.073C710.059 184.586 709.584 186.924 708.634 189.085C707.683 191.246 706.383 193.131 704.733 194.739C703.132 196.348 701.257 197.629 699.107 198.584C697.006 199.489 694.781 199.941 692.43 199.941C689.93 199.941 687.604 199.489 685.454 198.584C683.303 197.68 681.453 196.423 679.902 194.815C678.352 193.206 677.127 191.321 676.227 189.16C675.376 186.999 674.951 184.662 674.951 182.149C674.951 179.183 675.476 176.369 676.527 173.705C677.577 170.991 678.777 168.503 680.127 166.241L692.88 144.905H700.532L688.529 164.808ZM688.304 191.95C689.605 192.402 691.005 192.628 692.505 192.628C694.005 192.628 695.406 192.377 696.706 191.874C698.056 191.321 699.207 190.593 700.157 189.688C701.107 188.783 701.857 187.703 702.407 186.446C702.957 185.19 703.232 183.832 703.232 182.375C703.232 180.917 702.957 179.56 702.407 178.304C701.907 176.997 701.182 175.891 700.232 174.986C699.282 174.031 698.131 173.277 696.781 172.725C695.481 172.172 694.005 171.895 692.355 171.895C690.855 171.895 689.454 172.147 688.154 172.649C686.854 173.152 685.729 173.881 684.778 174.836C683.878 175.74 683.153 176.846 682.603 178.153C682.053 179.409 681.778 180.817 681.778 182.375C681.778 183.933 682.053 185.34 682.603 186.597C683.153 187.853 683.903 188.934 684.853 189.839C685.854 190.743 687.004 191.447 688.304 191.95Z" fill="black"/>
<path d="M745.062 168.729H722.107V161.416H752.939V166.995L733.135 215.095H725.858L745.062 168.729Z" fill="black"/>
<path d="M792.443 170.689C794.844 172.147 796.619 174.082 797.769 176.494C798.969 178.907 799.57 181.42 799.57 184.034C799.57 186.295 799.119 188.406 798.219 190.366C797.369 192.276 796.169 193.96 794.618 195.418C793.118 196.825 791.318 197.931 789.217 198.735C787.167 199.539 784.916 199.941 782.466 199.941C780.015 199.941 777.74 199.539 775.639 198.735C773.589 197.931 771.789 196.825 770.238 195.418C768.738 193.96 767.538 192.276 766.637 190.366C765.787 188.406 765.362 186.295 765.362 184.034C765.362 181.42 765.937 178.907 767.088 176.494C768.288 174.082 770.088 172.147 772.489 170.689C770.888 169.734 769.538 168.251 768.438 166.241C767.338 164.18 766.788 161.818 766.788 159.154C766.788 157.093 767.163 155.158 767.913 153.349C768.713 151.489 769.788 149.881 771.138 148.524C772.539 147.116 774.189 146.01 776.089 145.206C778.04 144.402 780.165 144 782.466 144C784.766 144 786.867 144.402 788.767 145.206C790.718 146.01 792.368 147.116 793.718 148.524C795.119 149.881 796.194 151.489 796.944 153.349C797.744 155.158 798.144 157.093 798.144 159.154C798.144 161.818 797.594 164.18 796.494 166.241C795.394 168.251 794.043 169.734 792.443 170.689ZM786.217 152.067C785.116 151.564 783.866 151.313 782.466 151.313C781.066 151.313 779.815 151.564 778.715 152.067C777.615 152.519 776.69 153.123 775.939 153.876C775.189 154.63 774.614 155.51 774.214 156.515C773.814 157.47 773.614 158.45 773.614 159.455C773.614 160.461 773.814 161.441 774.214 162.396C774.614 163.351 775.189 164.205 775.939 164.959C776.69 165.663 777.615 166.241 778.715 166.693C779.815 167.146 781.066 167.372 782.466 167.372C783.866 167.372 785.116 167.146 786.217 166.693C787.317 166.241 788.242 165.663 788.992 164.959C789.742 164.205 790.318 163.351 790.718 162.396C791.118 161.441 791.318 160.461 791.318 159.455C791.318 158.45 791.118 157.47 790.718 156.515C790.318 155.51 789.742 154.63 788.992 153.876C788.242 153.123 787.317 152.519 786.217 152.067ZM778.34 191.95C779.59 192.402 780.966 192.628 782.466 192.628C783.966 192.628 785.341 192.402 786.592 191.95C787.842 191.447 788.917 190.794 789.817 189.99C790.768 189.135 791.493 188.155 791.993 187.049C792.493 185.943 792.743 184.762 792.743 183.506C792.743 182.249 792.493 181.068 791.993 179.962C791.493 178.806 790.768 177.826 789.817 177.022C788.917 176.218 787.842 175.59 786.592 175.137C785.341 174.635 783.966 174.383 782.466 174.383C780.966 174.383 779.59 174.635 778.34 175.137C777.09 175.59 775.989 176.218 775.039 177.022C774.139 177.826 773.439 178.806 772.939 179.962C772.439 181.068 772.189 182.249 772.189 183.506C772.189 184.762 772.439 185.943 772.939 187.049C773.439 188.155 774.139 189.135 775.039 189.99C775.989 190.794 777.09 191.447 778.34 191.95Z" fill="black"/>
<path d="M830.897 195.644C830.397 195.745 829.922 195.82 829.472 195.87C829.022 195.87 828.421 195.87 827.671 195.87C824.921 195.87 822.445 195.393 820.245 194.438C818.044 193.483 816.169 192.226 814.618 190.668C813.118 189.06 811.943 187.2 811.093 185.089C810.293 182.978 809.892 180.741 809.892 178.379C809.892 175.916 810.368 173.604 811.318 171.443C812.268 169.231 813.543 167.321 815.144 165.713C816.744 164.105 818.619 162.848 820.77 161.943C822.92 160.988 825.171 160.511 827.521 160.511C830.022 160.511 832.347 160.963 834.498 161.868C836.648 162.773 838.499 164.029 840.049 165.638C841.599 167.246 842.799 169.131 843.65 171.292C844.55 173.453 845 175.791 845 178.304C845 181.269 844.475 184.109 843.425 186.823C842.424 189.487 841.249 191.95 839.899 194.212L827.371 215.095H819.194L830.897 195.644ZM831.647 168.578C830.347 168.075 828.947 167.824 827.446 167.824C825.946 167.824 824.521 168.101 823.17 168.653C821.87 169.156 820.745 169.86 819.795 170.764C818.844 171.669 818.094 172.75 817.544 174.006C816.994 175.263 816.719 176.62 816.719 178.077C816.719 179.535 816.969 180.917 817.469 182.224C818.019 183.481 818.769 184.586 819.72 185.541C820.67 186.446 821.795 187.175 823.095 187.728C824.446 188.281 825.946 188.557 827.596 188.557C829.097 188.557 830.497 188.306 831.797 187.803C833.097 187.301 834.198 186.597 835.098 185.692C836.048 184.737 836.798 183.631 837.348 182.375C837.898 181.068 838.174 179.636 838.174 178.077C838.174 176.519 837.898 175.112 837.348 173.855C836.798 172.599 836.023 171.518 835.023 170.614C834.073 169.709 832.947 169.03 831.647 168.578Z" fill="black"/>
<rect y="114" width="867" height="6" fill="#8490FF"/>
<rect x="409" y="253" width="253" height="6" transform="rotate(-90 409 253)" fill="#8490FF"/>
</svg>
