<?xml version="1.0" encoding="utf-8"?>
<!-- Generator: Adobe Illustrator 25.4.1, SVG Export Plug-In . SVG Version: 6.00 Build 0)  -->
<svg version="1.1" id="Слой_1" xmlns="http://www.w3.org/2000/svg" xmlns:xlink="http://www.w3.org/1999/xlink" x="0px" y="0px"
	 viewBox="0 0 1140 251" style="enable-background:new 0 0 1140 251;" xml:space="preserve">
<style type="text/css">
	.st0{fill:#FFFEFB;}
</style>
<g>
	<path class="st0" d="M317.4,10.8h9.4v31.4l29-31.4h12.4l-32.1,34.9l35.5,36.9h-13.2l-31.6-32.5v32.5h-9.4V10.8z"/>
	<path class="st0" d="M371.7,25.2h46.6v9.6h-18.7v47.8h-9.1V34.8h-18.8V25.2z"/>
	<path class="st0" d="M443.9,26.3c3.7-1.5,7.7-2.3,11.8-2.3c4.1,0,8.1,0.8,11.8,2.2c3.7,1.5,7,3.6,9.8,6.2c2.8,2.7,5,5.8,6.7,9.5
		c1.7,3.7,2.5,7.7,2.5,12c0,4.3-0.8,8.2-2.5,11.9c-1.7,3.6-3.9,6.8-6.7,9.5c-2.8,2.7-6.1,4.8-9.8,6.2c-3.7,1.5-7.6,2.2-11.7,2.2
		c-4.2,0-8.2-0.8-11.9-2.3c-3.8-1.5-7.1-3.6-9.9-6.3c-2.8-2.7-5-5.8-6.7-9.5c-1.7-3.6-2.5-7.5-2.5-11.8c0-4.3,0.8-8.2,2.5-11.9
		c1.7-3.7,3.9-6.8,6.7-9.5C436.9,29.9,440.2,27.8,443.9,26.3z M464.1,35.3c-2.6-1.1-5.4-1.6-8.4-1.6s-5.8,0.5-8.5,1.5
		c-2.6,1-4.9,2.4-6.9,4.1c-2,1.8-3.5,3.9-4.6,6.4s-1.6,5.2-1.6,8.2c0,2.9,0.5,5.6,1.6,8.1c1.1,2.5,2.6,4.6,4.6,6.4
		c2,1.8,4.3,3.1,6.9,4.1c2.6,1,5.5,1.5,8.5,1.5s5.8-0.5,8.4-1.5c2.6-1,4.9-2.4,6.9-4.2c1.9-1.8,3.5-3.9,4.6-6.4
		c1.1-2.5,1.6-5.1,1.6-8c0-2.8-0.6-5.4-1.6-7.9c-1.1-2.5-2.6-4.6-4.6-6.5C469.1,37.8,466.8,36.4,464.1,35.3z"/>
	<path class="st0" d="M520.2,25.2h46.6v9.6h-18.7v47.8H539V34.8h-18.8V25.2z"/>
	<path class="st0" d="M608.2,70.1h-27.3l-5.2,12.5H566l23.7-57.4h9.5l23.7,57.4h-9.5L608.2,70.1z M584.9,60.4h19.3l-9.7-23.5
		L584.9,60.4z"/>
	<path class="st0" d="M633.4,25.2h9.1v23.4l23.3-23.4h11.8l-26.7,27.5l29.7,29.9H668l-25.5-24.8v24.8h-9.1V25.2z"/>
	<path class="st0" d="M740.8,82.6h-9.1V40.1l-31.4,42.5h-9.6V25.2h9.1v42.7l31.5-42.7h9.5V82.6z"/>
	<path class="st0" d="M758,25.2h32.7v9.7h-23.6v13.3h21.1v9.7h-21.1v15h23.6v9.7H758V25.2z"/>
	<path class="st0" d="M79.4,145.2H128v57.4h-9.1v-47.7H88.5v47.7h-9.1V145.2z"/>
	<path class="st0" d="M145.2,145.2h32.7v9.7h-23.6v13.3h21.1v9.7h-21.1v15h23.6v9.7h-32.7V145.2z"/>
	<path class="st0" d="M209.7,145.2c2.7,0,5.3,0.4,7.6,1.2c2.4,0.8,4.4,2,6.1,3.6c1.7,1.6,3.1,3.4,4.1,5.6c1,2.2,1.5,4.6,1.5,7.2
		c0,2.6-0.5,5-1.5,7.2c-1,2.2-2.3,4-4,5.5c-1.7,1.5-3.7,2.7-6.1,3.6c-2.4,0.9-5,1.3-7.8,1.3h-8v22.1h-9.1v-57.4H209.7z M201.8,154.9
		v15.9h9.4c2.5,0,4.5-0.7,6.2-2.2c1.7-1.5,2.5-3.4,2.5-5.7c0-2.3-0.8-4.2-2.5-5.7c-1.7-1.5-3.8-2.3-6.3-2.3H201.8z"/>
	<path class="st0" d="M256.9,145.2c2.8,0,5.4,0.3,7.7,1c2.3,0.7,4.3,1.7,6,3c1.7,1.3,3,3,3.9,4.9c0.9,1.9,1.4,4.2,1.4,6.8
		c0,2.5-0.4,4.7-1.3,6.5c-0.9,1.8-2.2,3.3-4,4.7c2.5,1.1,4.6,2.8,6.1,5.1c1.5,2.3,2.3,5.2,2.3,8.7c0,2.7-0.5,5-1.4,7.1
		c-1,2.1-2.3,3.8-4,5.2c-1.7,1.4-3.7,2.5-6.1,3.3c-2.4,0.8-4.9,1.2-7.6,1.2h-18.6v-57.4H256.9z M250.3,154.5V169h8.7
		c2.3,0,4.2-0.7,5.6-2c1.4-1.3,2.2-3.1,2.2-5.2c0-2-0.7-3.7-2.1-5.2c-1.4-1.4-3.3-2.2-5.7-2.2H250.3z M250.3,178.1v15.1h11.4
		c2.3,0,4.3-0.7,5.9-2.2c1.6-1.5,2.3-3.3,2.3-5.4c0-1.9-0.8-3.7-2.2-5.2c-1.5-1.5-3.5-2.3-5.9-2.3H250.3z"/>
	<path class="st0" d="M307.5,146.3c3.7-1.5,7.7-2.3,11.8-2.3c4.1,0,8.1,0.8,11.8,2.2c3.7,1.5,7,3.6,9.8,6.2c2.8,2.7,5,5.8,6.7,9.5
		c1.7,3.7,2.5,7.7,2.5,12c0,4.3-0.8,8.2-2.5,11.8c-1.7,3.6-3.9,6.8-6.7,9.5c-2.8,2.7-6.1,4.8-9.8,6.2c-3.7,1.5-7.6,2.2-11.7,2.2
		c-4.2,0-8.2-0.8-11.9-2.3c-3.8-1.5-7.1-3.6-9.9-6.3c-2.8-2.7-5-5.8-6.7-9.4c-1.7-3.6-2.5-7.6-2.5-11.8c0-4.3,0.8-8.2,2.5-11.9
		c1.7-3.7,3.9-6.8,6.7-9.5C300.5,149.9,303.8,147.8,307.5,146.3z M327.8,155.3c-2.6-1.1-5.4-1.6-8.4-1.6s-5.8,0.5-8.5,1.5
		c-2.6,1-4.9,2.4-6.9,4.2c-2,1.8-3.5,3.9-4.6,6.4c-1.1,2.5-1.6,5.2-1.6,8.2c0,2.9,0.5,5.6,1.6,8.1c1.1,2.5,2.6,4.6,4.6,6.3
		c2,1.8,4.3,3.2,6.9,4.2c2.6,1,5.5,1.5,8.5,1.5s5.8-0.5,8.4-1.5c2.6-1,4.9-2.4,6.9-4.2c1.9-1.8,3.5-3.9,4.6-6.4
		c1.1-2.5,1.6-5.1,1.6-8c0-2.8-0.6-5.4-1.6-7.9c-1.1-2.5-2.6-4.6-4.6-6.5C332.7,157.8,330.4,156.4,327.8,155.3z"/>
	<path class="st0" d="M377.8,146.3c3.7-1.5,7.7-2.3,11.8-2.3c4.1,0,8.1,0.8,11.8,2.2c3.7,1.5,7,3.6,9.8,6.2c2.8,2.7,5,5.8,6.7,9.5
		c1.7,3.7,2.5,7.7,2.5,12c0,4.3-0.8,8.2-2.5,11.8c-1.7,3.6-3.9,6.8-6.7,9.5c-2.8,2.7-6.1,4.8-9.8,6.2c-3.7,1.5-7.6,2.2-11.7,2.2
		c-4.2,0-8.2-0.8-11.9-2.3c-3.8-1.5-7.1-3.6-9.9-6.3c-2.8-2.7-5-5.8-6.7-9.4c-1.7-3.6-2.5-7.6-2.5-11.8c0-4.3,0.8-8.2,2.5-11.9
		c1.7-3.7,3.9-6.8,6.7-9.5C370.8,149.9,374.1,147.8,377.8,146.3z M398.1,155.3c-2.6-1.1-5.4-1.6-8.4-1.6s-5.8,0.5-8.5,1.5
		c-2.6,1-4.9,2.4-6.9,4.2c-2,1.8-3.5,3.9-4.6,6.4c-1.1,2.5-1.6,5.2-1.6,8.2c0,2.9,0.5,5.6,1.6,8.1c1.1,2.5,2.6,4.6,4.6,6.3
		c2,1.8,4.3,3.2,6.9,4.2c2.6,1,5.5,1.5,8.5,1.5s5.8-0.5,8.4-1.5c2.6-1,4.9-2.4,6.9-4.2c1.9-1.8,3.5-3.9,4.6-6.4
		c1.1-2.5,1.6-5.1,1.6-8c0-2.8-0.6-5.4-1.6-7.9c-1.1-2.5-2.6-4.6-4.6-6.5C403,157.8,400.7,156.4,398.1,155.3z"/>
	<path class="st0" d="M427.1,145.2h46.6v9.6H455v47.8h-9.1v-47.8h-18.8V145.2z"/>
	<path class="st0" d="M484.6,145.2h9.1v23.4l23.3-23.4h11.8l-26.7,27.5l29.7,29.9h-12.6l-25.5-24.8v24.8h-9.1V145.2z"/>
	<path class="st0" d="M558.9,145.2c2.7,0,5.3,0.4,7.6,1.2c2.4,0.8,4.4,2,6.2,3.6c1.7,1.6,3.1,3.4,4.1,5.6c1,2.2,1.5,4.6,1.5,7.2
		c0,2.6-0.5,5-1.5,7.2c-1,2.2-2.3,4-4,5.5c-1.7,1.5-3.7,2.7-6.1,3.6c-2.4,0.9-5,1.3-7.8,1.3h-8v22.1h-9.1v-57.4H558.9z M551,154.9
		v15.9h9.4c2.5,0,4.5-0.7,6.2-2.2c1.7-1.5,2.5-3.4,2.5-5.7c0-2.3-0.8-4.2-2.5-5.7c-1.7-1.5-3.8-2.3-6.3-2.3H551z"/>
	<path class="st0" d="M590.4,202.6v-57.4h9.1v22.1h8c2.8,0,5.4,0.4,7.8,1.3c2.4,0.9,4.4,2.1,6.1,3.6c1.7,1.5,3,3.4,4,5.6
		c1,2.2,1.5,4.5,1.5,7.1c0,2.7-0.5,5.1-1.5,7.2c-1,2.2-2.4,4-4.1,5.6c-1.7,1.6-3.8,2.8-6.1,3.6c-2.4,0.8-4.9,1.2-7.7,1.2H590.4z
		 M608.9,192.9c2.5,0,4.6-0.8,6.3-2.3c1.7-1.5,2.5-3.4,2.5-5.7c0-2.3-0.8-4.2-2.5-5.7c-1.7-1.5-3.8-2.2-6.2-2.2h-9.4v15.9H608.9z
		 M634.6,202.6h9.1v-57.4h-9.1V202.6z"/>
	<path class="st0" d="M676.6,145.2c2.8,0,5.3,0.3,7.7,1c2.3,0.7,4.3,1.7,6,3c1.7,1.3,3,3,3.9,4.9c0.9,1.9,1.4,4.2,1.4,6.8
		c0,2.5-0.5,4.7-1.3,6.5c-0.9,1.8-2.2,3.3-4,4.7c2.5,1.1,4.6,2.8,6.1,5.1c1.5,2.3,2.3,5.2,2.3,8.7c0,2.7-0.5,5-1.4,7.1
		c-1,2.1-2.3,3.8-4,5.2c-1.7,1.4-3.7,2.5-6.1,3.3c-2.4,0.8-4.9,1.2-7.6,1.2h-18.6v-57.4H676.6z M670,154.5V169h8.7
		c2.3,0,4.2-0.7,5.7-2c1.4-1.3,2.2-3.1,2.2-5.2c0-2-0.7-3.7-2.1-5.2c-1.4-1.4-3.3-2.2-5.7-2.2H670z M670,178.1v15.1h11.4
		c2.3,0,4.3-0.7,5.9-2.2c1.6-1.5,2.3-3.3,2.3-5.4c0-1.9-0.8-3.7-2.2-5.2c-1.5-1.5-3.5-2.3-6-2.3H670z"/>
	<path class="st0" d="M748,190.1h-27.3l-5.2,12.5h-9.7l23.7-57.4h9.5l23.7,57.4h-9.5L748,190.1z M724.7,180.4H744l-9.7-23.5
		L724.7,180.4z"/>
	<path class="st0" d="M761.9,145.2h46.6v9.6h-18.7v47.8h-9.1v-47.8h-18.8V145.2z"/>
	<path class="st0" d="M819.4,145.2h32.7v9.7h-23.6v13.3h21.1v9.7h-21.1v15h23.6v9.7h-32.7V145.2z"/>
	<path class="st0" d="M911.6,145.2v57.4h-9.1v-47.7H884c0,1.3,0,2.6-0.1,3.9c0,1.3-0.1,2.5-0.1,3.6c-0.7,14.1-2.6,24.4-5.7,30.9
		c-3.1,6.4-7.5,9.6-13.4,9.6c-0.6,0-1.2-0.1-1.8-0.2c-0.6-0.1-1.1-0.3-1.5-0.5l-1.6-8.2c2.4-0.2,4.5-0.8,6.2-1.7
		c1.8-0.9,3.3-2.8,4.5-5.5c1.2-2.8,2.2-6.7,3-11.8c0.7-5.1,1.2-11.8,1.5-20.3c0.1-1.5,0.1-3,0.1-4.5c0-1.6,0-3.2,0-5H911.6z"/>
	<path class="st0" d="M978.9,202.6h-9.1v-42.5l-31.4,42.5h-9.6v-57.4h9.1v42.7l31.5-42.7h9.5V202.6z"/>
	<path class="st0" d="M994,139.1c0.6-1.3,1.4-2.5,2.5-3.7c1.1-1.2,2.3-2.2,3.8-3c1.5-0.9,3.1-1.5,4.8-2c1.7-0.5,3.5-0.8,5.2-0.8
		c2.7,0,5,0.4,7.1,1.1c2.1,0.7,3.8,1.8,5.2,3c1.4,1.3,2.5,2.8,3.2,4.6c0.7,1.7,1.1,3.6,1.1,5.6c0,1.9-0.3,3.7-1,5.2
		c-0.7,1.5-1.6,3-2.7,4.2s-2.4,2.5-3.9,3.5c-1.5,1.1-3,2.1-4.6,3.1c-1.7,1.1-3.1,2-4.2,2.8c-1.1,0.8-1.9,1.5-2.5,2.1
		c-0.6,0.6-1,1.2-1.2,1.8c-0.2,0.6-0.3,1.1-0.3,1.6c0,1.3,0.5,2.3,1.5,3.1c1,0.8,2.4,1.2,4.2,1.2c3.6,0,7.1-1.8,10.5-5.4l1.5,7.7
		c-0.9,1.6-2.4,3.2-4.6,4.7c-2.2,1.5-5,2.3-8.5,2.3c-2.1,0-4-0.3-5.7-1c-1.7-0.7-3.2-1.6-4.3-2.8c-1.2-1.2-2.1-2.6-2.8-4.1
		c-0.6-1.6-1-3.2-1-5c0-1.3,0.2-2.6,0.5-3.9c0.4-1.3,1-2.7,2-4c0.9-1.3,2.2-2.7,3.7-4c1.5-1.4,3.5-2.8,5.8-4.2
		c2.9-1.8,5.1-3.3,6.4-4.5c1.3-1.2,2-2.6,2-4.1c0-1.5-0.7-2.8-1.9-3.7c-1.3-0.9-3.1-1.3-5.5-1.3c-2.8,0-5.4,0.6-7.9,1.9
		c-2.4,1.3-4.5,3.1-6.3,5.4L994,139.1z M1005.5,201.5c-1.3-1.3-1.9-2.8-1.9-4.7c0-1.9,0.6-3.4,1.9-4.7c1.3-1.3,2.8-1.9,4.7-1.9
		c1.9,0,3.4,0.6,4.7,1.9c1.3,1.3,1.9,2.8,1.9,4.7c0,1.9-0.6,3.4-1.9,4.7c-1.3,1.3-2.8,1.9-4.7,1.9
		C1008.4,203.4,1006.8,202.8,1005.5,201.5z"/>
</g>
</svg>
