<svg width="1596" height="844" viewBox="0 0 1596 844" fill="none" xmlns="http://www.w3.org/2000/svg">
<rect x="206.16" y="183.892" width="300.245" height="77.9996" transform="rotate(-23.6869 206.16 183.892)" fill="white"/>
<rect x="315.205" y="29.5215" width="13.8903" height="305.588" transform="rotate(-25.1777 315.205 29.5215)" fill="#1B1B1B"/>
<rect x="225.34" y="207.542" width="332.3" height="13.8903" transform="rotate(-25.1777 225.34 207.542)" fill="black"/>
<path d="M403.618 306.849C402.631 312.176 399.96 317.371 395.604 322.435C391.192 327.325 385.049 331.039 377.174 333.577C350.927 342.039 333.05 331.525 323.543 302.035L302.871 237.908L279.248 245.523L276.885 238.194L300.59 174.208L307.94 171.839L318.571 204.819L364.505 190.011L372.689 215.4L326.756 230.208L346.079 290.147C348.779 298.523 352.441 303.892 357.066 306.253C361.69 308.615 367.502 308.668 374.502 306.411C379.401 304.832 383.204 302.547 385.91 299.555C388.791 296.508 391.006 293.193 392.556 289.611L403.618 306.849Z" fill="black"/>
<path d="M552.29 238.663C551.303 243.99 548.631 249.185 544.276 254.249C539.864 259.139 533.721 262.853 525.846 265.391C499.599 273.853 481.722 263.338 472.215 233.849L451.543 169.722L427.92 177.337L425.557 170.008L449.262 106.022L456.612 103.653L467.243 136.633L513.177 121.825L521.361 147.214L475.428 162.022L494.75 221.961C497.45 230.337 501.113 235.706 505.738 238.067C510.362 240.429 516.174 240.482 523.174 238.225C528.073 236.646 531.876 234.36 534.582 231.369C537.463 228.322 539.678 225.007 541.228 221.425L552.29 238.663Z" fill="black"/>
<path d="M360.266 79.1766L406.376 57.2514L343.529 43.9766L337.803 31.9345L403.731 0.58579L409.457 12.6279L363.347 34.5532L426.194 47.8279L431.92 59.87L365.992 91.2188L360.266 79.1766Z" fill="black"/>
<path d="M484.217 422.879L470.973 429.176L451.921 411.307L409.01 431.711L410.977 457.704L397.336 464.191L388.711 351.114L402.088 344.753L484.217 422.879ZM407.783 415.812L440.364 400.32L403.941 366.067L407.783 415.812Z" fill="black"/>
<path d="M611.985 362.127L598.741 368.424L579.745 350.673L536.833 371.077L538.744 396.953L525.103 403.439L516.721 290.873L530.098 284.512L611.985 362.127ZM535.64 355.249L568.221 339.757L531.905 305.729L535.64 355.249Z" fill="black"/>
<path d="M416.018 338.755L429.34 332.421L448.387 350.148L491.55 329.624L489.689 303.725L503.411 297.2L511.576 409.87L498.12 416.268L416.018 338.755ZM492.713 345.466L459.94 361.05L496.353 395.031L492.713 345.466Z" fill="black"/>
<path d="M543.789 278.003L557.033 271.706L576.084 289.575L618.995 269.17L617.029 243.178L630.67 236.691L639.295 349.768L625.918 356.129L543.789 278.003ZM620.223 285.07L587.642 300.562L624.065 334.814L620.223 285.07Z" fill="black"/>
<path d="M287.257 398.729L300.501 392.432L319.553 410.301L362.464 389.896L360.497 363.904L374.139 357.417L382.763 470.494L369.387 476.855L287.257 398.729ZM363.691 405.796L331.111 421.288L367.534 455.54L363.691 405.796Z" fill="black"/>
<path d="M1498.79 175.069L1526.93 233.217L1515.19 233.994L1494.1 189.57L1479.03 236.387L1467.18 237.171L1487.41 175.821L1498.79 175.069Z" fill="black"/>
<path d="M1430.27 180.412L1460.03 237.751L1448.32 238.855L1425.98 195.039L1412.24 242.259L1400.41 243.374L1418.92 181.483L1430.27 180.412Z" fill="black"/>
<path d="M1361.92 187.669L1393.27 244.154L1381.6 245.585L1358.05 202.411L1345.63 249.996L1333.84 251.442L1350.61 189.057L1361.92 187.669Z" fill="black"/>
<path d="M1293.81 196.836L1326.72 252.422L1315.1 254.179L1290.35 211.68L1279.26 259.594L1267.52 261.369L1282.54 198.54L1293.81 196.836Z" fill="black"/>
<path d="M1225.98 207.904L1260.44 262.547L1248.86 264.629L1222.94 222.839L1213.19 271.045L1201.5 273.148L1214.76 209.922L1225.98 207.904Z" fill="black"/>
<path d="M1158.48 220.865L1194.45 274.524L1182.94 276.928L1155.86 235.879L1147.47 284.339L1135.84 286.768L1147.32 223.196L1158.48 220.865Z" fill="black"/>
<path d="M1091.38 235.708L1128.84 288.339L1117.4 291.065L1089.17 250.79L1082.15 299.465L1070.59 302.218L1080.29 238.351L1091.38 235.708Z" fill="black"/>
<path d="M1024.71 252.422L1063.63 303.985L1052.27 307.03L1022.93 267.56L1017.27 316.412L1005.79 319.488L1013.7 255.374L1024.71 252.422Z" fill="black"/>
<path d="M958.542 270.994L998.885 321.449L987.616 324.81L957.185 286.176L952.888 335.167L941.503 338.563L947.618 274.253L958.542 270.994Z" fill="black"/>
<path d="M892.917 291.41L934.655 340.716L923.484 344.391L891.984 306.624L889.059 355.716L877.774 359.429L882.088 294.973L892.917 291.41Z" fill="black"/>
<path d="M827.889 313.653L870.99 361.773L859.926 365.759L827.382 328.887L825.831 378.042L814.654 382.069L817.164 317.517L827.889 313.653Z" fill="black"/>
<path d="M763.508 337.707L807.938 384.602L796.989 388.896L763.427 352.948L763.251 402.128L752.192 406.465L752.895 341.869L763.508 337.707Z" fill="black"/>
<path d="M699.824 363.551L745.548 409.185L734.725 413.784L700.17 378.789L701.37 427.954L690.436 432.599L689.332 368.008L699.824 363.551Z" fill="black"/>
<path d="M636.887 391.166L683.87 435.504L673.179 440.403L637.659 406.388L640.234 455.501L629.434 460.45L626.524 395.915L636.887 391.166Z" fill="black"/>
<path d="M574.748 420.532L622.952 463.538L612.402 468.734L575.945 435.726L579.892 484.748L569.235 489.997L564.521 425.569L574.748 420.532Z" fill="black"/>
<path d="M513.455 451.623L562.843 493.264L552.443 498.753L515.077 466.778L520.393 515.67L509.887 521.215L503.373 456.944L513.455 451.623Z" fill="black"/>
<path d="M453.057 484.415L503.59 524.659L493.348 530.437L455.102 499.519L461.784 548.243L451.437 554.08L443.128 490.016L453.057 484.415Z" fill="black"/>
<path d="M393.597 518.886L445.236 557.701L435.159 563.763L396.064 533.927L404.106 582.445L393.926 588.569L383.828 524.763L393.597 518.886Z" fill="black"/>
<path d="M335.126 555.005L387.83 592.36L377.927 598.702L338.012 569.971L347.408 618.245L337.403 624.651L325.525 561.153L335.126 555.005Z" fill="black"/>
<path d="M277.686 592.745L331.415 628.611L321.692 635.228L280.99 607.624L291.732 655.616L281.91 662.3L268.261 599.158L277.686 592.745Z" fill="black"/>
<path d="M221.326 632.077L276.037 666.427L266.503 673.313L225.045 646.858L237.125 694.531L227.494 701.487L212.084 638.752L221.326 632.077Z" fill="black"/>
<path d="M166.087 672.97L221.737 705.776L212.4 712.926L170.218 687.641L183.626 734.958L174.194 742.18L157.036 679.9L166.087 672.97Z" fill="black"/>
<path d="M112.013 715.392L168.559 746.629L159.426 754.037L116.553 729.943L131.28 776.866L122.053 784.349L103.159 722.573L112.013 715.392Z" fill="black"/>
</svg>
