<svg width="393" height="256" viewBox="0 0 393 256" fill="none" xmlns="http://www.w3.org/2000/svg">
<path d="M82 25.3187C85.7488 18.3527 91.7738 12.3244 100.075 7.2339C108.376 2.4113 118.551 1.52588e-05 130.601 1.52588e-05C170.767 1.52588e-05 190.85 22.6395 190.85 67.9184L190.85 166.38H227V177.633L165.546 256H154.299V205.363H84.0083V166.38H154.299L154.299 74.3485C154.299 61.4882 151.621 52.3789 146.266 47.0204C140.91 41.662 132.877 38.9827 122.166 38.9827C114.669 38.9827 108.376 40.4563 103.288 43.4034C97.9326 46.3506 93.3804 49.9675 89.6316 54.2543L82 25.3187Z" fill="black"/>
<path d="M0 25.3187C3.74884 18.3527 9.77377 12.3244 18.0748 7.2339C26.3758 2.4113 36.5512 1.52588e-05 48.6011 1.52588e-05C88.7673 1.52588e-05 108.85 22.6395 108.85 67.9184L108.85 166.38H145V177.633L83.5457 256H72.2992V205.363H2.0083V166.38H72.2992L72.2992 74.3485C72.2992 61.4882 69.6214 52.3789 64.2659 47.0204C58.9104 41.662 50.8772 38.9827 40.1662 38.9827C32.6685 38.9827 26.3758 40.4563 21.2881 43.4034C15.9326 46.3506 11.3804 49.9675 7.63156 54.2543L0 25.3187Z" fill="#8490FF"/>
<path d="M166 25.3187C169.749 18.3527 175.774 12.3244 184.075 7.2339C192.376 2.4113 202.551 1.52588e-05 214.601 1.52588e-05C254.767 1.52588e-05 274.85 22.6395 274.85 67.9184V166.38H311V177.633L249.546 256H238.299V205.363H168.008V166.38H238.299L238.299 74.3485C238.299 61.4882 235.621 52.3789 230.266 47.0204C224.91 41.662 216.877 38.9827 206.166 38.9827C198.669 38.9827 192.376 40.4563 187.288 43.4034C181.933 46.3506 177.38 49.9675 173.632 54.2543L166 25.3187Z" fill="black"/>
<path d="M248 25.3187C251.749 18.3527 257.774 12.3244 266.075 7.2339C274.376 2.4113 284.551 1.52588e-05 296.601 1.52588e-05C336.767 1.52588e-05 356.85 22.6395 356.85 67.9184V166.38H393V177.633L331.546 256H320.299V205.363H250.008V166.38H320.299V74.3485C320.299 61.4882 317.621 52.3789 312.266 47.0204C306.91 41.662 298.877 38.9827 288.166 38.9827C280.669 38.9827 274.376 40.4563 269.288 43.4034C263.933 46.3506 259.38 49.9675 255.632 54.2543L248 25.3187Z" fill="black"/>
</svg>
