<svg width="393" height="256" viewBox="0 0 393 256" fill="none" xmlns="http://www.w3.org/2000/svg">
<path d="M145 230.681C141.251 237.647 135.226 243.676 126.925 248.766C118.624 253.589 108.449 256 96.3989 256C56.2327 256 36.1496 233.361 36.1496 188.082V89.6201H0V78.3674L61.4543 0H72.7008V50.6374H142.992V89.6201H72.7008V181.651C72.7008 194.512 75.3786 203.621 80.7341 208.98C86.0896 214.338 94.1228 217.017 104.834 217.017C112.331 217.017 118.624 215.544 123.712 212.597C129.067 209.649 133.62 206.032 137.368 201.746L145 230.681Z" fill="black"/>
<path d="M227 230.681C223.251 237.647 217.226 243.676 208.925 248.766C200.624 253.589 190.449 256 178.399 256C138.233 256 118.15 233.361 118.15 188.082V89.6201H82V78.3674L143.454 0H154.701V50.6374H224.992V89.6201H154.701V181.651C154.701 194.512 157.379 203.621 162.734 208.98C168.09 214.338 176.123 217.017 186.834 217.017C194.331 217.017 200.624 215.544 205.712 212.597C211.067 209.649 215.62 206.032 219.368 201.746L227 230.681Z" fill="black"/>
<path d="M311 230.681C307.251 237.647 301.226 243.676 292.925 248.766C284.624 253.589 274.449 256 262.399 256C222.233 256 202.15 233.361 202.15 188.082V89.6201H166V78.3674L227.454 0H238.701V50.6374H308.992V89.6201H238.701V181.651C238.701 194.512 241.379 203.621 246.734 208.98C252.09 214.338 260.123 217.017 270.834 217.017C278.331 217.017 284.624 215.544 289.712 212.597C295.067 209.649 299.62 206.032 303.368 201.746L311 230.681Z" fill="black"/>
<path d="M393 230.681C389.251 237.647 383.226 243.676 374.925 248.766C366.624 253.589 356.449 256 344.399 256C304.233 256 284.15 233.361 284.15 188.082V89.6201H248V78.3674L309.454 0H320.701V50.6374H390.992V89.6201H320.701V181.651C320.701 194.512 323.379 203.621 328.734 208.98C334.09 214.338 342.123 217.017 352.834 217.017C360.331 217.017 366.624 215.544 371.712 212.597C377.067 209.649 381.62 206.032 385.368 201.746L393 230.681Z" fill="#8490FF"/>
</svg>
