<svg width="555" height="586" viewBox="0 0 555 586" fill="none" xmlns="http://www.w3.org/2000/svg">
<path d="M498.543 0L555.001 89.5233L191.768 276.998L167.357 238.291L498.543 0Z" fill="white"/>
<path fill-rule="evenodd" clip-rule="evenodd" d="M498.543 0L167.357 238.291L191.768 276.998L555.001 89.5233L498.543 0ZM491.239 37.5255L218.715 233.608L517.609 79.3408L491.239 37.5255Z" fill="black"/>
<path d="M155.961 216.287L206.691 296.728L115.614 322.825L91.3399 284.335L155.961 216.287Z" fill="#8490FF"/>
<path d="M129.248 219.458L140.926 212.476L198.379 308.571L186.7 315.553L129.248 219.458Z" fill="black"/>
<path d="M279.25 554.267L242.461 559.467L139.519 364.71L95.3047 580.268L57.8013 585.569L113.983 318.071L151.129 312.821L279.25 554.267Z" fill="black"/>
<path d="M112.1 271.47L101.09 284.301L24.1837 218.311C9.75517 205.931 7.38032 194.101 17.0591 182.821C18.7529 180.847 21.0163 179.035 23.8494 177.386C26.5918 175.659 29.5509 174.689 32.7269 174.477L42.9055 184.924C41.2016 185.257 39.5582 185.887 37.9753 186.814C36.3016 187.663 34.9809 188.651 34.013 189.779C31.19 193.069 30.2928 196.135 31.3213 198.976C32.1784 201.833 34.4219 204.819 38.0517 207.933L112.1 271.47ZM136.691 287.429C139.232 289.61 140.599 292.332 140.79 295.598C140.992 299.035 140.004 302.023 137.826 304.561C135.568 307.193 132.765 308.623 129.418 308.852C126.081 309.252 123.141 308.363 120.601 306.182C118.15 304.08 116.825 301.31 116.623 297.873C116.431 294.608 117.464 291.659 119.723 289.027C121.9 286.489 124.658 285.02 127.995 284.619C131.343 284.39 134.241 285.327 136.691 287.429Z" fill="black"/>
<path d="M488.945 33.5677L493.599 40.9397L484.544 53.3568L499.621 77.2421L514.679 74.335L519.472 81.9282L453.97 94.6152L449.27 87.1694L488.945 33.5677ZM490.412 79.0346L478.964 60.8994L461.6 84.6441L490.412 79.0346Z" fill="black"/>
<path d="M459.36 100.94L462.249 106.359L426.469 132.05L423.809 127.06L451.068 107.359L416 112.411L413.368 107.475L436.993 80.9596L405.587 92.8799L402.812 87.6752L444.056 72.2332L446.945 77.6526L421.949 105.863L459.36 100.94Z" fill="black"/>
<path d="M371.731 116.838L395.197 101.946L397.929 106.252L379.025 118.249L384.699 127.191L403.604 115.193L406.336 119.499L387.431 131.496L393.106 140.438L412.011 128.441L414.743 132.746L391.277 147.638L371.731 116.838Z" fill="black"/>
<path d="M356.1 136.447C354.164 137.564 352.905 138.757 352.321 140.024C351.701 141.312 351.667 142.434 352.218 143.389C352.79 144.38 353.685 144.917 354.901 144.999C356.101 145.138 357.523 144.734 359.167 143.785L362.783 141.698L365.868 147.042L362.745 148.845C361.32 149.667 360.362 150.538 359.871 151.459C359.401 152.416 359.473 153.427 360.088 154.492C360.575 155.337 361.388 155.774 362.525 155.803C363.646 155.89 364.901 155.533 366.289 154.732C367.568 153.994 368.708 153.017 369.711 151.802C370.714 150.586 371.497 149.033 372.061 147.14L375.697 150.403C375.489 152.237 374.844 154.03 373.761 155.781C372.663 157.59 371.054 159.107 368.935 160.329C367.584 161.109 366.236 161.643 364.892 161.929C363.547 162.215 362.282 162.26 361.097 162.062C359.912 161.865 358.825 161.415 357.835 160.713C356.83 160.069 355.988 159.159 355.31 157.984C354.526 156.625 354.129 155.262 354.12 153.897C354.074 152.552 354.406 151.356 355.117 150.309C351.516 150.821 348.73 149.368 346.758 145.952C346.016 144.667 345.641 143.341 345.632 141.975C345.622 140.609 345.917 139.264 346.516 137.939C347.078 136.635 347.9 135.402 348.982 134.239C350.064 133.076 351.317 132.083 352.742 131.261C354.933 129.996 357.102 129.282 359.249 129.12C361.359 128.98 363.379 129.357 365.307 130.251L366.346 135.087C363.168 133.885 359.753 134.339 356.1 136.447Z" fill="black"/>
<path d="M327.271 166.62C326.774 165.8 326.416 164.91 326.198 163.949C326.014 162.996 326.006 162.034 326.175 161.062C326.377 160.098 326.802 159.154 327.449 158.229C328.117 157.292 329.066 156.449 330.299 155.702L338.986 150.433L340.683 153.23L332.057 158.462C330.722 159.271 329.912 160.253 329.629 161.406C329.378 162.567 329.588 163.701 330.259 164.808C330.557 165.299 330.915 165.727 331.332 166.091C331.749 166.454 332.187 166.736 332.645 166.934C333.135 167.141 333.63 167.262 334.128 167.296C334.639 167.351 335.124 167.294 335.585 167.127L345.474 161.129L347.171 163.926L331.798 173.25L330.157 170.545L331.852 169.518C331.119 169.653 330.341 169.481 329.515 169.001C328.702 168.541 327.954 167.747 327.271 166.62Z" fill="black"/>
<path d="M320.801 161.622L322.423 164.533L314.581 174.626L327.274 173.238L328.88 176.12L304.222 178.753L302.616 175.871L310.638 174.991L320.801 161.622Z" fill="black"/>
</svg>
