<?xml version="1.0" encoding="utf-8"?>
<!-- Generator: Adobe Illustrator 25.4.1, SVG Export Plug-In . SVG Version: 6.00 Build 0)  -->
<svg version="1.1" xmlns="http://www.w3.org/2000/svg" xmlns:xlink="http://www.w3.org/1999/xlink" x="0px" y="0px"
	 viewBox="0 0 276 430" style="enable-background:new 0 0 276 430;" xml:space="preserve">
<style type="text/css">
	.st0{fill:none;}
	.st1{fill:#8490FF;}
</style>
<g id="Слой_1">
	<rect x="56" y="296" class="st0" width="59" height="95"/>
	<path d="M118.1,283.8l1.1-1.8l6.5,3.9l-1.1,1.8L118.1,283.8z"/>
	<path d="M104,278.1l0.7-2l7.2,2.4l-0.7,2L104,278.1z"/>
	<path d="M88.9,275.8l0.2-2.1l7.6,0.7l-0.2,2.1L88.9,275.8z"/>
	<path d="M73.8,276.8l-0.3-2.1l7.5-1l0.3,2.1L73.8,276.8z"/>
	<path d="M59.2,281.2l-0.7-2l7.1-2.6l0.7,2L59.2,281.2z"/>
	<path d="M46,288.7l-1.1-1.8l6.4-4.1l1.1,1.8L46,288.7z"/>
	<path d="M34.7,298.9l-1.5-1.5l5.3-5.4l1.5,1.5L34.7,298.9z"/>
	<path d="M26,311.3l-1.8-1.1l4-6.5l1.8,1.1L26,311.3z"/>
	<path d="M20.3,325.4l-2-0.7l2.4-7.2l2,0.7L20.3,325.4z"/>
	<path d="M17.8,340.4l-2.1-0.2l0.8-7.5l2.1,0.2L17.8,340.4z"/>
	<path d="M18.7,355.6l-2.1,0.3l-0.9-7.5l2.1-0.3L18.7,355.6z"/>
	<path d="M22.9,370.1l-2,0.7l-2.6-7.1l2-0.7L22.9,370.1z"/>
	<path d="M30.3,383.4l-1.8,1.1l-4.1-6.4l1.8-1.1L30.3,383.4z"/>
	<path d="M40.4,394.8l-1.5,1.5l-5.4-5.3l1.5-1.5L40.4,394.8z"/>
	<path d="M52.8,403.6l-1.1,1.8l-6.4-4l1.1-1.8L52.8,403.6z"/>
	<path d="M66.8,409.5l-0.7,2l-7.2-2.5l0.7-2L66.8,409.5z"/>
	<path d="M81.7,412.1l-0.2,2.1l-7.5-0.8l0.2-2.1L81.7,412.1z"/>
	<path d="M96.9,411.4l0.2,2.1l-7.5,0.8l-0.2-2.1L96.9,411.4z"/>
	<path d="M111.5,407.3l0.7,2l-7.2,2.5l-0.7-2L111.5,407.3z"/>
	<path d="M124.9,400l1.1,1.8l-6.4,4l-1.1-1.8L124.9,400z"/>
	<path d="M136.3,390l1.5,1.5l-5.4,5.3l-1.5-1.5L136.3,390z"/>
	<path d="M145.3,377.7l1.8,1.1l-4.1,6.4l-1.8-1.1L145.3,377.7z"/>
	<path d="M151.3,363.8l2,0.7l-2.6,7.1l-2-0.7L151.3,363.8z"/>
	<path d="M154,348.8l2.1,0.3l-0.9,7.5l-2.1-0.3L154,348.8z"/>
	<path d="M153.4,333.6l2.1-0.2l0.8,7.5l-2.1,0.2L153.4,333.6z"/>
	<path d="M149.5,319l2-0.7l2.4,7.2l-2,0.7L149.5,319z"/>
	<path d="M142.4,305.5l1.8-1.1l4,6.5l-1.8,1.1L142.4,305.5z"/>
	<path d="M132.5,294l1.5-1.5l5.3,5.4l-1.5,1.5L132.5,294z"/>
	<path d="M120.3,285l1.1-1.8l6.4,4.1l-1.1,1.8L120.3,285z"/>
	<path d="M106.3,278.8l0.7-2l7.1,2.6l-0.7,2L106.3,278.8z"/>
	<path d="M91.4,276l0.3-2.1l7.5,1l-0.3,2.1L91.4,276z"/>
	<path d="M76.2,276.4l-0.2-2.1l7.6-0.7l0.2,2.1L76.2,276.4z"/>
	<path d="M61.5,280.3l-0.6-2l7.2-2.4l0.6,2L61.5,280.3z"/>
	<path d="M48,287.2l-1.1-1.8l6.5-3.9l1.1,1.8L48,287.2z"/>
	<path d="M119.1,25.8l1.1-1.8l6.5,3.9l-1.1,1.8L119.1,25.8z"/>
	<path d="M105,20.1l0.7-2l7.2,2.4l-0.7,2L105,20.1z"/>
	<path d="M89.9,17.8l0.2-2.1l7.6,0.7l-0.2,2.1L89.9,17.8z"/>
	<path d="M74.8,18.8l-0.3-2.1l7.5-1l0.3,2.1L74.8,18.8z"/>
	<path d="M60.2,23.2l-0.7-2l7.1-2.6l0.7,2L60.2,23.2z"/>
	<path d="M47,30.7l-1.1-1.8l6.4-4.1l1.1,1.8L47,30.7z"/>
	<path d="M35.7,40.9l-1.5-1.5l5.3-5.4l1.5,1.5L35.7,40.9z"/>
	<path d="M27,53.3l-1.8-1.1l4-6.5l1.8,1.1L27,53.3z"/>
	<path d="M21.3,67.4l-2-0.7l2.4-7.2l2,0.7L21.3,67.4z"/>
	<path d="M18.8,82.4l-2.1-0.2l0.8-7.5l2.1,0.2L18.8,82.4z"/>
	<path d="M19.7,97.6l-2.1,0.3l-0.9-7.5l2.1-0.3L19.7,97.6z"/>
	<path d="M23.9,112.1l-2,0.7l-2.6-7.1l2-0.7L23.9,112.1z"/>
	<path d="M31.3,125.4l-1.8,1.1l-4.1-6.4l1.8-1.1L31.3,125.4z"/>
	<path d="M41.4,136.8l-1.5,1.5l-5.4-5.3l1.5-1.5L41.4,136.8z"/>
	<path d="M53.8,145.6l-1.1,1.8l-6.4-4l1.1-1.8L53.8,145.6z"/>
	<path d="M67.8,151.5l-0.7,2l-7.2-2.5l0.7-2L67.8,151.5z"/>
	<path d="M82.7,154.1l-0.2,2.1l-7.5-0.8l0.2-2.1L82.7,154.1z"/>
	<path d="M97.9,153.4l0.2,2.1l-7.5,0.8l-0.2-2.1L97.9,153.4z"/>
	<path d="M112.5,149.3l0.7,2l-7.2,2.5l-0.7-2L112.5,149.3z"/>
	<path d="M125.9,142l1.1,1.8l-6.4,4l-1.1-1.8L125.9,142z"/>
	<path d="M137.3,132l1.5,1.5l-5.4,5.3l-1.5-1.5L137.3,132z"/>
	<path d="M146.3,119.7l1.8,1.1l-4.1,6.4l-1.8-1.1L146.3,119.7z"/>
	<path d="M152.3,105.8l2,0.7l-2.6,7.1l-2-0.7L152.3,105.8z"/>
	<path d="M155,90.8l2.1,0.3l-0.9,7.5l-2.1-0.3L155,90.8z"/>
	<path d="M154.4,75.6l2.1-0.2l0.8,7.5l-2.1,0.2L154.4,75.6z"/>
	<path d="M150.5,61l2-0.7l2.4,7.2l-2,0.7L150.5,61z"/>
	<path d="M143.4,47.5l1.8-1.1l4,6.5l-1.8,1.1L143.4,47.5z"/>
	<path d="M133.5,36l1.5-1.5l5.3,5.4l-1.5,1.5L133.5,36z"/>
	<path d="M121.3,27l1.1-1.8l6.4,4.1l-1.1,1.8L121.3,27z"/>
	<path d="M107.3,20.8l0.7-2l7.1,2.6l-0.7,2L107.3,20.8z"/>
	<path d="M92.4,18l0.3-2.1l7.5,1l-0.3,2.1L92.4,18z"/>
	<path d="M77.2,18.4L77,16.4l7.6-0.7l0.2,2.1L77.2,18.4z"/>
	<path d="M62.5,22.3l-0.6-2l7.2-2.4l0.6,2L62.5,22.3z"/>
	<path d="M49,29.2L48,27.4l6.5-3.9l1.1,1.8L49,29.2z"/>
</g>
<g id="Слой_2">
	<g>
		<path d="M262,234.1c-9-15.4-21-27.3-35.9-35.7c11-8.7,19.6-19.6,25.9-32.7c6.3-13.1,9.5-27.5,9.5-43.2c0-14.1-2.3-27-7-38.7
			c-4.7-11.7-11.3-21.8-20-30.2c-8.6-8.7-19-15.4-30.9-20.1c-12-5-25.1-7.5-39.4-7.5c-10,0-19.6,1.3-28.9,4c-3.6,1-7.1,2.2-10.4,3.5
			v52.6c11.8-5.9,25.1-8.9,39.9-8.9c15.3,0,27.4,4.9,36.4,14.6c9,9.4,13.5,20.9,13.5,34.7c0,7-1.2,13.7-3.5,20.1
			c-2.3,6-5.8,11.4-10.5,16.1c-4.7,4.7-10.3,8.5-17,11.6c-6.7,2.7-14.3,4-22.9,4h-31.4v51.3h30.4c11.3,0,21.3,1.7,29.9,5
			c8.6,3,15.8,7.4,21.5,13.1c5.7,5.4,10,11.6,13,18.6c3,7,4.5,14.2,4.5,21.6c0,18.4-5.8,33-17.5,43.7
			c-11.3,10.7-26.9,16.1-46.9,16.1c-13.3,0-26.2-2.2-38.4-6.7v52.6c0.3,0.1,0.7,0.2,1,0.3c11.6,3.4,24.1,5,37.4,5
			c16,0,30.8-2.5,44.4-7.5c13.6-5,25.4-12.2,35.4-21.6c10-9.7,17.8-21.3,23.4-34.7c5.7-13.4,8.5-28.5,8.5-45.2
			C276,268.1,271.3,249.5,262,234.1z"/>
		<path class="st1" d="M109.4,41.1c-7.6,4.4-14.6,9.6-21,15.6c-6,6-10.8,12.6-14.5,19.6l10,45.7c9.6-13.1,21.1-23.8,34.4-32.2
			c2.1-1.3,4.3-2.5,6.5-3.7V33.6C119.5,35.7,114.3,38.2,109.4,41.1z"/>
		<path class="st1" d="M112.4,335.2c-16-8.4-29.8-20.9-41.4-37.7l-13,43.2c3,7,7.6,14.1,14,21.1c6.3,7,14.1,13.4,23.4,19.1
			c9,5.2,19.2,9.5,30.4,12.8V341C121.3,339.4,116.8,337.4,112.4,335.2z"/>
	</g>
</g>
</svg>
