<svg width="424" height="194" viewBox="0 0 424 194" fill="none" xmlns="http://www.w3.org/2000/svg">
<path d="M14.0531 163.451C11.525 162.707 9.07129 161.221 6.69194 158.991C4.46129 156.612 3.34596 153.193 3.34596 148.733C3.34596 144.274 4.83306 140.557 7.80725 137.584C10.9302 134.611 14.7223 133.124 19.1835 133.124C23.6448 133.124 27.4369 134.611 30.5598 137.584C33.6827 140.557 35.2442 144.422 35.2442 149.179C35.2442 153.044 34.575 156.389 33.2366 159.214C31.8982 162.038 30.4111 164.937 28.7753 167.91L14.2761 194H0L14.0531 163.451Z" fill="black"/>
<path d="M74.4652 160.775C71.491 157.653 70.0039 153.788 70.0039 149.179C70.0039 144.571 71.491 140.78 74.4652 137.807C77.5881 134.685 81.4545 133.124 86.0645 133.124C90.5258 133.124 94.2435 134.685 97.2177 137.807C100.341 140.78 101.902 144.571 101.902 149.179C101.902 153.788 100.341 157.653 97.2177 160.775C94.2435 163.897 90.5258 165.457 86.0645 165.457C81.4545 165.457 77.5881 163.897 74.4652 160.775ZM74.4652 84.0667C71.491 80.9448 70.0039 77.0797 70.0039 72.4713C70.0039 67.8628 71.491 64.072 74.4652 61.0988C77.5881 57.977 81.4545 56.4161 86.0645 56.4161C90.5258 56.4161 94.2435 57.977 97.2177 61.0988C100.341 64.072 101.902 67.8628 101.902 72.4713C101.902 77.0797 100.341 80.9448 97.2177 84.0667C94.2435 87.1885 90.5258 88.7494 86.0645 88.7494C81.4545 88.7494 77.5881 87.1885 74.4652 84.0667Z" fill="black"/>
<path d="M159.414 160.329C156.589 157.504 155.176 154.011 155.176 149.848C155.176 145.686 156.589 142.192 159.414 139.368C162.24 136.543 165.734 135.131 169.898 135.131C174.062 135.131 177.557 136.543 180.382 139.368C183.208 142.192 184.621 145.686 184.621 149.848C184.621 154.011 183.208 157.504 180.382 160.329C177.557 163.153 174.062 164.565 169.898 164.565C165.734 164.565 162.24 163.153 159.414 160.329ZM133.762 21.1839C135.1 18.3594 136.959 15.6835 139.339 13.1563C141.718 10.4805 144.543 8.17624 147.815 6.24367C151.087 4.31111 154.581 2.82451 158.299 1.7839C162.165 0.594631 166.106 0 170.121 0C176.07 0 181.349 0.817621 185.959 2.45287C190.569 4.08812 194.435 6.39234 197.558 9.36552C200.681 12.19 203.061 15.5349 204.696 19.4C206.332 23.2651 207.15 27.4276 207.15 31.8874C207.15 36.1985 206.407 40.0636 204.919 43.4828C203.432 46.9019 201.425 50.0981 198.897 53.0713C196.517 55.8958 193.618 58.4973 190.197 60.8759C186.926 63.2544 183.505 65.5586 179.936 67.7885C176.07 70.167 172.947 72.2483 170.568 74.0322C168.188 75.8161 166.329 77.4513 164.991 78.9379C163.653 80.2759 162.76 81.6138 162.314 82.9517C161.868 84.141 161.645 85.3303 161.645 86.5195C161.645 89.3441 162.76 91.6483 164.991 93.4322C167.222 95.2161 170.344 96.108 174.36 96.108C182.39 96.108 190.197 92.0942 197.781 84.0667L201.127 101.237C199.194 104.805 195.774 108.298 190.866 111.717C185.959 115.136 179.639 116.846 171.906 116.846C167.296 116.846 163.058 116.103 159.191 114.616C155.474 113.129 152.276 111.048 149.6 108.372C146.923 105.697 144.841 102.649 143.354 99.2299C142.015 95.6621 141.346 91.8713 141.346 87.8575C141.346 85.0329 141.718 82.1341 142.461 79.1609C143.354 76.1877 144.841 73.2146 146.923 70.2414C149.005 67.2682 151.756 64.295 155.176 61.3218C158.596 58.2 162.909 55.0782 168.114 51.9563C174.657 47.9425 179.416 44.5977 182.39 41.9218C185.364 39.246 186.851 36.1985 186.851 32.7793C186.851 29.3602 185.364 26.6843 182.39 24.7517C179.564 22.6705 175.549 21.6299 170.344 21.6299C164.099 21.6299 158.225 23.0421 152.722 25.8667C147.369 28.6912 142.685 32.705 138.669 37.908L133.762 21.1839Z" fill="black"/>
<path d="M354.317 57.308H330.226L325.765 82.0598H347.848V102.129H322.196L315.281 141.375H296.989L303.904 102.129H278.029L271.114 141.375H252.823L259.738 102.129H238.323V82.0598H263.307L267.768 57.308H244.792V37.2391H271.337L277.583 2.67585H295.874L289.628 37.2391H315.504L321.749 2.67585H340.041L333.795 37.2391H354.317V57.308ZM281.598 82.0598H307.473L311.935 57.308H286.059L281.598 82.0598Z" fill="black"/>
<path d="M401.024 111.494L395.225 2.67585H423.331L417.531 111.494H401.024ZM398.794 160.329C395.968 157.504 394.556 154.011 394.556 149.848C394.556 145.686 395.968 142.192 398.794 139.368C401.619 136.543 405.114 135.131 409.278 135.131C413.442 135.131 416.936 136.543 419.762 139.368C422.587 142.192 424 145.686 424 149.848C424 154.011 422.587 157.504 419.762 160.329C416.936 163.153 413.442 164.565 409.278 164.565C405.114 164.565 401.619 163.153 398.794 160.329Z" fill="black"/>
</svg>
